<?xml version="1.0" encoding="UTF-8" standalone="no"?>
<svg
   xmlns:dc="http://purl.org/dc/elements/1.1/"
   xmlns:cc="http://creativecommons.org/ns#"
   xmlns:rdf="http://www.w3.org/1999/02/22-rdf-syntax-ns#"
   xmlns:svg="http://www.w3.org/2000/svg"
   xmlns="http://www.w3.org/2000/svg"
   xmlns:sodipodi="http://sodipodi.sourceforge.net/DTD/sodipodi-0.dtd"
   xmlns:inkscape="http://www.inkscape.org/namespaces/inkscape"
   viewBox="0 0 210.00001 210.00001"
   version="1.1"
   id="svg80"
   sodipodi:docname="commonvoice.svg"
   width="210"
   height="210"
   inkscape:version="0.92.2 (unknown)">
  <metadata
     id="metadata84">
    <rdf:RDF>
      <cc:Work
         rdf:about="">
        <dc:format>image/svg+xml</dc:format>
        <dc:type
           rdf:resource="http://purl.org/dc/dcmitype/StillImage" />
        <dc:title>cv-logo-bw</dc:title>
      </cc:Work>
    </rdf:RDF>
  </metadata>
  <sodipodi:namedview
     pagecolor="#ffffff"
     bordercolor="#666666"
     borderopacity="1"
     objecttolerance="10"
     gridtolerance="10"
     guidetolerance="10"
     inkscape:pageopacity="0"
     inkscape:pageshadow="2"
     inkscape:window-width="1920"
     inkscape:window-height="1046"
     id="namedview82"
     showgrid="false"
     fit-margin-top="0"
     fit-margin-left="0"
     fit-margin-right="0"
     fit-margin-bottom="0"
     inkscape:zoom="1.5617578"
     inkscape:cx="107.12245"
     inkscape:cy="-21.057498"
     inkscape:window-x="0"
     inkscape:window-y="34"
     inkscape:window-maximized="1"
     inkscape:current-layer="svg80" />
  <defs
     id="defs4">
    <style
       id="style2">.cls-1{fill:none;}.cls-2{fill:#fff;}</style>
  </defs>
  <title
     id="title6">cv-logo-bw</title>
  <path
     d="m 107.39551,113.57753 v 6.14062 h 5.66992 v -6.14062 z m -62.871097,0.51953 v 4.94141 h 3.2207 l 12.07031,28.85937 h 4.16016 l 12.0586,-28.85937 h 3.12109 v -4.94141 h -12.79102 v 4.94141 h 3.80078 l -7.80078,20.01953 h -0.25976 l -8.00977,-20.01953 h 3.74024 v -4.94141 z m 44.50977,9.92969 c -4,0 -7.03295,1.22325 -9.09961,3.66992 a 13.21,13.21 0 0 0 -3.07032,8.76172 11.75,11.75 0 0 0 3.25,8.73828 11.68,11.68 0 0 0 8.56055,3.2207 12.34,12.34 0 0 0 9,-3.34961 11.72,11.72 0 0 0 3.460937,-8.81054 13,13 0 0 0 -2.999997,-8.58008 c -2.00667,-2.43334 -5.04156,-3.65039 -9.10156,-3.65039 z m 41.810547,0.0312 a 11.17,11.17 0 0 0 -8.5,3.42968 12.69,12.69 0 0 0 -3.25,9.09961 c 0,3.84667 1.05039,6.77769 3.15039,8.79102 a 11.27,11.27 0 0 0 8.14063,3 c 3.53333,0 6.09922,-0.96396 7.69922,-2.89063 a 11.46,11.46 0 0 0 2.75976,-6 l -4.67969,-0.88085 c -0.6,3.56 -2.35619,5.33984 -5.26953,5.33984 -4,0 -6,-2.52984 -6,-7.58984 0,-5.2 1.93836,-7.79883 5.81836,-7.79883 a 9.16,9.16 0 0 1 4.06055,0.93945 l 0.78125,3.84961 4.46875,-0.46875 -0.93945,-6.55078 a 15.48,15.48 0 0 0 -4.08008,-1.75 17.11,17.11 0 0 0 -4.16016,-0.51953 z m 24.15235,0.0312 a 11.56,11.56 0 0 0 -8.61133,3.57812 13.5,13.5 0 0 0 -3,8.93946 c 0,3.88 1.09263,6.81721 3.27929,8.81054 a 11.94,11.94 0 0 0 8.36915,3 11.16,11.16 0 0 0 7.4414,-2.28906 8,8 0 0 0 3,-5.36133 l -4.63086,-0.8789 a 6.46,6.46 0 0 1 -1.5293,2.75976 5,5 0 0 1 -3.87109,1.29883 c -3.84667,0 -5.9269,-2.18216 -6.24023,-6.54883 h 15.75976 a 17,17 0 0 0 0.31055,-3.12109 10.18,10.18 0 0 0 -2.88867,-7.3086 11.56,11.56 0 0 0 -7.38867,-2.8789 z m -50.98243,0.45898 v 4.31836 h 3.68946 v 14.77149 h -3.47852 v 4.25976 h 12.46875 v -4.25976 h -3.48047 v -19.08985 z m 50.9043,3.625 a 4.29,4.29 0 0 1 3.66602,1.86524 6,6 0 0 1 0.90429,2.23632 6,6 0 0 1 0,0.004 6,6 0 0 1 0.004,0.0293 6,6 0 0 1 0.0723,0.50196 6,6 0 0 1 0.01,1.19726 h -10.30078 a 8.22,8.22 0 0 1 0.008,-0.0488 h -0.0176 a 8.22,8.22 0 0 1 0.32032,-1.54296 8.22,8.22 0 0 1 0.0117,-0.041 8.22,8.22 0 0 1 0.23828,-0.66797 8.22,8.22 0 0 1 0.0742,-0.17774 8.22,8.22 0 0 1 0.24218,-0.51172 8.22,8.22 0 0 1 0.15625,-0.28906 8.22,8.22 0 0 1 0.22071,-0.36719 8.22,8.22 0 0 1 0.33593,-0.5039 l -0.0137,0.0234 a 8.22,8.22 0 0 1 0.0234,-0.0332 4.53,4.53 0 0 1 0.27344,-0.29492 4.53,4.53 0 0 1 3.52734,-1.36524 4.29,4.29 0 0 1 0.24414,-0.0137 z m -66.224617,0.21875 a 5.57,5.57 0 0 1 0.24024,0.006 5.57,5.57 0 0 1 0.0293,0 6,6 0 0 1 0.52539,0.01 6,6 0 0 1 0.20899,0.0176 6,6 0 0 1 0.41797,0.0508 6,6 0 0 1 0.11718,0.0215 6,6 0 0 1 0.48633,0.10938 6,6 0 0 1 0.0703,0.0215 6,6 0 0 1 0.52344,0.17382 6,6 0 0 1 2.29102,1.56446 8.24,8.24 0 0 1 0.47851,0.67969 8.24,8.24 0 0 1 0.0137,0.0195 8.24,8.24 0 0 1 0.01,0.0156 8.24,8.24 0 0 1 0.35156,0.60546 8.24,8.24 0 0 1 0.0879,0.17188 8.24,8.24 0 0 1 0.23243,0.50977 8.24,8.24 0 0 1 0.11718,0.29101 8.24,8.24 0 0 1 0.13868,0.41406 8.24,8.24 0 0 1 0.125,0.42774 8.24,8.24 0 0 1 0.0664,0.29492 8.24,8.24 0 0 1 0.10742,0.5918 8.24,8.24 0 0 1 0.0156,0.12304 8.24,8.24 0 0 1 0.0605,0.73438 8.24,8.24 0 0 1 0.002,0.041 8.24,8.24 0 0 1 -0.006,0.83008 9.11,9.11 0 0 1 -0.006,0.48242 9.11,9.11 0 0 1 -0.002,0.17969 9.11,9.11 0 0 1 -0.0586,0.75976 9.11,9.11 0 0 1 -0.0176,0.15821 9.11,9.11 0 0 1 -0.12695,0.70898 9.11,9.11 0 0 1 -0.041,0.20117 9.11,9.11 0 0 1 -0.18164,0.63672 9.11,9.11 0 0 1 -0.082,0.25781 9.11,9.11 0 0 1 -0.21875,0.55469 9.11,9.11 0 0 1 -0.13086,0.30273 9.11,9.11 0 0 1 -0.25585,0.4961 9.11,9.11 0 0 1 -0.18165,0.32422 9.11,9.11 0 0 1 -0.42773,0.6582 5.66,5.66 0 0 1 -0.29297,0.3457 5.66,5.66 0 0 1 -0.15625,0.16407 5.66,5.66 0 0 1 -0.26367,0.25586 5.66,5.66 0 0 1 -0.13477,0.11718 5.66,5.66 0 0 1 -0.3164,0.24805 5.66,5.66 0 0 1 -0.125,0.0879 5.66,5.66 0 0 1 -0.35547,0.22656 5.66,5.66 0 0 1 -0.10547,0.0586 5.66,5.66 0 0 1 -0.41602,0.21094 5.66,5.66 0 0 1 -0.0703,0.0312 5.66,5.66 0 0 1 -0.49414,0.1875 5.66,5.66 0 0 1 -0.53515,0.14844 5.66,5.66 0 0 1 -0.01,0.002 5.66,5.66 0 0 1 -0.0117,0.002 5.66,5.66 0 0 1 -0.54687,0.0918 5.66,5.66 0 0 1 -0.86524,0.043 5.35,5.35 0 0 1 -1.61914,-0.15625 5.35,5.35 0 0 1 -0.006,0 5.35,5.35 0 0 1 -0.33398,-0.0996 5.35,5.35 0 0 1 -0.23438,-0.0762 5.35,5.35 0 0 1 -0.13281,-0.0566 5.35,5.35 0 0 1 -0.37695,-0.16407 5.35,5.35 0 0 1 -0.0293,-0.0156 5.35,5.35 0 0 1 -2.00781,-1.73242 9.62,9.62 0 0 1 -1.43164,-3.69336 9.62,9.62 0 0 1 -0.10938,-0.93554 9.62,9.62 0 0 1 -0.006,-0.19727 9.62,9.62 0 0 1 -0.0137,-0.7832 8.84,8.84 0 0 1 -0.002,-0.82422 8.84,8.84 0 0 1 0.0137,-0.20703 8.84,8.84 0 0 1 0.0723,-0.73242 8.84,8.84 0 0 1 1.54688,-3.87696 5.57,5.57 0 0 1 3.27148,-2 5.57,5.57 0 0 1 0.0195,-0.004 5.57,5.57 0 0 1 0.47851,-0.0723 5.57,5.57 0 0 1 0.125,-0.0137 5.57,5.57 0 0 1 0.35742,-0.0176 5.57,5.57 0 0 1 0.13672,-0.008 z"
     id="path30"
     inkscape:connector-curvature="0" />
  <path
     d="m 18.614849,73.577532 a 16,16 0 0 0 -9.5703117,2.69922 16.17,16.17 0 0 0 -5.509766,6.82031 20.87,20.87 0 0 0 -1.769531,8.32031 16.58,16.58 0 0 0 4.759766,12.240238 16.38,16.38 0 0 0 12.0898427,4.75976 23.86,23.86 0 0 0 6.939453,-1 12.88,12.88 0 0 0 5.210938,-2.74023 l 0.730469,-7.378908 -4.730469,-0.48047 -0.830078,4.999998 a 14.08,14.08 0 0 1 -6.810547,1.45899 10.85,10.85 0 0 1 -8.058594,-3.08985 C 9.0193553,98.126902 7.9957093,95.084662 7.9957093,91.058002 c 0,-3.84667 0.962005,-6.87961 2.8886717,-9.09961 a 9.65,9.65 0 0 1 7.621093,-3.28125 13.44,13.44 0 0 1 7.490235,2 l 0.830078,4.67969 4.728515,-0.46875 -0.878906,-7.31055 a 15.61,15.61 0 0 0 -4.779297,-2.80078 19.78,19.78 0 0 0 -7.28125,-1.19922 z m 146.220701,10.44922 c -4,0 -7.03294,1.22325 -9.09961,3.66992 a 13.21,13.21 0 0 0 -3.07031,8.76172 11.75,11.75 0 0 0 3.25,8.738278 11.68,11.68 0 0 0 8.60938,3.2207 12.34,12.34 0 0 0 9,-3.34961 11.72,11.72 0 0 0 3.46093,-8.810538 13,13 0 0 0 -3,-8.58008 c -2.04666,-2.43334 -5.09705,-3.65039 -9.15039,-3.65039 z m -117.519534,0.0117 c -4.06666,0 -7.10156,1.22325 -9.10156,3.66992 a 13.21,13.21 0 0 0 -3.068357,8.75976 11.75,11.75 0 0 0 3.249997,8.740238 11.68,11.68 0 0 0 8.5586,3.20898 12.34,12.34 0 0 0 9,-3.34961 11.72,11.72 0 0 0 3.46093,-8.810538 13,13 0 0 0 -3,-8.58008 c -2,-2.42667 -5.03294,-3.63867 -9.09961,-3.63867 z m 31.29883,0.0586 a 7.87,7.87 0 0 0 -4.41992,1.20117 9,9 0 0 0 -2.91016,3.11914 v -3.83984 h -9 v 4.32031 h 3.48047 v 14.740238 h -3.51953 v 4.25976 h 13.41016 v -4.25976 h -4.3711 v -9.160158 a 7.47,7.47 0 0 1 1.34961,-4.24024 4.57,4.57 0 0 1 4,-1.8496 4,4 0 0 1 3.25,1.3789 c 0.78,0.92 1.16993,2.49094 1.16993,4.71094 v 9.150388 h -1.23829 v 4.25977 h 10.29883 v -4.25 h -3.49023 v -9.060548 a 7.7,7.7 0 0 1 1.33008,-4.25977 4.53,4.53 0 0 1 4,-1.87109 4.1,4.1 0 0 1 3.30078,1.38086 c 0.78,0.92 1.16992,2.49094 1.16992,4.71094 v 9.148428 h -1.30078 v 4.25977 H 105.4254 v -4.30859 h -3.42969 V 92.458382 c 0,-2.88 -0.79729,-4.99513 -2.390624,-6.3418 a 8.35,8.35 0 0 0 -5.56055,-2 8,8 0 0 0 -4.83984,1.43164 9.06,9.06 0 0 0 -3,3.81836 6.79,6.79 0 0 0 -2.91016,-4 8.79,8.79 0 0 0 -4.67969,-1.26953 z m 45.320314,0 a 7.87,7.87 0 0 0 -4.41992,1.20117 9,9 0 0 0 -2.91016,3.11914 v -3.83984 h -9 v 4.32031 h 3.42969 v 14.740238 h -3.48047 v 4.25976 h 13.42188 v -4.25976 h -4.3711 v -9.160158 a 7.47,7.47 0 0 1 1.34961,-4.24024 4.57,4.57 0 0 1 4,-1.8496 4,4 0 0 1 3.25,1.3789 c 0.78,0.92 1.16993,2.49094 1.16993,4.71094 v 9.150388 h -1.25 v 4.25977 h 10.30078 v -4.25 h -3.48047 v -9.060548 a 7.7,7.7 0 0 1 1.33008,-4.25977 4.53,4.53 0 0 1 4,-1.87109 4.1,4.1 0 0 1 3.30078,1.38086 c 0.79333,0.88667 1.18945,2.43706 1.18945,4.65039 v 9.150388 h -1.30078 v 4.25977 h 10.30078 v -4.25 h -3.42969 l -0.0195,-11.179688 c 0,-2.88 -0.79729,-4.99513 -2.39062,-6.3418 a 8.35,8.35 0 0 0 -5.56055,-2 8,8 0 0 0 -4.83984,1.43164 9.06,9.06 0 0 0 -3,3.81836 6.79,6.79 0 0 0 -2.91016,-4 8.79,8.79 0 0 0 -4.67969,-1.26953 z m 71.89258,0.0117 a 8.28,8.28 0 0 0 -6.92188,4.26953 v -3.80078 h -9.20117 v 4.32031 h 3.64063 v 14.740238 h -3.58008 v 4.25976 h 12.5293 v -4.25976 h -3.47852 v -9.310548 a 6.3,6.3 0 0 1 1.58984,-4.21094 5.33,5.33 0 0 1 4.18946,-1.71875 4.18,4.18 0 0 1 3.33008,1.37891 c 0.8,0.92 1.19922,2.49093 1.19922,4.71093 v 9.150398 h -3.35938 v 4.25976 h 12.48047 v -4.25976 h -3.48047 V 92.458362 c 0,-2.88 -0.79729,-4.99513 -2.39062,-6.3418 a 8.56,8.56 0 0 0 -5.71876,-2 8.28,8.28 0 0 0 -0.82812,-0.008 z m -148.982424,4.26367 a 5.57,5.57 0 0 1 0.26953,0.006 6,6 0 0 1 1.79102,0.22461 6,6 0 0 1 0.1289,0.0391 6,6 0 0 1 0.375,0.125 6,6 0 0 1 0.32813,0.13477 6,6 0 0 1 0.16992,0.0762 6,6 0 0 1 0.47656,0.25585 6,6 0 0 1 1.43164,1.16407 8.24,8.24 0 0 1 1.56055,3.18554 8.24,8.24 0 0 1 0.0352,0.15039 8.24,8.24 0 0 1 0.11133,0.57813 8.24,8.24 0 0 1 0.0469,0.375 8.24,8.24 0 0 1 0.0352,0.37695 8.24,8.24 0 0 1 0.0137,0.55664 8.24,8.24 0 0 1 -0.002,0.25 8.24,8.24 0 0 1 -0.002,0.2168 9.11,9.11 0 0 1 -0.0137,0.9082 9.11,9.11 0 0 1 -0.008,0.11133 9.11,9.11 0 0 1 -0.082,0.76563 9.11,9.11 0 0 1 -0.0371,0.21093 9.11,9.11 0 0 1 -0.13281,0.63672 9.11,9.11 0 0 1 -0.10157,0.36328 9.11,9.11 0 0 1 -0.14648,0.46094 9.11,9.11 0 0 1 -0.20313,0.515628 9.11,9.11 0 0 1 -0.12304,0.28711 9.11,9.11 0 0 1 -0.3125,0.60546 9.11,9.11 0 0 1 -0.0918,0.16797 9.11,9.11 0 0 1 -0.47852,0.7461 5.66,5.66 0 0 1 -4.72851,2.21093 5.35,5.35 0 0 1 -4.03906,-1.50781 5.35,5.35 0 0 1 -0.0332,-0.0332 5.35,5.35 0 0 1 -0.30078,-0.32031 5.35,5.35 0 0 1 -0.15234,-0.1875 5.35,5.35 0 0 1 -0.18555,-0.24023 9.62,9.62 0 0 1 -0.008,-0.0117 5.35,5.35 0 0 1 -0.0215,-0.0293 9.62,9.62 0 0 1 -0.44921,-0.77149 9.62,9.62 0 0 1 -0.0117,-0.0195 9.62,9.62 0 0 1 -1.12891,-4.828118 8.84,8.84 0 0 1 1.66016,-5.64063 5.57,5.57 0 0 1 4.35937,-2.11523 z m 117.642584,0.0176 a 5.57,5.57 0 0 1 0.27734,0.008 6,6 0 0 1 0.54883,0.01 6,6 0 0 1 0.14453,0.0137 6,6 0 0 1 0.50195,0.0606 6,6 0 0 1 3.46485,1.88476 8.24,8.24 0 0 1 1.79687,5.35352 8.24,8.24 0 0 1 -0.002,0.0801 8.24,8.24 0 0 1 -0.006,0.28711 9.11,9.11 0 0 1 -1.71875,5.749998 5.66,5.66 0 0 1 -3.30664,2.08203 5.66,5.66 0 0 1 -0.51172,0.0859 5.66,5.66 0 0 1 -0.11523,0.0117 5.66,5.66 0 0 1 -0.4043,0.0273 5.66,5.66 0 0 1 -0.39258,0.004 5.35,5.35 0 0 1 -0.2793,0.002 5.35,5.35 0 0 1 -0.31445,-0.004 5.35,5.35 0 0 1 -0.26758,-0.0234 5.35,5.35 0 0 1 -0.25,-0.0293 5.35,5.35 0 0 1 -0.27734,-0.0527 5.35,5.35 0 0 1 -0.26367,-0.0566 5.35,5.35 0 0 1 -0.17578,-0.0527 5.35,5.35 0 0 1 -0.35157,-0.11328 5.35,5.35 0 0 1 -0.14453,-0.0586 5.35,5.35 0 0 1 -0.32812,-0.14258 5.35,5.35 0 0 1 -0.18946,-0.10351 5.35,5.35 0 0 1 -0.29492,-0.16602 5.35,5.35 0 0 1 -0.10156,-0.0664 5.35,5.35 0 0 1 -0.34961,-0.24609 5.35,5.35 0 0 1 -0.0644,-0.0527 5.35,5.35 0 0 1 -0.33204,-0.28907 5.35,5.35 0 0 1 -0.0937,-0.0937 5.35,5.35 0 0 1 -0.26758,-0.28125 5.35,5.35 0 0 1 -0.10938,-0.13476 5.35,5.35 0 0 1 -0.25586,-0.32617 9.62,9.62 0 0 1 -0.0391,-0.0684 9.62,9.62 0 0 1 -0.1543,-0.25977 9.62,9.62 0 0 1 -0.34375,-0.60547 9.62,9.62 0 0 1 -0.0801,-0.16992 9.62,9.62 0 0 1 -0.31836,-0.716798 9.62,9.62 0 0 1 -0.0352,-0.10351 9.62,9.62 0 0 1 -0.61914,-3.69531 8.84,8.84 0 0 1 1.66016,-5.64063 5.57,5.57 0 0 1 2.44726,-1.75976 5.57,5.57 0 0 1 0.0156,-0.004 5.57,5.57 0 0 1 0.48632,-0.15235 5.57,5.57 0 0 1 0.0762,-0.0195 5.57,5.57 0 0 1 0.42773,-0.0898 5.57,5.57 0 0 1 0.17188,-0.0254 5.57,5.57 0 0 1 0.35742,-0.0371 5.57,5.57 0 0 1 0.20312,-0.01 5.57,5.57 0 0 1 0.17774,-0.01 z"
     id="path16"
     inkscape:connector-curvature="0" />
</svg>
