<svg width="650" height="650" version="1.1" viewBox="0 0 171.98 171.98" xmlns="http://www.w3.org/2000/svg"><g transform="translate(-34.042 -29.141)"><path d="m99.059 74.183c-11.035 0-20.93 5.0136-27.528 12.879v-0.55294h-27.827v49.312h7.9938v-20.237h11.85c2.6467 17.214 17.573 30.454 35.51 30.454 8.4055 0 16.149-2.9085 22.278-7.7696l8.7468 8.5928c-1.012 1.0128-1.4516 1.7314-1.3705 3.2132 0.11571 2.0958 1.6549 2.9326 4.7113 6.0208 6.3789 6.4467 21.144 21.124 21.144 21.124l1.8299 0.0248 9.3669-9.1209 0.0274-1.2831s-15.729-15.583-21.787-21.739c-3.029-3.0769-4.0956-4.5484-5.9449-4.5568-1.2166-6e-3 -1.9284 0.33126-2.7544 1.0764l-7.2822-7.1541c3.348 1.3524 7.4838 2.0288 12.411 2.0288 5.5757 0 9.949-1.2486 13.12-3.7445 3.1708-2.4956 4.7558-5.9361 4.7558-10.321 0-2.2257-0.39427-4.1596-1.1813-5.8007-0.7867-1.6425-2.0227-3.1144-3.7093-4.4194-1.687-1.3039-4.3395-2.7092-7.9597-4.2152-3.2163-1.3272-5.442-2.3946-6.6792-3.205-1.2361-0.80891-2.1252-1.6637-2.6639-2.5637-0.5401-0.9218-0.81029-2.0225-0.81029-3.3042 0-1.8672 0.67513-3.3624 2.0242-4.4871 1.349-1.1465 3.3281-1.7198 5.9366-1.7198 3.4396 0 7.3517 0.92175 11.737 2.7657l2.5647-6.5774c-4.6768-2.0683-9.3775-3.1032-14.098-3.1032-4.9251 0-8.8484 1.1806-11.773 3.5414-0.76708 0.61986-1.431 1.3018-1.9968 2.0423-6.3254-10.306-17.7-17.202-30.644-17.202zm0 7.4259c15.785 0 28.502 12.718 28.502 28.502 0 15.786-12.717 28.502-28.502 28.502-15.784 0-28.502-12.717-28.502-28.502 0-15.783 12.718-28.502 28.502-28.502zm82.459 4.192c-4.9251 0-8.8482 1.1806-11.772 3.5414-2.9228 2.3618-4.3837 5.5988-4.3837 9.7136 0 3.2836 0.9221 6.094 2.7657 8.4326 1.844 2.3386 5.0136 4.4192 9.5116 6.241 4.3614 1.753 7.2401 3.2716 8.6346 4.5532 1.3931 1.2816 2.0908 2.8441 2.0908 4.6881 0 2.0465-0.76517 3.6767-2.2934 4.8906-1.5064 1.2139-3.8572 1.8216-7.0502 1.8216-2.1802 0-4.5417-0.30463-7.0828-0.91106-2.5178-0.60784-4.902-1.4385-7.151-2.4954v7.6218c3.5542 1.7325 8.1182 2.5978 13.695 2.5978 5.5753 0 9.9494-1.2486 13.12-3.7445 3.1708-2.4956 4.7558-5.9361 4.7558-10.321 0-2.2257-0.39322-4.1596-1.1813-5.8007-0.7867-1.6425-2.0229-3.1144-3.7098-4.4194-1.6866-1.3039-4.339-2.7092-7.9592-4.2152-3.2163-1.3272-5.4422-2.3946-6.6797-3.205-1.2361-0.80891-2.1247-1.6637-2.6634-2.5637-0.54046-0.9218-0.81028-2.0225-0.81029-3.3042 0-1.8672 0.67514-3.3624 2.0242-4.4871 1.349-1.1465 3.3278-1.7198 5.9366-1.7198 3.4396 0 7.3536 0.92175 11.737 2.7657l2.5642-6.5774c-4.6771-2.0683-9.3777-3.1032-14.099-3.1032zm-85.639 4.5367c-0.20219-0.0019-0.48745 0.05071-0.85628 0.15813-2.0839 0.61454-3.4509 1.6588-4.101 3.1362-2.5178 5.6995-4.9966 12.921-7.4357 21.663-0.12982 0.40111-0.29517 0.63146-0.49661 0.68936-0.26176 0.0772-0.95361-0.78969-2.0779-2.6019-0.5775-0.97683-1.1672-1.3752-1.7694-1.1963-0.50698 0.14745-1.0443 0.52083-1.6092 1.1188-0.915 0.96344-1.2849 1.7944-1.1085 2.4918 0.16121 0.64347 0.96766 2.1193 2.42 4.4261 1.2901 2.0807 2.2285 3.1682 2.8169 3.2634 0.22719 0.0413 0.89554-0.10186 2.0061-0.42995 1.0915-0.32244 1.7394-0.83515 1.9461-1.5379 2.9171-10.057 6.3744-19.813 10.374-29.27 0.3376-0.82974 0.47699-1.3618 0.4191-1.5932-0.04163-0.15028-0.1584-0.24936-0.35243-0.29766-0.04895-0.0127-0.10727-0.01952-0.17467-0.02016zm-44.181 2.9859h15.61c-2.4619 4.6337-3.9384 9.8652-4.1486 15.414h-11.461zm51.389 10.085v15.28h1.7306l0.4191-1.2842h0.15968c0.75635 0.98918 1.825 1.4826 3.2029 1.4826 1.3589 0 2.421-0.49627 3.1859-1.4883 0.76764-0.99236 1.1519-2.3787 1.1519-4.162 0-1.7706-0.37862-3.1474-1.1353-4.1284-0.75776-0.9839-1.8123-1.4774-3.1641-1.4774-1.4302 0-2.5109 0.54036-3.2412 1.6206h-0.0987c0.0138-0.14323 0.034-0.47956 0.0605-1.0087 0.0247-0.53199 0.0382-0.93302 0.0382-1.2015v-3.6323zm-7.8724 4.222c-1.6429 0-2.9163 0.49498-3.8204 1.4831-0.90099 0.98919-1.3503 2.3631-1.3503 4.1228 0 1.1356 0.20929 2.1321 0.62839 2.9879 0.41874 0.85689 1.0168 1.5146 1.7968 1.9735 0.77858 0.46002 1.6755 0.68884 2.6898 0.68884 1.6207 0 2.8859-0.49737 3.7982-1.494 0.91087-0.99485 1.3668-2.3815 1.3668-4.1563 0-1.7117-0.46011-3.0731-1.3777-4.0845-0.9151-1.0142-2.1592-1.5214-3.7316-1.5214zm24.003 0c-1.2901 0-2.3101 0.25804-3.0598 0.77204-0.74683 0.5154-1.1188 1.2374-1.1188 2.1663 0 0.77153 0.22049 1.3996 0.66146 1.8846s1.2854 0.97015 2.5352 1.4552c0.64241 0.24695 1.1444 0.46853 1.5053 0.66714 0.35984 0.19579 0.61702 0.38484 0.77154 0.56793 0.15701 0.18485 0.23667 0.41333 0.23667 0.68884 0 0.85726-0.70935 1.2847-2.1275 1.2847-1.1024 0-2.2916-0.29369-3.5662-0.88212v1.9901c0.87771 0.44097 2.0392 0.66146 3.4835 0.66146 1.44 0 2.5471-0.28248 3.3187-0.84904 0.77435-0.56903 1.1627-1.3834 1.1627-2.4417 0-0.52529-0.0991-0.97583-0.29766-1.3508-0.19579-0.37464-0.49601-0.70572-0.90381-0.99218-0.40535-0.28928-1.0556-0.60917-1.9513-0.95912-1.0664-0.41063-1.7583-0.73431-2.0779-0.96996-0.31714-0.23425-0.47439-0.52374-0.47439-0.86559 0-0.69462 0.60796-1.0418 1.8247-1.0418 0.79656 0 1.7817 0.24254 2.9543 0.72761l0.74983-1.7358c-1.1398-0.51823-2.3478-0.77773-3.6267-0.77773zm-24.042 1.8852c1.8482 1e-5 2.773 1.2403 2.773 3.7207 0 2.5107-0.91754 3.7651-2.7502 3.7651-1.8521 0-2.7786-1.2544-2.7786-3.7651 0-1.1973 0.2167-2.1167 0.6506-2.7559 0.43709-0.64241 1.138-0.9648 2.1053-0.9648zm12.861 0c1.6895 0 2.5358 1.2347 2.5358 3.7042 0 1.2238-0.21198 2.1607-0.63355 2.8112-0.42298 0.6477-1.0445 0.97048-1.8629 0.97048-0.94826 0-1.6319-0.29514-2.051-0.8878-0.41875-0.59513-0.62839-1.5544-0.62839-2.8773v-0.154c0.0109-1.2816 0.22058-2.197 0.62839-2.7456 0.41063-0.54681 1.0818-0.82114 2.0118-0.82114zm26.921 1.9751c1.3459 0.78516 2.8893 1.532 4.6354 2.2391 4.3614 1.753 7.2401 3.2716 8.6346 4.5532 1.3931 1.2816 2.0903 2.8441 2.0903 4.6881 0 2.0465-0.76465 3.6767-2.2929 4.8906-1.5064 1.2139-3.8572 1.8216-7.0502 1.8216-2.1798 0-4.5422-0.30463-7.0833-0.91106-1.2117-0.29258-2.3916-0.6378-3.5414-1.034 2.7367-4.8357 4.3837-10.363 4.6075-16.248zm-8.2166 21.489v0.22634l-0.1049-0.10283c0.0346-0.0415 0.0705-0.0819 0.1049-0.12351z" color="#000000" color-rendering="auto" dominant-baseline="auto" image-rendering="auto" shape-rendering="auto" solid-color="#000000" style="font-feature-settings:normal;font-variant-alternates:normal;font-variant-caps:normal;font-variant-ligatures:normal;font-variant-numeric:normal;font-variant-position:normal;isolation:auto;mix-blend-mode:normal;shape-padding:0;text-decoration-color:#000000;text-decoration-line:none;text-decoration-style:solid;text-indent:0;text-orientation:mixed;text-transform:none;white-space:normal"/></g></svg>
