<?xml version="1.0" encoding="UTF-8" standalone="no"?>
<!-- Created with Inkscape (http://www.inkscape.org/) -->
<svg xmlns:dc="http://purl.org/dc/elements/1.1/" xmlns:cc="http://creativecommons.org/ns#" xmlns:rdf="http://www.w3.org/1999/02/22-rdf-syntax-ns#" xmlns:svg="http://www.w3.org/2000/svg" xmlns="http://www.w3.org/2000/svg" xmlns:sodipodi="http://sodipodi.sourceforge.net/DTD/sodipodi-0.dtd" xmlns:inkscape="http://www.inkscape.org/namespaces/inkscape" width="214.44185mm" height="159.43591mm" viewBox="0 0 214.44185 159.43591" version="1.1" id="svg8" inkscape:version="0.92.2 (5c3e80d, 2017-08-06)" sodipodi:docname="logo sans pages_LSP_R_H2.svg">
  <defs id="defs2">
    <inkscape:path-effect effect="simplify" id="path-effect1282" is_visible="true" steps="1" threshold="0.00241738" smooth_angles="360" helper_size="0" simplify_individual_paths="false" simplify_just_coalesce="false" simplifyindividualpaths="false" simplifyJustCoalesce="false"/>
    <inkscape:path-effect effect="simplify" id="path-effect1278" is_visible="true" steps="1" threshold="0.00241738" smooth_angles="360" helper_size="0" simplify_individual_paths="false" simplify_just_coalesce="false" simplifyindividualpaths="false" simplifyJustCoalesce="false"/>
    <inkscape:path-effect effect="simplify" id="path-effect1274" is_visible="true" steps="1" threshold="0.00241738" smooth_angles="360" helper_size="0" simplify_individual_paths="false" simplify_just_coalesce="false" simplifyindividualpaths="false" simplifyJustCoalesce="false"/>
    <inkscape:path-effect effect="simplify" id="path-effect1266" is_visible="true" steps="1" threshold="0.00241738" smooth_angles="360" helper_size="0" simplify_individual_paths="false" simplify_just_coalesce="false" simplifyindividualpaths="false" simplifyJustCoalesce="false"/>
    <inkscape:path-effect effect="simplify" id="path-effect1262" is_visible="true" steps="1" threshold="0.00241738" smooth_angles="360" helper_size="0" simplify_individual_paths="false" simplify_just_coalesce="false" simplifyindividualpaths="false" simplifyJustCoalesce="false"/>
    <inkscape:path-effect effect="simplify" id="path-effect1258" is_visible="true" steps="1" threshold="0.00241738" smooth_angles="360" helper_size="0" simplify_individual_paths="false" simplify_just_coalesce="false" simplifyindividualpaths="false" simplifyJustCoalesce="false"/>
    <inkscape:path-effect effect="simplify" id="path-effect1254" is_visible="true" steps="1" threshold="0.00241738" smooth_angles="360" helper_size="0" simplify_individual_paths="false" simplify_just_coalesce="false" simplifyindividualpaths="false" simplifyJustCoalesce="false"/>
    <inkscape:path-effect effect="simplify" id="path-effect1250" is_visible="true" steps="1" threshold="0.00241738" smooth_angles="360" helper_size="0" simplify_individual_paths="false" simplify_just_coalesce="false" simplifyindividualpaths="false" simplifyJustCoalesce="false"/>
    <inkscape:path-effect effect="simplify" id="path-effect1246" is_visible="true" steps="1" threshold="0.00241738" smooth_angles="360" helper_size="0" simplify_individual_paths="false" simplify_just_coalesce="false" simplifyindividualpaths="false" simplifyJustCoalesce="false"/>
    <inkscape:path-effect effect="simplify" id="path-effect1242" is_visible="true" steps="1" threshold="0.00241738" smooth_angles="360" helper_size="0" simplify_individual_paths="false" simplify_just_coalesce="false" simplifyindividualpaths="false" simplifyJustCoalesce="false"/>
    <inkscape:path-effect effect="simplify" id="path-effect1238" is_visible="true" steps="1" threshold="0.00241738" smooth_angles="360" helper_size="0" simplify_individual_paths="false" simplify_just_coalesce="false" simplifyindividualpaths="false" simplifyJustCoalesce="false"/>
    <inkscape:path-effect effect="simplify" id="path-effect1234" is_visible="true" steps="1" threshold="0.00241738" smooth_angles="360" helper_size="0" simplify_individual_paths="false" simplify_just_coalesce="false" simplifyindividualpaths="false" simplifyJustCoalesce="false"/>
    <inkscape:path-effect effect="simplify" id="path-effect1230" is_visible="true" steps="1" threshold="0.00241738" smooth_angles="360" helper_size="0" simplify_individual_paths="false" simplify_just_coalesce="false" simplifyindividualpaths="false" simplifyJustCoalesce="false"/>
    <inkscape:path-effect effect="simplify" id="path-effect1226" is_visible="true" steps="1" threshold="0.00241738" smooth_angles="360" helper_size="0" simplify_individual_paths="false" simplify_just_coalesce="false" simplifyindividualpaths="false" simplifyJustCoalesce="false"/>
    <inkscape:path-effect effect="simplify" id="path-effect1222" is_visible="true" steps="1" threshold="0.00241738" smooth_angles="360" helper_size="0" simplify_individual_paths="false" simplify_just_coalesce="false" simplifyindividualpaths="false" simplifyJustCoalesce="false"/>
    <inkscape:path-effect effect="simplify" id="path-effect1218" is_visible="true" steps="1" threshold="0.00241738" smooth_angles="360" helper_size="0" simplify_individual_paths="false" simplify_just_coalesce="false" simplifyindividualpaths="false" simplifyJustCoalesce="false"/>
    <inkscape:path-effect effect="simplify" id="path-effect1214" is_visible="true" steps="1" threshold="0.00241738" smooth_angles="360" helper_size="0" simplify_individual_paths="false" simplify_just_coalesce="false" simplifyindividualpaths="false" simplifyJustCoalesce="false"/>
    <inkscape:path-effect effect="simplify" id="path-effect1210" is_visible="true" steps="1" threshold="0.00241738" smooth_angles="360" helper_size="0" simplify_individual_paths="false" simplify_just_coalesce="false" simplifyindividualpaths="false" simplifyJustCoalesce="false"/>
    <inkscape:path-effect effect="simplify" id="path-effect1202" is_visible="true" steps="1" threshold="0.00241738" smooth_angles="360" helper_size="0" simplify_individual_paths="false" simplify_just_coalesce="false" simplifyindividualpaths="false" simplifyJustCoalesce="false"/>
    <inkscape:path-effect effect="simplify" id="path-effect1198" is_visible="true" steps="1" threshold="0.00241738" smooth_angles="360" helper_size="0" simplify_individual_paths="false" simplify_just_coalesce="false" simplifyindividualpaths="false" simplifyJustCoalesce="false"/>
    <inkscape:path-effect effect="simplify" id="path-effect1194" is_visible="true" steps="1" threshold="0.00241738" smooth_angles="360" helper_size="0" simplify_individual_paths="false" simplify_just_coalesce="false" simplifyindividualpaths="false" simplifyJustCoalesce="false"/>
    <inkscape:path-effect effect="simplify" id="path-effect1190" is_visible="true" steps="1" threshold="0.00241738" smooth_angles="360" helper_size="0" simplify_individual_paths="false" simplify_just_coalesce="false" simplifyindividualpaths="false" simplifyJustCoalesce="false"/>
    <inkscape:path-effect effect="simplify" id="path-effect1186" is_visible="true" steps="1" threshold="0.00241738" smooth_angles="360" helper_size="0" simplify_individual_paths="false" simplify_just_coalesce="false" simplifyindividualpaths="false" simplifyJustCoalesce="false"/>
    <inkscape:path-effect effect="simplify" id="path-effect1182" is_visible="true" steps="1" threshold="0.00241738" smooth_angles="360" helper_size="0" simplify_individual_paths="false" simplify_just_coalesce="false" simplifyindividualpaths="false" simplifyJustCoalesce="false"/>
    <inkscape:path-effect effect="simplify" id="path-effect1178" is_visible="true" steps="1" threshold="0.00241738" smooth_angles="360" helper_size="0" simplify_individual_paths="false" simplify_just_coalesce="false" simplifyindividualpaths="false" simplifyJustCoalesce="false"/>
    <inkscape:path-effect effect="simplify" id="path-effect1170" is_visible="true" steps="1" threshold="0.00241738" smooth_angles="360" helper_size="0" simplify_individual_paths="false" simplify_just_coalesce="false" simplifyindividualpaths="false" simplifyJustCoalesce="false"/>
    <inkscape:path-effect effect="simplify" id="path-effect1166" is_visible="true" steps="1" threshold="0.00241738" smooth_angles="360" helper_size="0" simplify_individual_paths="false" simplify_just_coalesce="false" simplifyindividualpaths="false" simplifyJustCoalesce="false"/>
    <inkscape:path-effect effect="simplify" id="path-effect1162" is_visible="true" steps="1" threshold="0.00241738" smooth_angles="360" helper_size="0" simplify_individual_paths="false" simplify_just_coalesce="false" simplifyindividualpaths="false" simplifyJustCoalesce="false"/>
    <inkscape:path-effect effect="simplify" id="path-effect1158" is_visible="true" steps="1" threshold="0.00241738" smooth_angles="360" helper_size="0" simplify_individual_paths="false" simplify_just_coalesce="false" simplifyindividualpaths="false" simplifyJustCoalesce="false"/>
    <inkscape:path-effect effect="simplify" id="path-effect1154" is_visible="true" steps="1" threshold="0.00241738" smooth_angles="360" helper_size="0" simplify_individual_paths="false" simplify_just_coalesce="false" simplifyindividualpaths="false" simplifyJustCoalesce="false"/>
    <inkscape:path-effect effect="simplify" id="path-effect1150" is_visible="true" steps="1" threshold="0.00241738" smooth_angles="360" helper_size="0" simplify_individual_paths="false" simplify_just_coalesce="false" simplifyindividualpaths="false" simplifyJustCoalesce="false"/>
    <inkscape:path-effect effect="simplify" id="path-effect1146" is_visible="true" steps="1" threshold="0.00241738" smooth_angles="360" helper_size="0" simplify_individual_paths="false" simplify_just_coalesce="false" simplifyindividualpaths="false" simplifyJustCoalesce="false"/>
    <inkscape:path-effect effect="simplify" id="path-effect1142" is_visible="true" steps="1" threshold="0.00241738" smooth_angles="360" helper_size="0" simplify_individual_paths="false" simplify_just_coalesce="false" simplifyindividualpaths="false" simplifyJustCoalesce="false"/>
    <inkscape:path-effect effect="simplify" id="path-effect1138" is_visible="true" steps="1" threshold="0.00241738" smooth_angles="360" helper_size="0" simplify_individual_paths="false" simplify_just_coalesce="false" simplifyindividualpaths="false" simplifyJustCoalesce="false"/>
    <inkscape:path-effect effect="simplify" id="path-effect1134" is_visible="true" steps="1" threshold="0.00241738" smooth_angles="360" helper_size="0" simplify_individual_paths="false" simplify_just_coalesce="false" simplifyindividualpaths="false" simplifyJustCoalesce="false"/>
    <inkscape:path-effect effect="simplify" id="path-effect1114" is_visible="true" steps="1" threshold="0.00777223" smooth_angles="360" helper_size="0" simplify_individual_paths="false" simplify_just_coalesce="false" simplifyindividualpaths="false" simplifyJustCoalesce="false"/>
    <inkscape:path-effect effect="simplify" id="path-effect1110" is_visible="true" steps="1" threshold="0.00777223" smooth_angles="360" helper_size="0" simplify_individual_paths="false" simplify_just_coalesce="false" simplifyindividualpaths="false" simplifyJustCoalesce="false"/>
    <inkscape:path-effect effect="simplify" id="path-effect1106" is_visible="true" steps="1" threshold="0.00777223" smooth_angles="360" helper_size="0" simplify_individual_paths="false" simplify_just_coalesce="false" simplifyindividualpaths="false" simplifyJustCoalesce="false"/>
    <inkscape:path-effect effect="simplify" id="path-effect1102" is_visible="true" steps="1" threshold="0.00777223" smooth_angles="360" helper_size="0" simplify_individual_paths="false" simplify_just_coalesce="false" simplifyindividualpaths="false" simplifyJustCoalesce="false"/>
    <inkscape:path-effect effect="simplify" id="path-effect1098" is_visible="true" steps="1" threshold="0.00777223" smooth_angles="360" helper_size="0" simplify_individual_paths="false" simplify_just_coalesce="false" simplifyindividualpaths="false" simplifyJustCoalesce="false"/>
    <inkscape:path-effect effect="simplify" id="path-effect1094" is_visible="true" steps="1" threshold="0.00777223" smooth_angles="360" helper_size="0" simplify_individual_paths="false" simplify_just_coalesce="false" simplifyindividualpaths="false" simplifyJustCoalesce="false"/>
    <inkscape:path-effect effect="simplify" id="path-effect1090" is_visible="true" steps="1" threshold="0.00777223" smooth_angles="360" helper_size="0" simplify_individual_paths="false" simplify_just_coalesce="false" simplifyindividualpaths="false" simplifyJustCoalesce="false"/>
    <inkscape:path-effect effect="simplify" id="path-effect1086" is_visible="true" steps="1" threshold="0.00777223" smooth_angles="360" helper_size="0" simplify_individual_paths="false" simplify_just_coalesce="false" simplifyindividualpaths="false" simplifyJustCoalesce="false"/>
    <inkscape:path-effect effect="simplify" id="path-effect1082" is_visible="true" steps="1" threshold="0.00777223" smooth_angles="360" helper_size="0" simplify_individual_paths="false" simplify_just_coalesce="false" simplifyindividualpaths="false" simplifyJustCoalesce="false"/>
    <inkscape:path-effect effect="simplify" id="path-effect1078" is_visible="true" steps="1" threshold="0.00777223" smooth_angles="360" helper_size="0" simplify_individual_paths="false" simplify_just_coalesce="false" simplifyindividualpaths="false" simplifyJustCoalesce="false"/>
    <inkscape:path-effect effect="simplify" id="path-effect1066" is_visible="true" steps="1" threshold="0.00777223" smooth_angles="360" helper_size="0" simplify_individual_paths="false" simplify_just_coalesce="false" simplifyindividualpaths="false" simplifyJustCoalesce="false"/>
    <inkscape:path-effect effect="simplify" id="path-effect1062" is_visible="true" steps="1" threshold="0.00777223" smooth_angles="360" helper_size="0" simplify_individual_paths="false" simplify_just_coalesce="false" simplifyindividualpaths="false" simplifyJustCoalesce="false"/>
    <inkscape:path-effect effect="simplify" id="path-effect1058" is_visible="true" steps="1" threshold="0.00777223" smooth_angles="360" helper_size="0" simplify_individual_paths="false" simplify_just_coalesce="false" simplifyindividualpaths="false" simplifyJustCoalesce="false"/>
    <inkscape:path-effect effect="simplify" id="path-effect1054" is_visible="true" steps="1" threshold="0.00777223" smooth_angles="360" helper_size="0" simplify_individual_paths="false" simplify_just_coalesce="false" simplifyindividualpaths="false" simplifyJustCoalesce="false"/>
    <inkscape:path-effect effect="simplify" id="path-effect1046" is_visible="true" steps="1" threshold="0.00777223" smooth_angles="360" helper_size="0" simplify_individual_paths="false" simplify_just_coalesce="false" simplifyindividualpaths="false" simplifyJustCoalesce="false"/>
    <inkscape:path-effect effect="simplify" id="path-effect1042" is_visible="true" steps="1" threshold="0.00777223" smooth_angles="360" helper_size="0" simplify_individual_paths="false" simplify_just_coalesce="false" simplifyindividualpaths="false" simplifyJustCoalesce="false"/>
    <inkscape:path-effect effect="simplify" id="path-effect1038" is_visible="true" steps="1" threshold="0.00777223" smooth_angles="360" helper_size="0" simplify_individual_paths="false" simplify_just_coalesce="false" simplifyindividualpaths="false" simplifyJustCoalesce="false"/>
    <inkscape:path-effect effect="simplify" id="path-effect1034" is_visible="true" steps="1" threshold="0.00777223" smooth_angles="360" helper_size="0" simplify_individual_paths="false" simplify_just_coalesce="false" simplifyindividualpaths="false" simplifyJustCoalesce="false"/>
    <inkscape:path-effect effect="simplify" id="path-effect1030" is_visible="true" steps="1" threshold="0.00777223" smooth_angles="360" helper_size="0" simplify_individual_paths="false" simplify_just_coalesce="false" simplifyindividualpaths="false" simplifyJustCoalesce="false"/>
    <inkscape:path-effect effect="simplify" id="path-effect1026" is_visible="true" steps="1" threshold="0.00777223" smooth_angles="360" helper_size="0" simplify_individual_paths="false" simplify_just_coalesce="false" simplifyindividualpaths="false" simplifyJustCoalesce="false"/>
    <inkscape:path-effect effect="simplify" id="path-effect1022" is_visible="true" steps="1" threshold="0.00777223" smooth_angles="360" helper_size="0" simplify_individual_paths="false" simplify_just_coalesce="false" simplifyindividualpaths="false" simplifyJustCoalesce="false"/>
    <inkscape:path-effect effect="simplify" id="path-effect1014" is_visible="true" steps="1" threshold="0.00777223" smooth_angles="360" helper_size="0" simplify_individual_paths="false" simplify_just_coalesce="false" simplifyindividualpaths="false" simplifyJustCoalesce="false"/>
    <inkscape:path-effect effect="simplify" id="path-effect1010" is_visible="true" steps="1" threshold="0.00777223" smooth_angles="360" helper_size="0" simplify_individual_paths="false" simplify_just_coalesce="false" simplifyindividualpaths="false" simplifyJustCoalesce="false"/>
    <inkscape:path-effect effect="simplify" id="path-effect1006" is_visible="true" steps="1" threshold="0.00777223" smooth_angles="360" helper_size="0" simplify_individual_paths="false" simplify_just_coalesce="false" simplifyindividualpaths="false" simplifyJustCoalesce="false"/>
    <inkscape:path-effect effect="simplify" id="path-effect1002" is_visible="true" steps="1" threshold="0.00777223" smooth_angles="360" helper_size="0" simplify_individual_paths="false" simplify_just_coalesce="false" simplifyindividualpaths="false" simplifyJustCoalesce="false"/>
    <inkscape:path-effect effect="simplify" id="path-effect998" is_visible="true" steps="1" threshold="0.0265217" smooth_angles="360" helper_size="0" simplify_individual_paths="false" simplify_just_coalesce="false" simplifyindividualpaths="false" simplifyJustCoalesce="false"/>
    <inkscape:path-effect effect="simplify" id="path-effect990" is_visible="true" steps="1" threshold="0.000408163" smooth_angles="360" helper_size="0" simplify_individual_paths="false" simplify_just_coalesce="false" simplifyindividualpaths="false" simplifyJustCoalesce="false"/>
    <inkscape:path-effect effect="simplify" id="path-effect986" is_visible="true" steps="1" threshold="0.000408163" smooth_angles="360" helper_size="0" simplify_individual_paths="false" simplify_just_coalesce="false" simplifyindividualpaths="false" simplifyJustCoalesce="false"/>
    <inkscape:path-effect effect="simplify" id="path-effect982" is_visible="true" steps="1" threshold="0.000408163" smooth_angles="360" helper_size="0" simplify_individual_paths="false" simplify_just_coalesce="false" simplifyindividualpaths="false" simplifyJustCoalesce="false"/>
    <inkscape:path-effect effect="simplify" id="path-effect978" is_visible="true" steps="1" threshold="0.000408163" smooth_angles="360" helper_size="0" simplify_individual_paths="false" simplify_just_coalesce="false" simplifyindividualpaths="false" simplifyJustCoalesce="false"/>
    <inkscape:path-effect effect="simplify" id="path-effect974" is_visible="true" steps="1" threshold="0.000408163" smooth_angles="360" helper_size="0" simplify_individual_paths="false" simplify_just_coalesce="false" simplifyindividualpaths="false" simplifyJustCoalesce="false"/>
    <inkscape:path-effect effect="simplify" id="path-effect966" is_visible="true" steps="1" threshold="0.000408163" smooth_angles="360" helper_size="0" simplify_individual_paths="false" simplify_just_coalesce="false" simplifyindividualpaths="false" simplifyJustCoalesce="false"/>
    <inkscape:path-effect effect="simplify" id="path-effect962" is_visible="true" steps="1" threshold="0.000408163" smooth_angles="360" helper_size="0" simplify_individual_paths="false" simplify_just_coalesce="false" simplifyindividualpaths="false" simplifyJustCoalesce="false"/>
    <inkscape:path-effect effect="simplify" id="path-effect958" is_visible="true" steps="1" threshold="0.000408163" smooth_angles="360" helper_size="0" simplify_individual_paths="false" simplify_just_coalesce="false" simplifyindividualpaths="false" simplifyJustCoalesce="false"/>
    <inkscape:path-effect effect="simplify" id="path-effect954" is_visible="true" steps="1" threshold="0.000408163" smooth_angles="360" helper_size="0" simplify_individual_paths="false" simplify_just_coalesce="false" simplifyindividualpaths="false" simplifyJustCoalesce="false"/>
    <inkscape:path-effect effect="simplify" id="path-effect950" is_visible="true" steps="1" threshold="0.000408163" smooth_angles="360" helper_size="0" simplify_individual_paths="false" simplify_just_coalesce="false" simplifyindividualpaths="false" simplifyJustCoalesce="false"/>
    <inkscape:path-effect effect="simplify" id="path-effect946" is_visible="true" steps="1" threshold="0.000408163" smooth_angles="360" helper_size="0" simplify_individual_paths="false" simplify_just_coalesce="false" simplifyindividualpaths="false" simplifyJustCoalesce="false"/>
    <inkscape:path-effect effect="simplify" id="path-effect942" is_visible="true" steps="1" threshold="0.000408163" smooth_angles="360" helper_size="0" simplify_individual_paths="false" simplify_just_coalesce="false" simplifyindividualpaths="false" simplifyJustCoalesce="false"/>
    <inkscape:path-effect effect="simplify" id="path-effect938" is_visible="true" steps="1" threshold="0.000408163" smooth_angles="360" helper_size="0" simplify_individual_paths="false" simplify_just_coalesce="false" simplifyindividualpaths="false" simplifyJustCoalesce="false"/>
    <inkscape:path-effect effect="simplify" id="path-effect918" is_visible="true" steps="1" threshold="0.000408163" smooth_angles="360" helper_size="0" simplify_individual_paths="false" simplify_just_coalesce="false" simplifyindividualpaths="false" simplifyJustCoalesce="false"/>
    <inkscape:path-effect effect="simplify" id="path-effect914" is_visible="true" steps="1" threshold="0.000408163" smooth_angles="360" helper_size="0" simplify_individual_paths="false" simplify_just_coalesce="false" simplifyindividualpaths="false" simplifyJustCoalesce="false"/>
    <inkscape:path-effect effect="simplify" id="path-effect910" is_visible="true" steps="1" threshold="0.000408163" smooth_angles="360" helper_size="0" simplify_individual_paths="false" simplify_just_coalesce="false" simplifyindividualpaths="false" simplifyJustCoalesce="false"/>
    <inkscape:path-effect effect="simplify" id="path-effect906" is_visible="true" steps="1" threshold="0.000408163" smooth_angles="360" helper_size="0" simplify_individual_paths="false" simplify_just_coalesce="false" simplifyindividualpaths="false" simplifyJustCoalesce="false"/>
    <inkscape:path-effect effect="simplify" id="path-effect902" is_visible="true" steps="1" threshold="0.000408163" smooth_angles="360" helper_size="0" simplify_individual_paths="false" simplify_just_coalesce="false" simplifyindividualpaths="false" simplifyJustCoalesce="false"/>
    <inkscape:path-effect effect="simplify" id="path-effect894" is_visible="true" steps="1" threshold="0.000408163" smooth_angles="360" helper_size="0" simplify_individual_paths="false" simplify_just_coalesce="false" simplifyindividualpaths="false" simplifyJustCoalesce="false"/>
    <inkscape:path-effect effect="simplify" id="path-effect890" is_visible="true" steps="1" threshold="0.000408163" smooth_angles="360" helper_size="0" simplify_individual_paths="false" simplify_just_coalesce="false" simplifyindividualpaths="false" simplifyJustCoalesce="false"/>
    <inkscape:path-effect effect="simplify" id="path-effect886" is_visible="true" steps="1" threshold="0.000408163" smooth_angles="360" helper_size="0" simplify_individual_paths="false" simplify_just_coalesce="false" simplifyindividualpaths="false" simplifyJustCoalesce="false"/>
    <inkscape:path-effect effect="simplify" id="path-effect882" is_visible="true" steps="1" threshold="0.000408163" smooth_angles="360" helper_size="0" simplify_individual_paths="false" simplify_just_coalesce="false" simplifyindividualpaths="false" simplifyJustCoalesce="false"/>
    <inkscape:path-effect effect="simplify" id="path-effect878" is_visible="true" steps="1" threshold="0.000408163" smooth_angles="360" helper_size="0" simplify_individual_paths="false" simplify_just_coalesce="false" simplifyindividualpaths="false" simplifyJustCoalesce="false"/>
    <inkscape:path-effect effect="simplify" id="path-effect874" is_visible="true" steps="1" threshold="0.000408163" smooth_angles="360" helper_size="0" simplify_individual_paths="false" simplify_just_coalesce="false" simplifyindividualpaths="false" simplifyJustCoalesce="false"/>
    <inkscape:path-effect effect="simplify" id="path-effect870" is_visible="true" steps="1" threshold="0.000408163" smooth_angles="360" helper_size="0" simplify_individual_paths="false" simplify_just_coalesce="false" simplifyindividualpaths="false" simplifyJustCoalesce="false"/>
    <inkscape:path-effect effect="simplify" id="path-effect866" is_visible="true" steps="1" threshold="0.000408163" smooth_angles="360" helper_size="0" simplify_individual_paths="false" simplify_just_coalesce="false" simplifyindividualpaths="false" simplifyJustCoalesce="false"/>
    <inkscape:path-effect effect="simplify" id="path-effect862" is_visible="true" steps="1" threshold="0.000408163" smooth_angles="360" helper_size="0" simplify_individual_paths="false" simplify_just_coalesce="false" simplifyindividualpaths="false" simplifyJustCoalesce="false"/>
    <inkscape:path-effect effect="simplify" id="path-effect858" is_visible="true" steps="1" threshold="0.000408163" smooth_angles="360" helper_size="0" simplify_individual_paths="false" simplify_just_coalesce="false" simplifyindividualpaths="false" simplifyJustCoalesce="false"/>
    <inkscape:path-effect effect="simplify" id="path-effect854" is_visible="true" steps="1" threshold="0.000408163" smooth_angles="360" helper_size="0" simplify_individual_paths="false" simplify_just_coalesce="false" simplifyindividualpaths="false" simplifyJustCoalesce="false"/>
    <inkscape:path-effect effect="simplify" id="path-effect850" is_visible="true" steps="1" threshold="0.000408163" smooth_angles="360" helper_size="0" simplify_individual_paths="false" simplify_just_coalesce="false" simplifyindividualpaths="false" simplifyJustCoalesce="false"/>
    <inkscape:path-effect effect="simplify" id="path-effect846" is_visible="true" steps="1" threshold="0.000408163" smooth_angles="360" helper_size="0" simplify_individual_paths="false" simplify_just_coalesce="false" simplifyindividualpaths="false" simplifyJustCoalesce="false"/>
  </defs>
  <sodipodi:namedview id="base" pagecolor="#ffffff" bordercolor="#666666" borderopacity="1.0" inkscape:pageopacity="0.0" inkscape:pageshadow="2" inkscape:zoom="0.69457128" inkscape:cx="335.87315" inkscape:cy="253.69977" inkscape:document-units="mm" inkscape:current-layer="layer2" showgrid="false" inkscape:window-width="1366" inkscape:window-height="705" inkscape:window-x="-8" inkscape:window-y="-8" inkscape:window-maximized="1" showguides="false" fit-margin-top="10" fit-margin-left="10" fit-margin-right="10" fit-margin-bottom="10.1"/>
  <metadata id="metadata5">
    <rdf:RDF>
      <cc:Work rdf:about="">
        <dc:format>image/svg+xml</dc:format>
        <dc:type rdf:resource="http://purl.org/dc/dcmitype/StillImage"/>
        <dc:title/>
      </cc:Work>
    </rdf:RDF>
  </metadata>
  <g inkscape:groupmode="layer" id="layer16" inkscape:label="femmevoilée" sodipodi:insensitive="true" transform="translate(-14.393518,-11.007752)">
    <g inkscape:groupmode="layer" id="layer21" inkscape:label="voile" style="opacity:1" sodipodi:insensitive="true">
      <path style="fill:#cfd6e1;fill-opacity:1;stroke:none;stroke-width:0.26458332px;stroke-linecap:butt;stroke-linejoin:miter;stroke-opacity:1" d="m 208.25978,72.31273 -2.72317,-3.22861 c 0,0 -2.04687,-1.875956 -2.19861,-3.848637 -0.15175,-1.972683 -22.22787,-13.175515 -38.08794,0.151744 -7.50935,6.31013 -7.89993,7.503394 -9.79633,12.424716 -7.52527,19.528707 -4.26326,62.640437 -4.26326,62.640437 0,0 4.3695,15.16013 16.50908,15.00839 12.13958,-0.15175 46.44253,1.39166 43.63015,-6.51085 -2.16738,-6.09013 -5.51995,-4.40423 -5.0573,-19.98651 0.0564,-1.89822 -12.33743,-0.99789 -16.63811,-5.52914 -4.3484,-4.58152 -5.86926,-3.10364 -7.6923,-10.85441 -3.16341,-13.449383 4.4363,-20.651984 6.90438,-29.969601 5.84248,-4.085935 12.31213,-8.773399 19.41341,-10.297529 z" id="path1046" inkscape:connector-curvature="0" sodipodi:nodetypes="cccsscssssscc"/>
      <path style="fill:none;stroke:#97a5b8;stroke-width:0.36500001;stroke-linecap:round;stroke-linejoin:round;stroke-miterlimit:4;stroke-dasharray:none;stroke-opacity:1" d="m 208.4577,73.179289 c 0,0 -4.61528,-9.93251 -15.35588,-6.357526" id="path1048" inkscape:connector-curvature="0" sodipodi:nodetypes="cc"/>
      <path style="fill:none;stroke:#848fa0;stroke-width:0.22025631px;stroke-linecap:round;stroke-linejoin:round;stroke-opacity:0.91764706" d="m 178.51836,89.01263 c 0,0 4.85868,-6.631832 12.59091,-9.44483" id="path1050" inkscape:connector-curvature="0" sodipodi:nodetypes="cc"/>
      <path style="fill:none;stroke:#838f9f;stroke-width:0.2194677px;stroke-linecap:butt;stroke-linejoin:miter;stroke-opacity:0.91764706" d="m 185.37331,119.63561 c 0,0 -6.37955,-3.28224 -7.75278,-11.50653" id="path1053" inkscape:connector-curvature="0"/>
    </g>
    <g inkscape:groupmode="layer" id="layer20" inkscape:label="visage" style="opacity:1" sodipodi:insensitive="true">
      <path style="fill:#8499c9;fill-opacity:1;stroke:none;stroke-width:0.26458332px;stroke-linecap:butt;stroke-linejoin:miter;stroke-opacity:1" d="m 212.99002,89.609667 c 1.23395,4.93579 3.87012,6.545286 4.29932,7.403684 0.4292,0.858399 2.65394,2.544266 0.85107,3.862789 -1.80287,1.31852 -3.58003,1.09768 -5.0373,2.36073 -1.02003,0.88408 0.19064,3.52927 0.85261,4.50646 1.12665,1.66314 0.59015,3.05804 -2.84344,4.34564 -3.4336,1.2876 -4.70847,1.40675 -4.70847,1.40675 l 6.53256,1.43669 c 0,0 2.7246,1.0164 -1.2204,1.94704 -3.34822,0.78986 -1.1424,4.86575 -1.51574,7.17344 -0.39141,2.41943 -1.87775,5.57959 -7.56464,5.25769 -5.68688,-0.3219 -12.41551,-3.77849 -17.72906,-9.31975 -4.56246,-6.61426 -6.47039,-15.82088 -2.17504,-27.054869 4.88214,-12.768671 8.35536,-13.345911 8.35536,-13.345911 0,0 9.76019,-7.245347 17.17293,-7.27732 1.40404,2.213458 5.31438,11.302048 4.73024,17.296937 z" id="path1042" inkscape:connector-curvature="0" sodipodi:nodetypes="cszsssccssscsccc"/>
    </g>
    <g inkscape:groupmode="layer" id="layer22" inkscape:label="yeux" style="opacity:1" sodipodi:insensitive="true">
      <path style="fill:#e5e8f2;fill-opacity:1;stroke:none;stroke-width:0.26458332px;stroke-linecap:butt;stroke-linejoin:miter;stroke-opacity:1" d="m 195.1154,92.225493 c 0.66334,-0.821079 4.19354,-4.956372 6.96646,-4.981319 2.77291,-0.02495 5.00129,4.243239 1.88959,6.389234 -1.55585,1.072998 -1.38885,1.55966 -8.04577,0.135309 -1.43464,-0.306964 -1.35083,-0.874136 -0.81028,-1.543224 z" id="path1057" inkscape:connector-curvature="0" sodipodi:nodetypes="sccss"/>
      <path style="fill:#455880;fill-opacity:1;stroke:none;stroke-width:0.26458332px;stroke-linecap:butt;stroke-linejoin:miter;stroke-opacity:1" d="m 204.2864,85.531345 c 0.22356,0.247968 2.3159,1.067036 0.94841,-0.872532 -0.64492,-1.138084 -5.04552,-1.820937 -8.23216,0.872532 -3.18664,2.693472 -4.55234,3.338386 -5.19725,5.121386 -0.37937,1.403639 1.3657,0.227619 1.3657,0.227619 0,0 4.51441,-3.717747 5.38694,-4.059173 0.87253,-0.341425 2.99695,-2.541728 5.72836,-1.289832 z" id="path1059" inkscape:connector-curvature="0" sodipodi:nodetypes="ccsccsc"/>
      <path style="fill:#262e3c;fill-opacity:1;stroke:none;stroke-width:0.31305471px;stroke-linecap:butt;stroke-linejoin:miter;stroke-opacity:1" d="m 201.27021,87.427145 c -1.51625,0.238345 -3.12251,1.982622 -2.50191,3.865584 0.6206,1.882959 2.35827,2.012819 2.35827,2.012819 1.30569,0.120955 4.16929,0.156818 3.82232,-2.87589 -0.34697,-3.032707 -2.11506,-3.248304 -3.67868,-3.002513 z" id="path1061" inkscape:connector-curvature="0" sodipodi:nodetypes="sssss"/>
      <ellipse style="opacity:0.97000002;fill:#9398a3;fill-opacity:1;stroke:none;stroke-width:0.32439873;stroke-linecap:round;stroke-linejoin:round;stroke-miterlimit:4;stroke-dasharray:none;stroke-opacity:0.91764706" id="path1067" cx="202.74289" cy="89.877922" rx="1.4355291" ry="1.2274383"/>
    </g>
    <g inkscape:groupmode="layer" id="layer23" inkscape:label="levres" sodipodi:insensitive="true">
      <path style="fill:#455880;fill-opacity:1;stroke:none;stroke-width:0.26458332px;stroke-linecap:butt;stroke-linejoin:miter;stroke-opacity:1" d="m 206.40381,113.49572 c 1.43717,-0.17687 5.6988,-1.68635 6.45617,-2.2057 0.64007,-0.43892 2.79266,-1.71027 1.50066,-3.21666 -0.66497,-0.58248 -2.71598,1.12188 -4.69559,2.76322 -1.86629,1.54737 -4.37639,1.87616 -4.34111,2.53679 0.0513,0.96002 1.97538,1.72747 3.74243,2.69661 2.05176,1.12529 7.53242,0.43194 3.87,-1.13757 -2.99957,-1.28546 -6.53256,-1.43669 -6.53256,-1.43669 z" id="path1072" inkscape:connector-curvature="0" sodipodi:nodetypes="sscsssss"/>
      <ellipse style="opacity:0.97000002;fill:#455f80;fill-opacity:1;stroke:none;stroke-width:0.36500001;stroke-linecap:round;stroke-linejoin:round;stroke-miterlimit:4;stroke-dasharray:none;stroke-opacity:0.91764706" id="path1074" cx="205.86673" cy="110.15024" rx="0.29507434" ry="0.26824942"/>
    </g>
    <g inkscape:groupmode="layer" id="layer24" inkscape:label="nez" sodipodi:insensitive="true">
      <path style="fill:none;fill-opacity:1;stroke:#5d7cbf;stroke-width:0.36500001;stroke-linecap:round;stroke-linejoin:miter;stroke-miterlimit:4;stroke-dasharray:none;stroke-opacity:0.72941176" d="m 210.64491,101.09121 c 0,0 -0.64772,1.93119 0.79505,1.98471" id="path1077" inkscape:connector-curvature="0"/>
    </g>
  </g>
  <g inkscape:groupmode="layer" id="layer11" inkscape:label="femmeblanche" sodipodi:insensitive="true" transform="translate(-14.393518,-11.007752)">
    <g inkscape:groupmode="layer" id="layer13" inkscape:label="cou" style="opacity:1" sodipodi:insensitive="true">
      <path style="fill:#b4c9e8;fill-opacity:1;stroke:none;stroke-width:0.26458332px;stroke-linecap:butt;stroke-linejoin:miter;stroke-opacity:1" d="m 119.55386,125.6735 16.25297,0.18899 c -0.0587,5.77927 -0.81474,11.60377 4.53572,12.47321 4.03913,0.65636 6.32733,-0.96198 9.26041,0 2.88123,0.94497 8.2568,4.20821 5.85864,5.29167 -5.16989,2.33568 -17.15782,3.02693 -27.22091,3.3104 -8.92637,-0.19206 -17.04764,1.09583 -22.96089,-2.69295 0,0 -0.47784,-5.41059 3.11815,-6.37802 2.06985,-0.55685 6.42968,0.0913 6.42968,0.0913 6.3985,-1.49977 4.72848,-12.22959 4.7267,-12.28449 z" id="path1153" inkscape:connector-curvature="0" sodipodi:nodetypes="ccsssccsscc"/>
    </g>
    <g inkscape:groupmode="layer" id="layer12" inkscape:label="visage" style="opacity:1" sodipodi:insensitive="true">
      <path style="fill:#b4c9e8;fill-opacity:1;stroke:none;stroke-width:0.26458332px;stroke-linecap:butt;stroke-linejoin:miter;stroke-opacity:1" d="m 126.54642,70.300001 c 0,0 22.18242,-6.724849 22.6798,22.30034 0.32952,19.229569 0.18778,16.820099 0.18778,16.820099 0,0 -1.93075,12.2331 -13.60717,16.44205 -11.67643,4.20895 -20.2334,-0.84167 -22.8734,-4.01161 -2.63999,-3.16994 -4.99675,-3.93184 -5.04958,-12.95029 -0.25974,-7.86658 -0.96864,-10.913698 -1.04497,-18.656348 -0.22925,-23.254065 12.06045,-14.943328 19.70754,-19.944241 z" id="path1141" inkscape:connector-curvature="0" sodipodi:nodetypes="cscsccsc"/>
      <ellipse style="opacity:0.97000002;fill:#a3b5dd;fill-opacity:1;stroke:none;stroke-width:0.36500001;stroke-linecap:round;stroke-linejoin:round;stroke-miterlimit:4;stroke-dasharray:none;stroke-opacity:0.72941176" id="path1081" cx="112.00066" cy="107.79069" rx="0.30348957" ry="0.22761716"/>
      <ellipse style="opacity:0.97000002;fill:#a3b5dd;fill-opacity:1;stroke:none;stroke-width:0.36500001;stroke-linecap:round;stroke-linejoin:round;stroke-miterlimit:4;stroke-dasharray:none;stroke-opacity:0.72941176" id="path1081-5" cx="111.53371" cy="109.95128" rx="0.30348957" ry="0.22761716"/>
      <ellipse style="opacity:0.97000002;fill:#a3b5dd;fill-opacity:1;stroke:none;stroke-width:0.36500001;stroke-linecap:round;stroke-linejoin:round;stroke-miterlimit:4;stroke-dasharray:none;stroke-opacity:0.72941176" id="path1081-8" cx="115.34725" cy="109.94297" rx="0.30348957" ry="0.22761716"/>
      <ellipse style="opacity:0.97000002;fill:#a3b5dd;fill-opacity:1;stroke:none;stroke-width:0.36500001;stroke-linecap:round;stroke-linejoin:round;stroke-miterlimit:4;stroke-dasharray:none;stroke-opacity:0.72941176" id="path1081-58" cx="113.7914" cy="111.55247" rx="0.30348957" ry="0.22761716"/>
      <ellipse style="opacity:0.97000002;fill:#a3b5dd;fill-opacity:1;stroke:none;stroke-width:0.36500001;stroke-linecap:round;stroke-linejoin:round;stroke-miterlimit:4;stroke-dasharray:none;stroke-opacity:0.72941176" id="path1081-6" cx="115.45455" cy="107.85062" rx="0.30348957" ry="0.22761716"/>
      <ellipse style="opacity:0.97000002;fill:#a3b5dd;fill-opacity:1;stroke:none;stroke-width:0.36500001;stroke-linecap:round;stroke-linejoin:round;stroke-miterlimit:4;stroke-dasharray:none;stroke-opacity:0.72941176" id="path1081-69" cx="118.0834" cy="110.37217" rx="0.30348957" ry="0.22761716"/>
      <ellipse style="opacity:0.97000002;fill:#a3b5dd;fill-opacity:1;stroke:none;stroke-width:0.36500001;stroke-linecap:round;stroke-linejoin:round;stroke-miterlimit:4;stroke-dasharray:none;stroke-opacity:0.72941176" id="path1081-9" cx="119.1564" cy="107.52873" rx="0.30348957" ry="0.22761716"/>
      <ellipse style="opacity:0.97000002;fill:#a3b5dd;fill-opacity:1;stroke:none;stroke-width:0.36500001;stroke-linecap:round;stroke-linejoin:round;stroke-miterlimit:4;stroke-dasharray:none;stroke-opacity:0.72941176" id="path1081-51" cx="131.71918" cy="107.81751" rx="0.30348957" ry="0.22761716"/>
      <ellipse style="opacity:0.97000002;fill:#a3b5dd;fill-opacity:1;stroke:none;stroke-width:0.36500001;stroke-linecap:round;stroke-linejoin:round;stroke-miterlimit:4;stroke-dasharray:none;stroke-opacity:0.72941176" id="path1081-5-6" cx="131.14493" cy="110.62191" rx="0.30348957" ry="0.22761716"/>
      <ellipse style="opacity:0.97000002;fill:#a3b5dd;fill-opacity:1;stroke:none;stroke-width:0.36500001;stroke-linecap:round;stroke-linejoin:round;stroke-miterlimit:4;stroke-dasharray:none;stroke-opacity:0.72941176" id="path1081-8-1" cx="136.03146" cy="110.1844" rx="0.30348957" ry="0.22761716"/>
      <ellipse style="opacity:0.97000002;fill:#a3b5dd;fill-opacity:1;stroke:none;stroke-width:0.36500001;stroke-linecap:round;stroke-linejoin:round;stroke-miterlimit:4;stroke-dasharray:none;stroke-opacity:0.72941176" id="path1081-58-3" cx="134.42197" cy="112.16944" rx="0.30348957" ry="0.22761716"/>
      <ellipse style="opacity:0.97000002;fill:#a3b5dd;fill-opacity:1;stroke:none;stroke-width:0.36500001;stroke-linecap:round;stroke-linejoin:round;stroke-miterlimit:4;stroke-dasharray:none;stroke-opacity:0.72941176" id="path1081-6-4" cx="136.13876" cy="108.03839" rx="0.30348957" ry="0.22761716"/>
      <ellipse style="opacity:0.97000002;fill:#a3b5dd;fill-opacity:1;stroke:none;stroke-width:0.36500001;stroke-linecap:round;stroke-linejoin:round;stroke-miterlimit:4;stroke-dasharray:none;stroke-opacity:0.72941176" id="path1081-69-2" cx="139.62601" cy="111.15009" rx="0.30348957" ry="0.22761716"/>
      <ellipse style="opacity:0.97000002;fill:#a3b5dd;fill-opacity:1;stroke:none;stroke-width:0.36500001;stroke-linecap:round;stroke-linejoin:round;stroke-miterlimit:4;stroke-dasharray:none;stroke-opacity:0.72941176" id="path1081-9-7" cx="139.84062" cy="107.55556" rx="0.30348957" ry="0.22761716"/>
    </g>
    <g inkscape:groupmode="layer" id="layer14" inkscape:label="levres" style="opacity:1" sodipodi:insensitive="true">
      <path style="fill:#8499c9;fill-opacity:1;stroke:none;stroke-width:0.25664052px;stroke-linecap:butt;stroke-linejoin:miter;stroke-opacity:1" d="m 125.29971,118.43981 c 0,0 0.88584,-1.00014 1.7008,-0.63342 0.95671,0.46672 3.57879,1.63356 4.50006,0.83344 0.92127,-0.80011 -2.18956,2.00003 -3.05248,2.78509 -1.60407,1.45936 -3.67989,2.38229 -5.87676,0.91542 -3.01747,-1.93778 -2.23793,-2.13781 -4.25752,-3.10321 2.75422,1.06158 4.84243,-1.1312 5.3914,-1.29739 1.21363,-0.29604 1.27065,0.95827 1.5945,0.50007 z" id="path1157" inkscape:connector-curvature="0" sodipodi:nodetypes="sccscccs"/>
      <path style="fill:none;fill-opacity:1;stroke:#b4c9e8;stroke-width:0.16500001;stroke-linecap:butt;stroke-linejoin:miter;stroke-miterlimit:4;stroke-dasharray:none;stroke-opacity:1" d="m 118.31381,119.23713 c 0,0 5.42499,3.05749 13.09189,-0.29991" id="path1159" inkscape:connector-curvature="0"/>
    </g>
    <g inkscape:groupmode="layer" id="layer15" inkscape:label="nez" sodipodi:insensitive="true">
      <path style="fill:none;stroke:#8499c9;stroke-width:0.16500001;stroke-linecap:round;stroke-linejoin:round;stroke-miterlimit:4;stroke-dasharray:none;stroke-opacity:1" d="m 122.57767,97.514291 c 0,0 1.26927,8.887599 -1.42368,12.076609 -2.69294,3.18901 0.92127,3.75595 0.92127,3.75595 l 4.66015,0.0424 c 0,0 1.00921,-0.39677 0.65487,-1.31804" id="path1162" inkscape:connector-curvature="0"/>
    </g>
    <g inkscape:groupmode="layer" id="layer17" inkscape:label="yeux" style="opacity:1" sodipodi:insensitive="true">
      <path style="fill:#e5e9f2;fill-opacity:1;stroke:none;stroke-width:0.26458332px;stroke-linecap:butt;stroke-linejoin:miter;stroke-opacity:1" d="m 112.37231,101.10505 c 0,0 -0.79154,-3.437636 3.04146,-3.774115 4.75428,-0.97428 4.25202,4.393735 4.25202,4.393735 0,0 0.0709,2.48034 -3.47248,3.47248 -4.32289,0.28347 -3.82039,-4.09198 -3.82039,-4.09198" id="path1167" inkscape:connector-curvature="0" sodipodi:nodetypes="ccccc"/>
      <path style="fill:#232a38;fill-opacity:1;stroke:none;stroke-width:0.27229282px;stroke-linecap:butt;stroke-linejoin:miter;stroke-opacity:1" d="m 114.42885,97.590166 c 0,0 -1.08814,1.6787 -0.88015,3.808384 0.26312,2.08123 0.68386,3.45694 1.19859,3.60795 0.47766,0.20045 0.57562,0.4314 1.61464,0.19065 1.03903,-0.24076 1.56679,-3.37266 1.51372,-4.0742 -0.0531,-0.70155 -1.25399,-3.82575 -2.33935,-3.792015 -1.21433,0.03774 -1.10745,0.259231 -1.10745,0.259231 z" id="path1219" inkscape:connector-curvature="0" sodipodi:nodetypes="cccccsc"/>
      <ellipse style="opacity:0.97000002;fill:#969ba6;fill-opacity:1;stroke:none;stroke-width:0.18002978;stroke-linecap:round;stroke-linejoin:round;stroke-miterlimit:4;stroke-dasharray:none;stroke-opacity:1" id="path1217" cx="116.41096" cy="100.8645" rx="1.352983" ry="1.2527621" inkscape:transform-center-x="2.9565183" inkscape:transform-center-y="-3.0066288"/>
      <path style="opacity:0.97899996;fill:#e5e9f2;fill-opacity:1;stroke:none;stroke-width:0.26458332px;stroke-linecap:butt;stroke-linejoin:miter;stroke-opacity:1" d="m 131.78442,100.88733 c 0,0 -0.79154,-3.437625 3.04146,-3.774104 4.75428,-0.974283 4.25202,4.393724 4.25202,4.393724 0,0 0.0709,2.48034 -3.47248,3.47248 -4.32289,0.28347 -3.82039,-4.09198 -3.82039,-4.09198" id="path1167-7" inkscape:connector-curvature="0" sodipodi:nodetypes="ccccc"/>
      <path style="opacity:0.97899996;fill:#232a38;fill-opacity:1;stroke:none;stroke-width:0.27229282px;stroke-linecap:butt;stroke-linejoin:miter;stroke-opacity:1" d="m 133.84096,97.372455 c 0,0 -1.08814,1.678691 -0.88015,3.808375 0.26312,2.08123 0.68386,3.45694 1.19859,3.60795 0.47766,0.20045 0.57562,0.4314 1.61464,0.19065 1.03903,-0.24076 1.56679,-3.37266 1.51372,-4.0742 -0.0531,-0.70155 -1.25399,-3.825744 -2.33935,-3.792004 -1.21433,0.0377 -1.10745,0.259229 -1.10745,0.259229 z" id="path1219-8" inkscape:connector-curvature="0" sodipodi:nodetypes="cccccsc"/>
      <ellipse style="opacity:0.97000002;fill:#969ba6;fill-opacity:1;stroke:none;stroke-width:0.18002978;stroke-linecap:round;stroke-linejoin:round;stroke-miterlimit:4;stroke-dasharray:none;stroke-opacity:1" id="path1217-7" cx="136.03769" cy="100.64678" rx="1.352983" ry="1.2527621" inkscape:transform-center-x="2.9565183" inkscape:transform-center-y="-3.0066288"/>
      <path style="fill:#859cd0;fill-opacity:1;stroke:none;stroke-width:0.29561141px;stroke-linecap:butt;stroke-linejoin:miter;stroke-opacity:1" d="m 130.21285,95.235098 c 0.93816,0.321711 2.67328,-1.044627 4.72827,-1.486976 2.41237,-0.241279 3.52129,0.235016 5.15586,1.565195 1.20618,1.045554 1.08695,3.262352 2.12595,1.410607 0.53609,-1.125978 -2.50171,-4.544128 -5.00344,-4.624555 -2.50174,-0.08043 -4.42272,0.04021 -5.76292,0.92491 -1.34023,0.884697 -1.24372,2.210819 -1.24372,2.210819 z" id="path1257" inkscape:connector-curvature="0" sodipodi:nodetypes="scccscs"/>
      <path style="fill:#859cd0;fill-opacity:1;stroke:none;stroke-width:0.26458332px;stroke-linecap:butt;stroke-linejoin:miter;stroke-opacity:1" d="m 111.23473,96.955957 c 0,0 1.50855,-2.651581 3.79362,-2.883151 2.24908,-0.227922 1.53825,-0.714049 4.7145,1.324811 3.02346,1.773461 1.73729,-0.979858 0.59657,-1.855917 -3.03752,-2.260909 -8.40282,-1.450562 -9.86341,1.517446 -0.60698,1.365705 -0.37156,3.173286 -0.37156,3.173286 0,0 0.87476,0.224337 1.13028,-1.276475 z" id="path1259" inkscape:connector-curvature="0" sodipodi:nodetypes="csccccc"/>
    </g>
    <g inkscape:groupmode="layer" id="layer18" inkscape:label="cheveux" sodipodi:insensitive="true">
      <path style="fill:#6680b0;fill-opacity:1;stroke:none;stroke-width:0.26458332px;stroke-linecap:butt;stroke-linejoin:miter;stroke-opacity:1" d="m 126.54642,73.475001 c 0,0 22.22561,9.481189 22.67857,19.125599 0.16104,3.428776 -0.019,21.43961 -3.75635,25.69691 -6.32564,7.20569 -9.88943,7.41324 -9.88943,7.41324 -0.12841,7.09738 -0.20694,5.03196 0.17508,7.24912 0.98105,5.69392 2.80932,4.99797 4.66413,5.37583 2.9999,0.61114 7.10197,-0.70011 9.18454,0 4.62239,1.55395 6.54392,4.75862 6.54392,4.75862 0,0 11.69926,-13.03999 9.55327,-33.42695 -2.146,-20.386939 -12.86844,-49.329667 -28.57,-49.67438 -7.81376,-0.171543 -6.76178,2.99842 -10.77078,1.763918 -4.49362,-1.383732 -15.20595,-1.928417 -22.89309,4.346775 -7.687119,6.275191 -16.680414,61.785917 -11.27789,73.932907 6.164341,13.85985 10.50041,12.28862 13.09141,4.20823 0.44348,-1.38306 -0.11486,-2.22067 0.87148,-4.26923 1.51746,-1.74506 2.14969,-1.9118 3.49013,-2.27423 1.67135,-0.4519 3.56945,0.87176 5.18775,0.25637 2.69623,-1.02529 4.06869,-1.09097 4.82741,-5.87093 0.75872,-4.77996 0.5533,-5.01175 -0.10271,-6.4133 -0.65601,-1.40155 -3.72448,-0.28799 -8.72931,-7.1443 -1.91934,-2.62938 -2.64784,-5.77151 -2.72757,-9.89378 -0.0797,-4.12227 0.18583,-9.528174 -0.65586,-17.595569 -0.99174,-9.505527 18.03928,-14.064593 19.1053,-17.56485 z" id="path1262" inkscape:connector-curvature="0" sodipodi:nodetypes="ssssssscsssssscssssssss"/>
    </g>
    <g inkscape:groupmode="layer" id="layer19" inkscape:label="teeshirt " sodipodi:insensitive="true">
      <path style="fill:#192e54;fill-opacity:1;stroke:none;stroke-width:0.26458332px;stroke-linecap:butt;stroke-linejoin:miter;stroke-opacity:1" d="m 160.5942,154.28235 c -0.57631,1.62372 -23.5971,4.57483 -31.96649,4.25293 -8.36938,-0.3219 -25.57639,-1.57491 -27.50778,-4.472 -1.931397,-2.8971 4.15987,-9.81846 4.15987,-9.81846 5.23374,2.01301 14.56775,2.10143 22.5362,2.37033 6.93767,0.37174 23.78703,-0.71443 28.33088,-3.52083 2.67325,1.65996 5.36518,8.60204 4.44732,11.18803 z" id="path1265" inkscape:connector-curvature="0" sodipodi:nodetypes="ssssccs"/>
    </g>
  </g>
  <g inkscape:groupmode="layer" id="layer3" inkscape:label="femmenoire" style="display:inline" transform="translate(-14.393518,-11.007752)" sodipodi:insensitive="true">
    <g inkscape:groupmode="layer" id="layer10" inkscape:label="teeshirt" sodipodi:insensitive="true">
      <path style="fill:#cfd6e1;fill-opacity:1;stroke:none" d="m 70.681545,137.0506 c 0,0 -7.554066,-1.61062 -9.6666,0.62618 -2.112534,2.2368 -11.500064,9.95715 -11.500064,9.95715 0,0 -2.914872,7.56445 6.653665,10.29832 9.568534,2.73387 22.240046,3.0267 29.473761,1.46495 6.930225,-1.40999 18.284373,-1.65848 18.781873,-5.423 0.49751,-3.76452 -5.90742,-14.50011 -9.373522,-15.33663 -3.466105,-0.83653 -24.369113,-1.58697 -24.369113,-1.58697 z" id="path1137" inkscape:connector-curvature="0" sodipodi:nodetypes="cscscscc"/>
    </g>
    <g inkscape:groupmode="layer" id="layer5" inkscape:label="visage" sodipodi:insensitive="true">
      <path style="fill:#455880;fill-opacity:1;stroke:none" d="m 53.105655,75.25149 c 0,0 58.576725,7.41059 27.970305,39.49831 -11.717329,12.28443 -18.282122,15.73207 -18.282122,15.73207 0,0 -7.591509,0.01 -8.270856,-4.27086 -0.213513,-1.34541 1.01678,-2.23006 0.614249,-3.08442 -0.402531,-0.85436 -1.117411,-0.0306 -2.220621,-1.1948 -1.10321,-1.16422 4.367877,-3.90104 -2.494586,-6.42583 0.460398,-2.37264 0.888692,-5.96511 -2.041076,-6.04762 -7.575674,-0.21335 -2.813328,-3.24909 -2.276956,-8.63794 0.536372,-5.388852 1.56865,-2.452194 -1.171677,-12.417142 -0.637808,-2.319329 1.677889,-11.993727 8.17334,-13.151768 z" id="path1316" inkscape:connector-curvature="0" sodipodi:nodetypes="cscszzcszsc"/>
    </g>
    <g inkscape:groupmode="layer" id="layer6" inkscape:label="cou" sodipodi:insensitive="true">
      <path style="fill:#455880;fill-opacity:1;stroke:none" d="m 68.55543,126.37277 c 0,0 5.294347,6.54152 2.126115,10.67783 -1.700891,2.22061 -2.740327,0.89769 -4.724702,3.1183 -1.984375,2.22061 -5.669645,6.61453 -2.929315,8.12646 1.673248,0.92319 12.161292,5.57749 21.072173,-0.89766 10.43561,-7.58311 6.486625,-5.60183 10.205357,-7.89026 1.842634,-1.13392 0,0 -4.252233,-13.65439 -2.559349,-14.9471 -0.726802,-14.87406 -1.181174,-22.67857 0,0 -15.63639,14.52916 -20.316221,23.19829 z" id="path1319" inkscape:connector-curvature="0" sodipodi:nodetypes="csssssccc"/>
    </g>
    <g inkscape:groupmode="layer" id="layer4" inkscape:label="cheveux" style="display:inline" sodipodi:insensitive="true">
      <path style="fill:#192e54;fill-opacity:1;stroke:#192e54;stroke-width:0.26458332px;stroke-linecap:butt;stroke-linejoin:miter;stroke-opacity:1" d="m 53.105655,75.25149 c 0,0 1.949723,-5.74083 15.048075,-18.396931 2.385949,-2.30539 -2.39727,-4.324546 -5.278573,-6.013562 -4.287025,-2.513048 -6.804482,4.608978 -9.769502,4.377764 -3.477691,-0.271192 -3.925887,-3.883903 -9.073001,-1.504618 -4.794945,2.216493 -4.409948,7.015825 -4.409948,7.015825 0,0 -7.349911,3.274052 -8.418989,7.149459 -1.069078,3.875408 1.469983,3.741774 -0.334087,6.748557 -13.21245,8.604914 -1.553069,14.021177 -2.405426,20.980656 -2.953657,3.079239 -3.277727,4.52459 -2.271792,6.81537 0.563162,3.93438 4.810854,3.40769 0.734993,9.02035 -4.262937,5.87027 2.938254,12.76742 6.815373,10.22306 2.138155,-1.40316 1.870887,2.13816 1.870887,2.13816 0,0 1.105789,5.1478 6.147199,1.87088 1.336346,-0.86863 1.135894,1.87089 1.135894,1.87089 0,0 2.261998,2.54814 7.283095,1.06908 1.701965,0.0236 1.103755,2.60599 4.409948,1.9377 2.239808,-0.64312 2.089717,2.8166 4.744035,1.06908 l 0.516331,-1.4943 c 0,0 -3.358099,0.0871 -5.279937,-3.30879 -0.57664,-2.71559 1.772369,-3.58837 -0.114065,-4.0168 -2.959368,-0.10337 -4.034141,-7.29736 -4.034141,-7.29736 0,0 1.839502,-6.16276 -2.041073,-6.04762 -3.880575,0.11513 -4.615566,-1.28803 -4.214662,-2.08984 0.400905,-0.80181 2.138156,-6.48129 2.138156,-6.88219 0,-0.40091 0.957447,-3.243009 -0.06621,-6.894272 -1.036279,-3.696284 -1.537409,-6.402388 -1.336955,-7.471466 0.200451,-1.069078 1.269529,-5.278572 2.53906,-6.681737 1.269529,-1.403165 3.713445,-4.432468 5.665315,-4.187345 z" id="path1039" inkscape:connector-curvature="0" sodipodi:nodetypes="csssscscccsscscccccccccssscsc"/>
      <path style="display:inline;fill:#192e54;fill-opacity:1;stroke:none" d="m 52.373447,77.069394 c 0,0 -0.01727,6.647127 9.260417,4.535712 3.057695,-0.69587 1.700891,0.377974 1.322917,1.889881 -0.377978,1.511904 -0.649972,10.410549 5.019381,8.943047 2.284189,-0.591258 0.755952,1.322917 0.755952,1.322917 1.597203,7.315839 3.083591,1.99381 2.751526,4.014128 0,0 -1.778855,4.205691 0.456255,4.686701 4.438827,0.95526 -2.009685,6.80843 2.461327,6.82171 1.671447,-0.51332 1.158077,5.77065 1.158077,5.77065 0,0 0.188279,4.88051 3.374822,5.3633 3.186542,0.48278 1.35976,4.7373 6.373587,2.3427 2.688559,-1.28405 1.640671,-2.08803 2.640878,0.0823 1.00021,2.17031 4.301343,-0.98285 4.301343,-0.98285 0,0 1.387766,3.2341 4.913686,1.13392 3.926845,-0.76382 3.558365,-4.65116 2.078877,-6.04761 -1.479477,-1.39645 6.338948,-0.92202 6.650948,-5.29561 0.31201,-4.3736 0.1296,-4.58883 -2.52563,-6.31489 -2.57651,-1.67488 1.32685,-3.72047 1.32685,-3.72047 1.86214,-1.06355 5.00926,-5.950514 0.16213,-11.940636 -1.25316,-1.223845 2.80633,-2.873149 2.00452,-4.877669 1.00869,-6.93503 -1.3822,-6.593282 -4.61039,-7.349914 0,0 2.77804,-6.498034 -1.36341,-7.934664 C 92.456663,68.471497 97.322305,67.124292 93.553135,64.26283 90.65611,62.360516 89.43194,62.96032 89.43194,62.96032 l -0.780838,-1.916379 c -1.150552,-2.823752 -4.965367,-5.494155 -9.403548,-2.000589 0,0 0.02794,-3.471844 -4.070681,-4.882704 -4.744384,-1.633149 -7.483926,2.412238 -8.251345,3.631977 -1.638331,2.603986 -12.542695,6.595466 -14.552081,19.276789 z" id="path1037" inkscape:connector-curvature="0" sodipodi:nodetypes="cscsscscczszcczzssccccccssssc"/>
    </g>
    <g inkscape:groupmode="layer" id="layer9" inkscape:label="yeux" sodipodi:insensitive="true">
      <path style="fill:#e5e9f2;fill-opacity:1;stroke:none" d="m 49.514815,93.585018 c 0,0 5.47802,-9.663235 10.110928,-0.04893 0.774306,1.606855 -7.724142,4.42318 -8.976934,3.307291 -1.252792,-1.115889 -1.41754,-1.839269 -1.133994,-3.258361 z" id="path1330" inkscape:connector-curvature="0" sodipodi:nodetypes="cszc"/>
      <path style="fill:#232a38;fill-opacity:1;stroke:none" d="m 53.127354,89.80918 c 0,0 4.970359,2.191328 1.863352,4.596753 -3.10701,2.405425 -5.021015,1.639763 -5.545844,0.868624 -0.524829,-0.771139 0.260804,-3.767866 3.682492,-5.465377 z" id="path1332" inkscape:connector-curvature="0" sodipodi:nodetypes="cszc"/>
      <ellipse style="opacity:0.59100001;fill:#e5e9f2;fill-opacity:1;stroke:none" id="path1342" cx="52.883621" cy="91.363419" rx="0.80794799" ry="0.89838886"/>
      <path style="fill:#000000;fill-opacity:1;stroke:none" d="m 50.294457,92.142304 c 0,0 1.531678,-1.666062 2.832897,-2.333125 1.257142,-0.644467 1.986298,-0.761556 2.954864,-0.359958 0.968563,0.4016 2.437827,2.203391 2.952938,2.95294 0,0 0.178453,0.556996 0.661458,1.204799 0,0 0.213608,0.450524 0.850447,0.07087 1.228422,-0.732328 0.732328,-0.637835 -0.377978,-0.496093 -0.850445,-0.755955 -1.368562,-2.123223 -2.007997,-2.811198 -0.639435,-0.687975 -1.582777,-1.299295 -1.677271,-1.393788 -1.1366,-0.301177 -1.939952,-0.21925 -2.882063,0.04725 -1.464659,0.425222 -2.196989,1.08668 -2.55134,1.653645 -0.354354,0.566965 -0.755952,1.46466 -0.755952,1.46466 z" id="path1346" inkscape:connector-curvature="0" sodipodi:nodetypes="cscsssczccccc"/>
      <path style="fill:#000000;fill-opacity:1;stroke:#010202;stroke-width:0.199;stroke-linecap:butt;stroke-linejoin:miter;stroke-miterlimit:4;stroke-dasharray:none;stroke-opacity:1" d="m 43.805822,93.154337 c -0.19018,0.02873 -0.280911,0.121217 -0.205674,0.314712 0.231547,0.526822 1.534178,0.770403 2.708878,0.5271 l -0.07079,-0.404111 c -0.618233,-0.109435 -1.895588,-0.518803 -2.432409,-0.437701 z" id="path1017" inkscape:connector-curvature="0"/>
      <path style="fill:#192e54;fill-opacity:1;stroke:none" d="m 49.645315,88.058277 c 0,0 2.724585,-3.2776 6.949006,-1.00226 0,0 1.937705,1.135893 2.472243,0.334087 0.534541,-0.801809 -0.498935,-1.387409 -2.138156,-2.539061 -1.438223,-1.010439 -5.844064,-1.324589 -8.084902,0.267269 -1.616808,1.148557 -1.670436,5.011305 0.801809,2.939965 z" id="path1041" inkscape:connector-curvature="0" sodipodi:nodetypes="cssssc"/>
    </g>
    <g inkscape:groupmode="layer" id="layer8" inkscape:label="levres" sodipodi:insensitive="true">
      <path style="fill:#26324c;fill-opacity:1;stroke:none" d="m 50.648809,118.62426 c 0,0 -3.118303,-0.47247 -0.755952,-3.1183 2.362351,-2.64584 7.181379,1.03936 8.315391,-0.567 1.134012,-1.60637 -1.700826,7.74954 -5.29159,6.99309 -3.590766,-0.75645 -3.307284,-1.98487 -2.267849,-3.30779 z" id="path1323" inkscape:connector-curvature="0"/>
      <path style="fill:none;stroke:#455880;stroke-width:0.26499999;stroke-linecap:round;stroke-linejoin:miter;stroke-miterlimit:4;stroke-dasharray:none;stroke-opacity:1" d="m 50.648809,118.62426 c 0,0 4.459951,0.548 8.617773,-4.74363" id="path1325" inkscape:connector-curvature="0" sodipodi:nodetypes="cc"/>
    </g>
  </g>
  <g inkscape:groupmode="layer" id="layer2" inkscape:label="Texte calligraphié_lessanspagEs_rouge_haut" style="display:inline" sodipodi:insensitive="true" transform="translate(-20,-10.835069)">
    <path style="opacity:0.95999995;fill:#aa0000;fill-opacity:1;stroke:none;stroke-width:0.36500001;stroke-linecap:round;stroke-linejoin:round;stroke-miterlimit:4;stroke-dasharray:none;stroke-opacity:0.72941176" id="path981-1" d="m 55.914388,47.925502 c 0.13503,-0.0371 0.27362,-0.063 0.40509,-0.111267 0.17674,-0.0648 0.68208,-0.317781 0.51713,-0.227021 -0.61733,0.33967 -1.20485,0.759291 -1.87577,0.97459 -0.2974,0.0954 0.48403,-0.395181 0.71733,-0.60285 0.74239,-0.660832 0.71861,-0.67331 1.37788,-1.40103 1.21382,-1.39857 2.3129,-2.89025 3.29249,-4.46104 1.11492,-1.67349 2.03653,-3.48207 2.67687,-5.38765 0.61532,-2.3566 0.76583,-4.807981 0.72994,-7.2346 -0.0997,-1.27591 -0.0716,-2.58691 -0.32355,-3.84806 -0.12628,-0.63211 -0.30672,-0.99598 -0.54739,-1.58743 -0.41506,-0.72668 -1.22479,-1.88948 -2.24881,-1.46376 -0.13584,0.0565 -0.23805,0.17292 -0.35707,0.25937 0.74985,-0.38194 1.46732,-0.83556 2.24955,-1.14583 0.13164,-0.0522 -0.177,0.22342 -0.24166,0.34941 -0.35431,0.69032 -0.37157,1.52977 -0.4278,2.28395 0.0501,1.64025 0.19885,3.2743 0.25853,4.91488 0.0565,1.702029 0.26856,3.39319 0.36581,5.093309 -0.002,1.287721 0.43774,2.511541 0.6709,3.765491 0.23805,1.03382 0.37928,2.08415 0.63199,3.11403 0.17289,0.99953 0.53414,1.94538 0.87244,2.89727 0.29625,0.87481 0.88031,1.56492 1.43419,2.28368 0.71452,0.81184 1.86863,0.919799 2.87682,1.059999 0.93538,0.0999 1.91006,0.154972 2.82299,-0.119938 0.21191,-0.0638 0.8144,-0.341711 0.62178,-0.232751 -0.60567,0.34263 -1.24385,0.62431 -1.86577,0.936468 1.42745,-1.140238 2.29047,-2.736938 3.01355,-4.377038 0.55696,-1.47908 1.0196,-2.988631 1.31452,-4.541941 0.0297,-0.767589 0.35768,-2.3367 -0.31106,-2.944769 -0.0912,-0.0829 -0.21952,-0.11204 -0.32927,-0.16806 -0.11706,-0.01 -0.23551,-0.05 -0.35119,-0.0296 -0.12432,0.022 -0.45823,0.211759 -0.34652,0.15294 0.74461,-0.392 1.4771,-0.81063 2.24585,-1.152861 0.13747,-0.0612 -0.23536,0.189791 -0.33527,0.302321 -0.31297,0.35249 -0.33776,0.497539 -0.53623,0.93198 -0.46438,1.385319 -0.83424,2.78627 -1.05256,4.23097 -0.16149,1.09578 -0.19084,2.20989 0.0619,3.29267 0.14209,0.8172 0.57024,1.42946 1.06717,2.06784 0.83438,0.7831 1.8868,1.21502 3.0211,1.28727 1.10731,0.0157 3.43234,-1.02762 -0.78462,0.89818 -0.22253,0.101621 0.40807,-0.27086 0.60057,-0.421831 0.21516,-0.168741 0.41393,-0.357389 0.62089,-0.536079 1.2808,-1.16796 2.26678,-2.62179 3.1279,-4.1162 0.65196,-1.01512 1.03298,-2.17125 1.32335,-3.33442 0.10101,-0.651291 0.52002,-1.93181 -0.32482,-2.25475 -0.97536,-0.0195 -2.87122,0.99018 1.78602,-1.14901 0.1092,-0.0502 -0.17949,0.16288 -0.24818,0.26148 -0.18631,0.2674 -0.23008,0.505199 -0.32485,0.81433 -0.28409,0.99956 0.0486,1.779969 0.81541,2.43123 0.74544,0.51896 1.66981,0.65208 2.45989,1.06275 0.68439,0.39437 1.42967,0.69507 2.02804,1.21605 0.78371,0.70761 1.06937,1.71722 1.37734,2.6915 0.26984,0.83076 0.30955,1.62821 0.0384,2.45327 -0.65512,1.613491 -2.41009,2.402711 -4.052,2.847801 -1.10482,0.186269 -1.51136,0.250129 -2.43389,-0.419571 -0.60236,-0.580221 -0.88063,-1.328179 -1.05747,-2.124721 0,0 2.63926,-1.363809 2.63926,-1.363809 v 0 c 0.15402,0.72427 0.37997,1.418531 0.95605,1.923599 0.83665,0.536961 1.34,0.422341 2.28535,0.189262 1.13381,-0.442921 0.51864,-0.221351 -1.92011,1.152998 -0.10023,0.0565 0.20317,-0.109828 0.2952,-0.178879 0.28457,-0.213529 0.22972,-0.213831 0.39794,-0.518009 0.0521,-0.0942 0.10754,-0.186492 0.16132,-0.279731 0.3091,-0.90523 0.34817,-1.33575 0.0725,-2.30168 -0.27471,-0.92043 -0.56739,-1.87781 -1.31103,-2.53111 -0.6041,-0.47373 -1.3272,-0.77254 -1.99049,-1.15548 -0.83058,-0.3752 -1.75201,-0.57145 -2.49132,-1.13785 -0.80713,-0.738201 -1.24415,-1.61224 -0.96997,-2.72054 0.4142,-1.83931 1.88671,-3.301601 4.03229,-2.76084 0.84673,0.619779 0.64101,1.700549 0.46143,2.61394 -0.26584,1.19084 -0.64811,2.39445 -1.31466,3.42326 -0.86124,1.51263 -1.84641,2.99133 -3.10124,4.20621 -1.52473,1.419599 -3.42911,2.933219 -5.60219,2.79998 -1.18605,-0.1783 -2.27298,-0.639881 -3.14104,-1.48877 -0.54339,-0.66552 -1.00088,-1.30677 -1.14461,-2.17636 -0.25891,-1.12527 -0.23676,-2.27721 -0.0615,-3.41557 0.20552,-1.4614 0.57375,-2.87247 0.99597,-4.284321 0.14381,-0.390059 0.22439,-0.697019 0.46997,-1.036489 0.0901,-0.124581 0.18933,-0.25122 0.32003,-0.3322 1.24959,-0.774191 2.33197,-2.07314 3.76397,-1.605451 0.1311,0.0946 0.28369,0.165021 0.39329,0.28389 0.74358,0.806461 0.37652,2.21322 0.35085,3.170981 -0.26956,1.57618 -0.71965,3.1039 -1.27884,4.60155 -0.73488,1.66377 -1.56663,3.29772 -2.95068,4.52684 -3.10194,1.79045 -3.51482,2.480639 -6.72769,2.086479 -1.09282,-0.162999 -2.30702,-0.30734 -3.04733,-1.223299 -0.56655,-0.74784 -1.16026,-1.4697 -1.45339,-2.37874 -0.34013,-0.96028 -0.74686,-1.90328 -0.90516,-2.91543 -0.24333,-1.03894 -0.3783,-2.09651 -0.62758,-3.134791 -0.22604,-1.271619 -0.64978,-2.516839 -0.64334,-3.819299 -0.10258,-1.70338 -0.30674,-3.39941 -0.35269,-5.10546 -0.0758,-1.6431 -0.2243,-3.28044 -0.30973,-4.92267 0.024,-0.52816 0.0772,-2.47365 0.54898,-2.8096 0.91624,-0.65246 1.91046,-1.18785 2.86569,-1.78178 0.14319,-0.0517 0.27896,-0.13291 0.42957,-0.155 1.15629,-0.16964 1.90726,0.94977 2.39015,1.80588 0.25138,0.61759 0.44036,0.99988 0.5729,1.66122 0.25546,1.27475 0.22319,2.6006 0.30772,3.89094 0.0231,2.44997 -0.12656,4.924929 -0.68792,7.31607 -0.10671,0.35678 -0.19113,0.720999 -0.32014,1.07033 -0.17921,0.485259 -0.64412,1.36517 -0.8691,1.823499 -0.42795,0.871781 -0.8407,1.752921 -1.41804,2.540671 -0.97133,1.59568 -2.09187,3.08773 -3.29475,4.51646 -1.66134,1.912349 -3.70241,3.648889 -6.25203,4.215301 0,0 2.42818,-1.767171 2.42818,-1.767171 z" inkscape:connector-curvature="0"/>
    <path style="opacity:0.95999995;fill:#aa0000;fill-opacity:1;stroke:none;stroke-width:0.36500001;stroke-linecap:round;stroke-linejoin:round;stroke-miterlimit:4;stroke-dasharray:none;stroke-opacity:0.72941176" id="path983-2" d="m 95.484938,49.252264 c 1.05276,-0.737101 1.99547,-1.59965 2.94446,-2.46164 1.29668,-1.16916 2.193972,-2.63771 3.010732,-4.16132 0.75485,-1.48272 1.23907,-3.06728 1.37585,-4.724601 -0.0271,-0.158469 -0.0356,-0.321229 -0.0812,-0.475399 -0.0293,-0.0993 -0.15446,-0.380141 -0.31799,-0.38844 -0.0611,-0.003 -0.20835,0.12793 -0.15368,0.10044 2.41359,-1.2135 3.01656,-1.80808 2.05696,-0.93682 -0.5485,0.669459 -0.80733,1.509179 -0.67508,2.36465 0.23647,0.44431 0.69305,0.471239 1.13311,0.57824 0.26195,0.0637 0.51951,0.14433 0.78039,0.21225 1.19939,0.21207 2.09803,1.05734 2.94997,1.86805 1.02784,1.06374 1.18475,2.58216 1.24487,3.99589 -0.0124,0.43554 0.018,0.72546 -0.13379,1.13702 -0.52693,1.428499 -3.09776,2.280339 -3.93846,2.734541 -0.92965,0.182769 -1.53931,-0.330711 -2.05124,-1.038302 0,0 2.58053,-1.473679 2.58053,-1.473679 v 0 c 0.47254,0.63246 1.02688,0.98773 1.83037,0.69917 -0.72101,0.41357 -1.4417,0.82769 -2.16302,1.240721 -0.13381,0.0766 0.27492,-0.142002 0.40049,-0.231492 0.61126,-0.435629 0.86244,-1.025099 0.83964,-1.769019 -0.007,-1.34484 -0.17018,-2.77638 -1.13558,-3.79247 -0.84157,-0.80159 -1.72805,-1.52369 -2.9092,-1.71833 -0.77903,-0.21101 -1.6836,-0.28935 -2.0918,-1.0821 -0.16535,-0.91866 0.055,-1.838481 0.57025,-2.61753 1.25608,-1.58702 3.66979,-3.13408 3.91088,-0.67619 -0.1474,1.69198 -0.59069,3.328689 -1.36295,4.84728 -0.80162,1.53935 -1.66618,3.04333 -2.94218,4.24358 -0.93725,0.83977 -1.834672,1.719311 -2.857312,2.45689 0,0 -2.81503,1.06861 -2.81503,1.06861 z" inkscape:connector-curvature="0"/>
    <path style="opacity:0.95999995;fill:#aa0000;fill-opacity:1;stroke:none;stroke-width:0.36500001;stroke-linecap:round;stroke-linejoin:round;stroke-miterlimit:4;stroke-dasharray:none;stroke-opacity:0.72941176" id="path985-7" d="m 115.13564,40.121714 c -0.22098,-0.99314 -0.45264,-1.69858 -1.38973,-2.190391 -1.08858,-0.432709 -1.84262,-0.449909 -2.86218,0.129791 3.50516,-2.08591 2.29749,-1.363791 1.57514,-0.35106 -0.30468,0.42718 -0.51381,0.85138 -0.70596,1.33762 -0.35823,1.15601 -0.36919,2.37899 -0.39019,3.57845 -2.7e-4,1.08803 -0.13502,2.20347 0.3475,3.20864 0.40231,0.83062 1.0433,1.16734 1.9099,1.32891 0.35854,0.0393 0.80409,0.0917 1.15515,-0.0439 0.10455,-0.0404 0.37919,-0.23795 0.27911,-0.1875 -2.2804,1.149521 -2.84813,1.79794 -1.92307,0.850729 0.56047,-0.769069 0.92632,-1.641899 1.23847,-2.533849 0.49214,-1.15896 0.81217,-2.37016 1.0314,-3.60676 0.22257,-1.31098 -0.10282,-0.68548 2.82745,-1.457651 0.10098,-0.0266 0.015,0.208361 0.0184,0.312721 0.006,0.17848 0.005,0.65785 0.005,0.82704 -0.007,0.91176 -0.0526,1.81778 0.0893,2.72086 0.0778,0.82101 0.23323,1.58768 0.70181,2.27477 0.59612,0.66071 0.96304,0.99027 1.87358,0.85223 1.22212,-0.61229 -1.30772,0.75852 -2.00381,1.047509 -0.15015,0.0623 0.2279,-0.234109 0.31991,-0.36815 0.33745,-0.491598 0.4869,-1.088369 0.67449,-1.645569 0.3212,-1.12942 0.62722,-2.2559 1.01691,-3.36436 0.42996,-1.14488 0.83061,-2.29755 1.72516,-3.16117 1.82916,-1.28514 3.00994,-2.62641 4.49386,-0.99962 0.54149,0.9371 0.54381,2.0655 0.59377,3.11887 0.0256,1.20215 0.0241,2.40456 0.0231,3.60689 -10e-4,1.67588 0.39424,1.49562 -2.67824,1.9967 -0.17272,0.0282 0.008,-0.34992 0.0105,-0.5249 0.003,-0.21082 0.005,-0.42167 0.007,-0.63251 -0.003,-1.244 0.14482,-2.48814 0.31198,-3.71977 0.11794,-1.06589 0.34466,-2.07681 0.76206,-3.06385 0.90418,-1.58645 2.826,-2.535541 4.46938,-3.09046 1.2325,-0.315 1.5395,0.36349 1.83507,1.425609 0.35174,1.17802 0.4603,2.401071 0.54533,3.621251 0.0473,1.0946 0.0142,2.1701 0.26916,3.23996 0.21115,0.94216 0.388,1.87435 1.06201,2.59965 0.29017,0.187541 0.68449,0.55692 1.07323,0.505541 0.12545,-0.01659 0.45573,-0.220102 0.34289,-0.162862 -2.36564,1.19987 -2.71908,1.689471 -1.79825,0.675931 0.70538,-1.02897 1.19009,-2.20617 1.6302,-3.37031 0.44113,-0.94509 0.67325,-1.95538 0.92944,-2.96011 0.2494,-1.03947 0.31101,-2.10837 0.34889,-3.17264 -0.034,-0.20463 0.0106,-0.74292 -0.23911,-0.88031 -0.0987,-0.0543 -0.29078,0.10553 -0.33981,0.136939 0.79945,-0.414249 1.59889,-0.828499 2.39834,-1.242749 -0.54764,0.632419 -0.58043,1.36495 -0.16616,2.06476 0.62712,0.74649 1.53459,0.9424 2.45361,1.07569 1.38081,0.34798 1.88596,0.82477 2.50738,2.07641 0.46264,1.12771 0.57228,2.33166 0.62658,3.53526 -0.074,2.735769 -1.6051,2.905251 -4.0102,4.254909 -0.98841,0.350602 -1.59732,0.003 -2.09285,-0.858758 -0.25223,-0.550331 -0.29201,-1.157071 -0.3409,-1.751321 0,0 2.66089,-1.32884 2.66089,-1.32884 v 0 c 0.0388,0.55068 0.0673,1.11338 0.29069,1.62713 0.45712,0.788141 1.01064,0.85861 1.82576,0.48641 -0.71098,0.406379 -1.41279,0.829249 -2.13294,1.21916 -0.14214,0.077 0.27928,-0.16782 0.39658,-0.27904 0.55811,-0.52918 0.74613,-1.32176 0.75706,-2.05956 -0.0456,-1.16175 -0.13149,-2.33424 -0.56848,-3.42584 -0.58176,-1.16542 -1.0826,-1.56013 -2.37633,-1.82798 -0.99757,-0.18042 -1.94302,-0.46566 -2.60205,-1.29208 -0.46737,-0.81127 -0.49759,-1.5939 -0.0233,-2.42164 1.58842,-0.920921 3.4613,-2.95964 3.64517,-0.40419 -0.0424,1.08134 -0.0992,2.16694 -0.32384,3.22868 -0.24795,1.01852 -0.46695,2.04906 -0.9333,2.99634 -0.42141,1.19267 -0.9472,2.36674 -1.58421,3.45837 -0.99283,1.343469 -0.42092,0.69943 -3.33573,2.215379 -0.1297,0.0675 -0.29179,0.0538 -0.43703,0.0371 -0.43806,-0.0506 -0.81995,-0.403961 -1.14938,-0.65596 -0.68489,-0.7844 -0.92069,-1.728879 -1.12298,-2.733609 -0.0668,-0.27158 -0.20786,-0.80544 -0.23564,-1.0825 -0.0731,-0.72914 0.0452,-1.479 -0.0454,-2.20908 -0.0692,-1.20039 -0.17804,-2.40373 -0.53107,-3.559741 -0.2783,-1.005019 -0.50565,-1.367829 -1.5875,-0.994009 -1.05337,0.47123 -0.89508,0.41307 1.88829,-1.10554 0.12011,-0.0655 -0.23261,0.14493 -0.34127,0.22809 -0.35657,0.27288 -0.71175,0.5629 -0.92245,0.96709 -0.19807,0.43221 -0.42985,0.90405 -0.54203,1.36857 -0.12845,0.53183 -0.11957,1.102249 -0.27082,1.63139 -0.19438,1.2125 -0.29877,2.45451 -0.33057,3.68044 0.003,0.20818 0.005,0.41639 0.008,0.62456 0.003,0.17101 0.1448,0.40478 0.0123,0.51295 -3.2722,2.671701 -2.65005,2.36453 -2.66487,0.62093 0.008,-1.19878 0.0248,-2.39816 -0.0122,-3.59659 -0.0391,-0.97758 -0.0274,-2.043 -0.52593,-2.91429 -0.22767,-0.23049 -0.44923,-0.43366 -0.78274,-0.49498 -0.0753,-0.0138 -0.2941,0.0458 -0.22964,0.004 1.10208,-0.7062 3.24014,-1.81768 1.86794,-1.09992 -1.01486,0.78985 -1.35892,1.86367 -1.81128,3.02989 -0.37918,1.10973 -0.70542,2.22678 -1.00937,3.35936 -0.75376,2.18208 -1.04633,3.325281 -4.11853,3.917421 -0.88785,0.008 -1.4823,-0.453822 -2.02791,-1.126601 -0.491,-0.73092 -0.69557,-1.51114 -0.77011,-2.38671 -0.14348,-0.91735 -0.10718,-1.83664 -0.10433,-2.76317 -0.003,-0.26367 -0.0604,-1.07387 -0.0334,-1.0921 4.28377,-2.89214 2.83513,-2.30574 2.54908,-1.15727 -0.26333,1.23531 -0.52801,2.47091 -1.01499,3.64291 -0.30343,0.92519 -0.67803,1.80951 -1.1895,2.64118 -1.13011,1.41072 -2.94303,2.478729 -4.74163,2.152739 -0.93077,-0.22714 -1.61131,-0.67777 -2.03982,-1.567349 -0.5239,-1.10413 -0.41212,-2.14709 -0.39698,-3.33802 0.0282,-1.22453 0.0266,-2.46883 0.33461,-3.66233 0.24403,-0.69422 0.55441,-1.23048 0.97737,-1.82825 0.0961,-0.13579 0.14296,-0.31913 0.28045,-0.41277 0.94282,-0.6421 1.95171,-1.18136 2.92756,-1.77204 1.08207,-0.47351 1.95877,-0.3718 3.02826,0.11043 1.00938,0.621 1.22647,1.30536 1.55153,2.4024 0,0 -2.67474,1.36556 -2.67474,1.36556 z" inkscape:connector-curvature="0"/>
    <path style="opacity:0.95999995;fill:#aa0000;fill-opacity:1;stroke:none;stroke-width:0.36500001;stroke-linecap:round;stroke-linejoin:round;stroke-miterlimit:4;stroke-dasharray:none;stroke-opacity:0.72941176" id="path987-7" d="m 150.27186,46.316784 c 0.11423,-0.0349 0.23173,-0.0604 0.34269,-0.10462 0.12576,-0.0501 1.63694,-0.82506 0.81938,-0.34782 -3.95583,2.309189 -2.0712,1.14348 -1.21204,0.37946 1.11769,-0.93712 1.88777,-2.14628 2.51014,-3.44705 0.6242,-1.16603 1.03782,-2.41927 1.51265,-3.647061 0.16762,-0.555859 2.24411,-6.76853 3.52887,-2.790919 0.11175,0.92893 0.0815,1.86801 0.081,2.80173 -0.0967,1.31985 -0.24887,2.6341 -0.43238,3.94439 -0.30966,1.7688 -0.68422,3.51843 -0.89098,5.306479 -0.11512,1.483302 -0.34295,2.954001 -0.48199,4.434879 -0.20416,1.037273 -0.34492,2.080252 -0.42009,3.134633 -0.15969,0.813049 -0.43229,1.59525 -0.60651,2.405549 0,0 -2.69134,1.253051 -2.69134,1.253051 v 0 c 0.15081,-0.808662 0.40146,-1.5875 0.63309,-2.37595 0.0711,-1.054632 0.16215,-2.112481 0.41459,-3.142041 0.15879,-1.492549 0.42593,-2.97148 0.54076,-4.468421 0.21231,-1.779349 0.52567,-3.536699 0.85381,-5.295059 0.17362,-1.29525 0.31881,-2.59277 0.42389,-3.89568 -10e-4,-0.90392 0.0108,-1.81305 -0.0919,-2.71226 -0.0729,-1.10255 -0.0451,-0.13262 2.58305,-1.54749 0.0577,-0.0311 -0.12352,0.0616 -0.15766,0.117599 -0.11177,0.18331 -0.31886,0.878801 -0.36921,1.024041 -0.0709,0.204439 -0.14865,0.40643 -0.22297,0.60964 -0.50026,1.22844 -0.87262,2.5122 -1.53225,3.67432 -0.60069,1.32519 -1.3204,2.5796 -2.43779,3.54468 -0.30131,0.27476 -0.5478,0.62131 -0.89713,0.83165 -1.39036,0.83719 -2.70773,1.573509 -4.18329,2.158299 0,0 2.38362,-1.846029 2.38362,-1.846029 z" inkscape:connector-curvature="0"/>
    <path style="opacity:0.95999995;fill:#aa0000;fill-opacity:1;stroke:none;stroke-width:0.36500001;stroke-linecap:round;stroke-linejoin:round;stroke-miterlimit:4;stroke-dasharray:none;stroke-opacity:0.72941176" id="path989-6" d="m 155.98638,40.510724 c 1.0399,-1.76931 3.0942,-2.438631 4.82594,-3.35868 1.15837,-0.27369 1.78853,-0.30614 2.3686,0.82453 0.36132,0.973579 0.37315,2.02278 0.39819,3.04811 -0.0405,1.03899 0.005,1.89373 0.41211,2.85724 0.39475,0.7565 1.14308,1.03753 1.95827,0.91961 0.97058,-0.33508 1.87374,-0.67286 -1.69988,0.9812 -0.1443,0.0668 0.25003,-0.19754 0.36335,-0.30908 0.11681,-0.11498 0.21685,-0.24583 0.32528,-0.36875 0,0 2.74907,-1.11807 2.74907,-1.11807 v 0 c -1.01646,1.3013 -2.49273,2.27534 -4.16096,2.53914 -0.93052,-0.0155 -1.72379,-0.3589 -2.15096,-1.23087 -0.42837,-1.02322 -0.50794,-1.85441 -0.46027,-2.95928 -0.012,-0.98107 -0.0106,-1.98688 -0.34119,-2.92318 -0.51356,-0.97058 -1.18519,-0.73419 -2.11106,-0.46155 4.17531,-2.420781 1.76024,-1.14547 1.00519,-0.52475 -0.31514,0.25907 -0.48656,0.56082 -0.71567,0.884929 0,0 -2.76601,1.199451 -2.76601,1.199451 z" inkscape:connector-curvature="0"/>
    <path style="opacity:0.95999995;fill:#aa0000;fill-opacity:1;stroke:none;stroke-width:0.36500001;stroke-linecap:round;stroke-linejoin:round;stroke-miterlimit:4;stroke-dasharray:none;stroke-opacity:0.72941176" id="path991-5" d="m 170.05377,38.977074 c 0.10139,-0.73627 -0.0479,-1.428711 -0.90072,-1.4852 -0.67276,0.23124 -3.26058,1.1452 1.69301,-0.97485 0.19659,-0.0841 -0.33913,0.26388 -0.4836,0.42153 -0.51001,0.556519 -0.76182,1.21001 -1.01014,1.90655 -0.47165,1.27427 -0.98849,2.54747 -0.94799,3.92406 0.1571,1.1686 0.81447,1.81642 1.85764,2.26172 0.15339,0.0445 0.3016,0.11438 0.46017,0.13347 0.26553,0.032 0.56464,-0.0661 0.80046,-0.17006 0.1426,-0.0628 0.55104,-0.29126 0.41234,-0.22024 -2.30631,1.18097 -2.73803,1.73464 -1.86283,0.77679 0.64113,-0.89641 0.8633,-1.95503 1.00475,-3.02538 -0.02,-1.0833 0.28987,-2.09544 0.55646,-3.13025 0.33397,-1.29375 0.32187,-0.92779 2.91237,-1.48789 0.0525,-0.0113 0.0703,1.34815 0.0718,1.44231 0.0411,1.03314 -0.0552,2.07186 0.0414,3.10176 0.11965,0.71325 0.12782,1.54694 0.67562,2.07786 0.51532,0.54648 1.19237,0.67119 1.90526,0.753 0.93385,0.0757 1.87187,0.0615 2.80793,0.0622 -0.32493,0.41335 2.02429,-0.84941 1.45337,-0.55677 -3.0321,1.55416 -2.3835,1.43731 -1.39269,0.37109 0.71648,-0.76914 1.18699,-1.66289 1.48093,-2.66388 0.21972,-1.0227 0.33456,-2.08456 0.0632,-3.10587 -0.1616,-0.73079 -0.56092,-1.29058 -1.12226,-1.76584 -0.65158,-0.432911 -1.45446,-0.44105 -2.21004,-0.4785 -0.15449,0.0337 -0.31657,0.0427 -0.46347,0.10125 -0.14687,0.0585 -0.54591,0.31889 -0.40598,0.245279 0.72738,-0.382649 1.43265,-0.807499 2.16894,-1.1727 0.12941,-0.0642 -0.23777,0.166191 -0.34178,0.266431 -0.22231,0.21424 -0.40665,0.52252 -0.57482,0.77276 -0.62932,0.93927 -0.84443,2.01602 -0.97183,3.11794 -0.11931,1.0628 -0.15092,2.12279 0.43695,3.0515 0.6072,0.79737 1.46502,1.1915 2.44689,1.26131 0.96043,-0.36163 3.01519,-1.31931 -1.14521,0.73645 -0.15317,0.0757 0.28257,-0.19262 0.41671,-0.29843 0.4255,-0.33562 0.46814,-0.40565 0.8417,-0.79242 0.64203,-0.69293 0.95996,-1.56368 1.30373,-2.42132 0.92507,-0.42377 1.80998,-0.94935 2.77523,-1.27128 0.16968,-0.0566 0.11688,1.86383 0.11466,1.99153 -0.0123,1.1768 -0.0291,2.35357 -0.0319,3.53045 0.0284,1.18675 -0.34691,2.333179 -0.54317,3.495509 -0.10199,1.05436 -0.28916,2.09667 -0.43199,3.145721 -0.14958,0.97567 -0.43727,1.898039 -0.79229,2.815101 -0.32997,0.914699 -0.88483,1.60637 -1.64192,2.200479 -0.63816,0.22393 -2.9401,2.28047 -4.33426,1.690891 -0.32881,-0.139062 -0.41007,-0.255902 -0.6653,-0.493051 -0.52207,-0.988121 -0.8807,-2.0637 -1.15185,-3.147499 -0.2359,-1.057341 0.008,-2.086592 0.29618,-3.103542 0.33407,-0.819589 0.84588,-1.54124 1.38801,-2.233358 0.54065,-0.810091 1.30685,-1.425871 2.09841,-1.97644 0.75768,-0.626743 1.57179,-1.188231 2.28645,-1.864961 0.38152,-0.34013 0.66303,-0.75784 0.9439,-1.179 0,0 2.76256,-1.15122 2.76256,-1.15122 v 0 c -0.30377,0.4203 -0.53302,0.89326 -0.94185,1.2309 -0.66646,0.74426 -1.55308,1.24196 -2.27704,1.92922 -0.7875,0.49988 -1.58656,1.09225 -2.10669,1.87593 -0.52683,0.686801 -1.07342,1.354141 -1.45493,2.140109 -0.28906,0.971262 -0.55852,1.94863 -0.37692,2.970641 0.24742,1.026819 0.59671,2.042859 1.09519,2.972901 0.22425,0.18619 0.29,0.281519 0.58145,0.359889 1.04185,0.28013 3.38978,-1.502709 -0.92209,1.02657 0.83017,-0.540721 1.31969,-1.129649 1.70483,-2.040771 0.17447,-0.44604 0.41594,-0.903459 0.53667,-1.367229 0.11803,-0.45344 0.10972,-0.943621 0.28666,-1.385321 0.14535,-1.053831 0.34892,-2.09854 0.44351,-3.159049 0.17875,-1.15534 0.56431,-2.284679 0.56941,-3.456831 0.006,-1.174149 0.004,-2.348339 0.0148,-3.522459 -0.004,-0.42809 0.004,-0.85824 -0.0182,-1.28597 -0.0737,-1.42946 -0.47079,-0.34821 2.56115,-1.9272 -0.52876,0.74864 -0.62027,1.84222 -1.32937,2.51223 -1.36896,1.54427 -3.26055,2.77478 -5.3066,3.1324 -1.04806,-0.16965 -1.945,-0.62045 -2.59408,-1.48655 -0.59143,-0.99774 -0.63673,-2.09804 -0.51139,-3.23363 0.12303,-1.13215 0.29675,-2.25623 0.91345,-3.24085 0.0189,-0.0308 0.48276,-0.79183 0.52905,-0.84782 1.01021,-1.22177 2.70219,-1.99396 4.25974,-2.209781 0.81788,0.0517 1.66419,0.10879 2.33436,0.63442 0.58398,0.532821 1.0219,1.138761 1.20052,1.924421 0.27958,1.06925 0.17581,2.17609 -0.0141,3.25478 -0.26045,1.04049 -0.70806,1.97917 -1.41909,2.79228 -0.23713,0.25862 -0.41173,0.58994 -0.70641,0.78041 -1.3852,0.89536 -2.8449,2.00238 -4.53789,2.21603 -0.94666,0.002 -1.89687,0.008 -2.83959,-0.0882 -0.77233,-0.11535 -1.47836,-0.32127 -2.0244,-0.91748 -0.55746,-0.62377 -0.64908,-1.45444 -0.75466,-2.26092 -0.0994,-1.03859 -0.003,-2.08482 -0.0397,-3.12681 -0.009,-0.31988 -0.096,-1.34962 -0.0792,-1.36204 4.23779,-3.12686 2.84973,-2.253911 2.45386,-1.14184 -0.26184,1.03096 -0.63465,2.02373 -0.59668,3.10616 -0.11952,1.11176 -0.32252,2.20025 -0.91631,3.16997 -0.96271,1.30166 -0.25792,0.45773 -3.24202,2.15591 -0.2391,0.13606 -0.62756,0.24722 -0.90453,0.25657 -0.37524,0.0127 -0.55825,-0.0905 -0.91136,-0.21299 -1.06196,-0.52162 -1.83688,-1.33465 -2.00908,-2.5501 -0.0695,-1.41641 0.42049,-2.73002 0.93508,-4.03337 0.0767,-0.25772 0.13329,-0.52233 0.23021,-0.77315 0.7308,-1.89127 2.68777,-3.28094 4.71507,-3.44854 0.92727,0.31544 1.17958,0.94112 1.14715,1.8814 0,0 -2.72895,1.27074 -2.72895,1.27074 z" inkscape:connector-curvature="0"/>
    <path style="opacity:0.95999995;fill:#aa0000;fill-opacity:1;stroke:none;stroke-width:0.36500001;stroke-linecap:round;stroke-linejoin:round;stroke-miterlimit:4;stroke-dasharray:none;stroke-opacity:0.72941176" id="path993-5" d="m 192.38801,29.911954 c -1.04446,-0.0211 -2.08916,-0.0155 -3.13375,-0.0167 -1.10618,0.0861 -2.99602,1.01892 1.30815,-0.99703 0.10899,-0.051 -0.18492,0.15648 -0.2598,0.25069 -0.19449,0.24474 -0.21501,0.40069 -0.31335,0.69707 -0.1895,0.91218 -0.16845,1.85109 -0.16395,2.77803 0.005,0.98911 0.0144,1.97817 0.0186,2.9673 2.6e-4,0.97989 0.007,1.959829 0.004,2.939729 0.07,0.87926 -0.0925,1.73615 -0.21558,2.600741 -0.12349,0.90762 -0.13904,1.82437 -0.15878,2.73864 0.18005,0.93374 0.93243,1.21452 1.76964,1.37786 0.958,0.13035 1.92814,0.10722 2.89258,0.10527 0.96511,-0.009 1.93025,-0.0129 2.89538,-0.0171 0,0 -2.43043,1.70939 -2.43043,1.70939 v 0 c -0.96425,0.002 -1.92846,0.0113 -2.89273,0.0149 -0.97913,0.003 -1.9677,0.0145 -2.93516,-0.15606 -0.96748,-0.24163 -1.73693,-0.68683 -1.96854,-1.73175 0.009,-0.92304 0.0308,-1.84857 0.13419,-2.76651 0.11217,-0.85612 0.3151,-1.69914 0.2435,-2.56929 -0.004,-0.97959 0.003,-1.9592 -0.003,-2.93879 -0.003,-0.98876 -0.009,-1.97755 -0.0204,-2.96625 -0.004,-0.94982 -0.0296,-1.90638 0.12207,-2.84755 0.44215,-1.98874 2.44997,-2.79621 4.38994,-2.88718 1.06045,-0.001 2.12103,0.004 3.18135,-0.0167 0,0 -2.46348,1.73136 -2.46348,1.73136 z" inkscape:connector-curvature="0"/>
    <path style="opacity:0.95999995;fill:#aa0000;fill-opacity:1;stroke:none;stroke-width:0.36500001;stroke-linecap:round;stroke-linejoin:round;stroke-miterlimit:4;stroke-dasharray:none;stroke-opacity:0.72941176" id="path999-0" d="m 190.77856,36.944093 c 0.48466,0.01 0.38511,0.0123 0.83533,0.005 0.0815,-10e-4 0.16813,0.0221 0.24454,-0.006 0.0385,-0.0143 0.0967,-0.12653 0.0605,-0.10726 -0.86061,0.4575 -3.33297,2.01121 -2.55005,1.4307 0.84027,-0.62303 1.81559,-1.03948 2.72338,-1.55922 1.23648,-0.0953 2.01901,-0.95483 -2.1106,1.57132 -0.0759,0.0464 -0.34087,0.0574 -0.26689,0.008 0.89799,-0.60036 1.8258,-1.15486 2.7387,-1.73229 1.8366,-0.32585 -1.40009,2.7332 -2.50814,1.275521 -0.0177,-0.0423 -0.0913,-0.101691 -0.0531,-0.127031 3.05838,-2.02485 1.62381,-1.68353 2.96862,-1.59517 0.2072,0.0136 0.36263,-0.0436 0.49359,0.11978 -0.8945,0.5552 -1.7683,1.14522 -2.6835,1.66558 -0.13724,0.078 -0.31587,2e-5 -0.47356,0.008 -1.33649,0.0651 1.5749,-1.71287 2.66895,-1.72313 0.65497,0.87727 -2.69649,2.49931 -3.36373,1.31047 0.93513,-0.48834 1.85301,-1.01123 2.80538,-1.46503 0.061,-0.0291 0.63308,0.17052 0.45273,0.29457 -1.55727,1.07118 -1.78265,1.1654 -2.78136,1.59644 2.64915,-1.76648 1.56536,-1.78233 2.75012,-1.73503 0,0 -2.48819,1.71927 -2.48819,1.71927 v 0 c -1.11604,-0.13125 -0.18714,0.0127 2.17526,-1.79461 1.04516,-0.12367 -0.33426,0.0294 -2.408,1.51188 -0.0557,0.0398 0.12239,0.0959 0.12312,0.16434 10e-4,0.10438 -0.36386,-0.23143 -0.31014,-0.0435 0.81958,-0.49906 1.63916,-0.99813 2.45873,-1.49719 -0.0412,-0.0609 -0.12987,-0.10953 -0.1236,-0.18282 0.004,-0.0478 0.0888,0.0366 0.13503,0.0494 1.27198,0.35275 1.14819,-0.70261 -1.90786,1.80653 -1.05112,-0.0716 -0.26646,0.007 2.13383,-1.75029 0.0974,-0.0713 0.24149,-10e-4 0.362,-0.008 0.0841,-0.005 0.31923,-0.0703 0.25204,-0.0194 -0.77269,0.58463 -1.59861,1.09535 -2.39791,1.64302 0.018,0.0244 0.0762,0.0527 0.0539,0.0732 -0.10079,0.093 -0.53542,-0.12425 -0.63883,0.0296 0.81531,-0.52066 1.63061,-1.04133 2.44592,-1.56199 -0.01,0.002 -0.0192,0.005 -0.0289,0.007 0.0631,0.0799 0.30298,0.14164 0.22472,0.20669 -2.28978,1.90325 -1.45174,1.72683 -2.78896,1.76101 0.73828,-0.57013 1.45822,-1.16483 2.21483,-1.7104 0.0342,-0.0246 0.0838,0.0116 0.12406,0.0239 0.0766,0.0234 0.28732,0.0322 0.22546,0.0831 -2.11332,1.73795 -1.60736,1.39715 -2.86212,1.87519 0.82645,-0.47704 3.26624,-1.97096 2.47935,-1.43114 -2.63348,1.80664 -1.91087,1.5116 -3.86227,1.53864 0,0 2.45752,-1.72717 2.45752,-1.72717 z" inkscape:connector-curvature="0"/>
    <path style="opacity:0.95999995;fill:#aa0000;fill-opacity:1;stroke:none;stroke-width:0.36500001;stroke-linecap:round;stroke-linejoin:round;stroke-miterlimit:4;stroke-dasharray:none;stroke-opacity:0.72941176" id="path1005-9" d="m 195.98351,44.793064 c 0.0985,-0.0375 0.19902,-0.0699 0.29542,-0.11247 0.27032,-0.11936 1.05334,-0.53597 0.79373,-0.39481 -3.91958,2.1312 -2.02885,1.11615 -1.16662,0.47639 1.04001,-0.64644 1.90159,-1.46643 2.60185,-2.4662 0.84521,-1.16421 1.28849,-2.45787 1.5082,-3.86298 0.0627,-0.58789 0.13653,-1.17649 0.0803,-1.76818 -0.011,-0.11598 -0.0283,-0.231901 -0.0568,-0.34485 -0.0103,-0.0406 -0.0588,-0.153111 -0.0584,-0.11124 7.9e-4,0.0749 0.0396,0.144469 0.0594,0.2167 3.9894,-2.298681 2.18649,-1.86529 2.45316,-0.20356 0.04,0.24955 0.19822,0.57131 0.29692,0.79748 0.41055,0.830699 1.05422,1.42313 1.72752,2.03611 0.71293,0.66405 1.39539,1.34345 2.0291,2.08124 0.54449,0.71614 0.93926,1.52199 1.22121,2.37297 0.23356,1.0678 -0.20286,2.08006 -0.8822,2.88973 -1.84294,1.59395 -3.40524,2.203878 -5.60735,2.04371 -1.266,-0.16987 -1.88311,-0.70109 -2.36241,-1.8533 -0.2537,-0.70589 -0.21234,-1.32636 0.0885,-1.99637 0,0 2.73617,-1.17533 2.73617,-1.17533 v 0 c -0.37875,0.57512 -0.44675,1.09722 -0.2111,1.76283 0.43215,1.07411 1.01619,1.46231 2.17926,1.57451 0.56861,0.023 1.09572,0.029 1.65474,-0.10309 0.17129,-0.0405 0.65172,-0.25089 0.50527,-0.15328 -0.55768,0.37171 -3.14041,1.83507 -1.74407,1.000399 0.71026,-0.645759 1.18762,-1.631599 1.02126,-2.600769 -0.26514,-0.81896 -0.66353,-1.57441 -1.17927,-2.26468 -0.614,-0.7333 -1.28521,-1.40617 -1.98546,-2.05887 -0.72085,-0.62905 -1.38045,-1.26376 -1.80697,-2.1375 -0.29048,-0.65959 -0.40394,-1.06193 -0.36313,-1.78755 0.006,-0.10522 -0.0599,-0.25088 0.0235,-0.3153 0.83191,-0.64251 1.75502,-1.15736 2.63254,-1.73605 0.58475,0.59818 0.21785,1.83772 0.20352,2.58094 -0.19712,1.44551 -0.60129,2.7861 -1.47007,3.98481 -0.63338,1.0425 -1.46885,1.92011 -2.52816,2.54328 -1.52936,1.22063 -3.30188,2.11052 -5.07317,2.93131 0,0 2.38362,-1.84603 2.38362,-1.84603 z" inkscape:connector-curvature="0"/>
  </g>
</svg>