<?xml version="1.0" encoding="UTF-8"?>
<svg xmlns="http://www.w3.org/2000/svg" width="540" height="590">
<g stroke="#E50000"><path stroke-width="70" d="M273,350V580M150,465H396"/>
<path stroke-width="60" fill="none" d="m272,40a161,161 0 1,0 2,0z"/>
<path stroke-width="124" stroke="#080BC5" d="M10,200.5H530"/></g>
<path fill="#FFF" d="m85.7,160v82h12.4V160 M27.4,242H39.1V189.56H39.28L50,220.64H52.4L63.12,189.56H63.3V242H75 V160H63.76L51.2,193.76L38.64,160H27.4ZM109.2,242H120.9V193.64H121.06 L136.58,242H147.4V160H135.7V206.36H135.54L120.74,160H109.2 M158.2,242H174.98C191.86,242,197.9,219.2,197.9,200.36 C197.9,180.44,191.431,160,174.34,160H158.2V242 M170.6,228.2V173.8H174.18C182.74,173.8,185.3,185.818,185.3,201.32 C185.3,217.76,182.5,228.2,173.54,228.2 M241.6,242H254V174.2H266.44V160H229.08V174.2H241.6 M273.2,242H285.6V207.7H299.2V242H311.6V160H299.2V193.5H285.6V160H273.2 M322.3,242H354.84V227.8H334.7V207.5H352.76V193.3H334.7V174.2H354.12V160H322.3 M428.5,197.8H410V211.6H416.1V225.439 C414.42,226.879,412.5,227.579,410.82,227.579C403.78,227.579,400.2,217.387,400.2,202.04 C400.2,184.28,405.153,174.42,413.78,174.42C418.668,174.42,421.793,176.584,426.6,182.479V165.44 C421.713,161,416.987,158.92,412.1,158.92C397.86,158.92,387.6,177.057,387.6,202.28 C387.6,225.92,397.335,243.08,410.74,243.08C417.46,243.08,423.46,239.24,428.5,233.48 M432.48,242H444.479L447.119,225H459.439L462,242H474L459.679,159.52H446.8L432.48,242 M448.88,211.7L453.2,181.88H453.36L457.6,211.7 M479.8,242H492.2V208.7H497.38C512.58,208.7,515.5,193.542,515.5,184.64 C515.5,173,510.208,160,497.46,160H479.8V242 M492.2,194.5V174.2H496.18C501.54,174.2,503.1,179.36,503.1,184.4 C503.1,190.4,501.491,194.5,495.78,194.5"/>
</svg>