<?xml version="1.0" encoding="UTF-8" standalone="no"?>
<svg
   xmlns:dc="http://purl.org/dc/elements/1.1/"
   xmlns:cc="http://creativecommons.org/ns#"
   xmlns:rdf="http://www.w3.org/1999/02/22-rdf-syntax-ns#"
   xmlns:svg="http://www.w3.org/2000/svg"
   xmlns="http://www.w3.org/2000/svg"
   xmlns:sodipodi="http://sodipodi.sourceforge.net/DTD/sodipodi-0.dtd"
   xmlns:inkscape="http://www.inkscape.org/namespaces/inkscape"
   width="200"
   height="200"
   viewBox="0 0 187.49989 187.49986"
   version="1.1"
   id="svg10"
   sodipodi:docname="signdict.svg"
   inkscape:version="0.92.2 (unknown)">
  <metadata
     id="metadata16">
    <rdf:RDF>
      <cc:Work
         rdf:about="">
        <dc:format>image/svg+xml</dc:format>
        <dc:type
           rdf:resource="http://purl.org/dc/dcmitype/StillImage" />
        <dc:title></dc:title>
      </cc:Work>
    </rdf:RDF>
  </metadata>
  <defs
     id="defs14" />
  <sodipodi:namedview
     pagecolor="#ffffff"
     bordercolor="#666666"
     borderopacity="1"
     objecttolerance="10"
     gridtolerance="10"
     guidetolerance="10"
     inkscape:pageopacity="0"
     inkscape:pageshadow="2"
     inkscape:window-width="1920"
     inkscape:window-height="1046"
     id="namedview12"
     showgrid="false"
     inkscape:zoom="1.3968712"
     inkscape:cx="58.233501"
     inkscape:cy="84.474503"
     inkscape:window-x="0"
     inkscape:window-y="34"
     inkscape:window-maximized="1"
     inkscape:current-layer="svg10" />
  <g
     id="g8"
     style="fill:#50d8c8"
     transform="translate(39.156061,14.555137)">
    <path
       d="m 3.025,0.738 c 52.143,-0.442 96.579,-0.66 102.53,3.03 0,0 5.648,105.651 1.769,146.22 l -12.375,2.525 -39.143,-46.972 c -9.431,13.078 -20.3,30.86 -43.184,52.276 L 0.5,153.524 V 17.153 l 11.364,0.758 0.253,126.269 c 0,0 25.227,-25.314 36.618,-47.477 l 12.88,-0.506 c 10.708,15.12 35.102,43.69 35.102,43.69 3.054,-28.596 -1.01,-130.563 -1.01,-130.563 0,0 -40.717,-2.496 -92.682,-1.514 z"
       id="path2"
       inkscape:connector-curvature="0"
       style="fill-rule:evenodd;stroke:#50d8c8" />
    <g
       style="font-weight:400;font-size:28.32999992px;line-height:110.00000238%;font-family:SignDict;-inkscape-font-specification:'SignDict, Normal';text-align:start;letter-spacing:0;word-spacing:0"
       font-weight="400"
       font-size="28.33"
       letter-spacing="0"
       word-spacing="0"
       id="g6">
      <path
         d="m 29.556,26.855 q -1.416,0 -2.266,0.623 -0.85,0.595 -0.85,1.586 0,1.02 0.906,1.615 0.907,0.567 2.21,0.85 1.303,0.255 2.607,0.652 1.303,0.368 2.21,1.36 0.906,0.991 0.906,2.634 0,2.097 -1.757,3.371 -1.756,1.275 -4.646,1.275 -2.946,0 -5.496,-1.614 l 1.445,-2.012 q 1.615,1.303 4.051,1.303 1.672,0 2.692,-0.595 1.02,-0.595 1.02,-1.558 0,-1.048 -0.907,-1.615 -0.907,-0.595 -2.21,-0.878 -1.303,-0.283 -2.606,-0.651 -1.303,-0.369 -2.21,-1.332 -0.906,-0.991 -0.906,-2.635 0,-2.124 1.586,-3.4 1.615,-1.302 4.221,-1.302 2.663,0 4.816,1.274 l -1.02,1.899 q -1.7,-0.85 -3.796,-0.85 z m 12.158,-8.131 q 0.538,0.51 0.538,1.246 0,0.737 -0.538,1.275 -0.539,0.51 -1.332,0.51 -0.793,0 -1.331,-0.51 -0.539,-0.538 -0.539,-1.275 0,-0.736 0.539,-1.246 0.538,-0.538 1.331,-0.538 0.793,0 1.332,0.538 z m -2.607,21.7 v -15.44 h 2.578 v 15.44 z M 56.85,26.486 57.304,24.985 h 2.124 v 14.93 q 0,3.343 -1.756,5.27 -1.728,1.954 -4.901,1.954 -1.7,0 -3.343,-0.482 -1.615,-0.481 -2.38,-1.105 l 1.077,-2.011 q 2.266,1.275 4.617,1.275 2.012,0 3.06,-1.36 1.048,-1.331 1.048,-3.683 V 37.79 q -0.538,1.105 -1.784,1.955 -1.247,0.821 -2.748,0.821 -3.003,0 -4.845,-2.153 -1.841,-2.153 -1.841,-5.722 0,-3.542 1.841,-5.695 1.842,-2.153 4.845,-2.153 1.473,0 2.69,0.482 1.247,0.481 1.842,1.161 z m -7.337,2.21 q -1.19,1.502 -1.19,3.995 0,2.493 1.19,4.022 1.19,1.53 3.088,1.53 1.388,0 2.55,-0.991 1.19,-1.02 1.7,-2.352 v -6.232 q -1.332,-1.502 -4.25,-1.502 -1.898,0 -3.088,1.53 z M 71.65,27.025 q -3.06,0 -5.014,2.578 v 10.822 h -2.578 v -15.44 h 2.068 l 0.425,2.351 q 2.635,-2.634 5.808,-2.634 2.21,0 3.428,1.501 1.246,1.473 1.246,4.108 v 10.114 h -2.578 v -9.66 q 0,-3.74 -2.804,-3.74 z M 35.194,49.689 h 2.578 v 18.697 q 0,0.822 0.085,1.615 0.113,0.793 0.198,1.162 0.113,0.368 0.142,0.425 H 36.61 q -0.878,-0.963 -1.218,-2.55 -0.057,0.113 -0.17,0.312 -0.113,0.198 -0.538,0.736 -0.425,0.51 -0.935,0.907 -0.51,0.368 -1.36,0.68 -0.821,0.34 -1.728,0.34 -3.003,0 -4.844,-2.238 -1.842,-2.238 -1.842,-5.921 0,-3.683 1.842,-5.921 1.841,-2.238 4.816,-2.238 1.331,0 2.464,0.396 1.162,0.397 1.615,0.793 l 0.482,0.397 V 49.69 Z m -7.281,9.915 q -1.247,1.615 -1.247,4.25 0,2.634 1.247,4.25 1.247,1.586 3.286,1.586 1.218,0 2.267,-0.964 1.076,-0.963 1.728,-2.578 v -6.714 q -1.842,-1.445 -3.995,-1.445 -2.04,0 -3.286,1.615 z m 17.729,-9.717 q 0.539,0.51 0.539,1.246 0,0.737 -0.539,1.275 -0.538,0.51 -1.331,0.51 -0.793,0 -1.332,-0.51 -0.538,-0.538 -0.538,-1.275 0,-0.736 0.538,-1.246 0.539,-0.538 1.332,-0.538 0.793,0 1.331,0.538 z m -2.606,21.7 v -15.44 h 2.578 v 15.44 z m 14.258,0.397 q -3.343,0 -5.41,-2.21 -2.069,-2.21 -2.069,-5.864 0,-3.71 2.068,-5.949 2.068,-2.238 5.411,-2.238 1.417,0 2.635,0.312 1.218,0.311 1.7,0.651 l 0.51,0.312 -1.048,1.898 q -1.587,-0.85 -3.768,-0.85 -2.153,0 -3.485,1.615 -1.331,1.586 -1.331,4.25 0,2.606 1.331,4.192 1.332,1.558 3.485,1.558 0.935,0 1.87,-0.255 0.963,-0.255 1.444,-0.51 l 0.482,-0.255 1.048,2.097 q -0.198,0.141 -0.595,0.368 -0.368,0.198 -1.643,0.538 -1.247,0.34 -2.635,0.34 z M 73.932,71.22 q -1.501,0.481 -3.314,0.481 -3.796,0 -3.796,-3.966 V 58.47 H 64.47 v -2.323 h 2.352 V 52.464 L 69.4,51.501 v 4.646 h 4.164 v 2.323 h -4.193 v 8.924 q 0,1.048 0.425,1.53 0.425,0.453 1.36,0.453 0.907,0 2.351,-0.34 l 0.425,2.181 z"
         id="path4"
         inkscape:connector-curvature="0" />
    </g>
  </g>
</svg>
