<svg width="200" height="200" version="1.1" viewBox="0 0 187.5 187.5" xmlns="http://www.w3.org/2000/svg"><g transform="translate(39.156 14.555)" fill="#50d8c8"><path d="m3.025 0.738c52.143-0.442 96.579-0.66 102.53 3.03 0 0 5.648 105.65 1.769 146.22l-12.375 2.525-39.143-46.972c-9.431 13.078-20.3 30.86-43.184 52.276l-12.122-4.293v-136.37l11.364 0.758 0.253 126.27s25.227-25.314 36.618-47.477l12.88-0.506c10.708 15.12 35.102 43.69 35.102 43.69 3.054-28.596-1.01-130.56-1.01-130.56s-40.717-2.496-92.682-1.514z" fill-rule="evenodd" stroke="#50d8c8"/><g font-size="28.33" font-weight="400" letter-spacing="0" word-spacing="0"><path d="m29.556 26.855q-1.416 0-2.266 0.623-0.85 0.595-0.85 1.586 0 1.02 0.906 1.615 0.907 0.567 2.21 0.85 1.303 0.255 2.607 0.652 1.303 0.368 2.21 1.36 0.906 0.991 0.906 2.634 0 2.097-1.757 3.371-1.756 1.275-4.646 1.275-2.946 0-5.496-1.614l1.445-2.012q1.615 1.303 4.051 1.303 1.672 0 2.692-0.595t1.02-1.558q0-1.048-0.907-1.615-0.907-0.595-2.21-0.878t-2.606-0.651q-1.303-0.369-2.21-1.332-0.906-0.991-0.906-2.635 0-2.124 1.586-3.4 1.615-1.302 4.221-1.302 2.663 0 4.816 1.274l-1.02 1.899q-1.7-0.85-3.796-0.85zm12.158-8.131q0.538 0.51 0.538 1.246 0 0.737-0.538 1.275-0.539 0.51-1.332 0.51t-1.331-0.51q-0.539-0.538-0.539-1.275 0-0.736 0.539-1.246 0.538-0.538 1.331-0.538t1.332 0.538zm-2.607 21.7v-15.44h2.578v15.44zm17.743-13.938 0.454-1.501h2.124v14.93q0 3.343-1.756 5.27-1.728 1.954-4.901 1.954-1.7 0-3.343-0.482-1.615-0.481-2.38-1.105l1.077-2.011q2.266 1.275 4.617 1.275 2.012 0 3.06-1.36 1.048-1.331 1.048-3.683v-1.983q-0.538 1.105-1.784 1.955-1.247 0.821-2.748 0.821-3.003 0-4.845-2.153-1.841-2.153-1.841-5.722 0-3.542 1.841-5.695 1.842-2.153 4.845-2.153 1.473 0 2.69 0.482 1.247 0.481 1.842 1.161zm-7.337 2.21q-1.19 1.502-1.19 3.995t1.19 4.022q1.19 1.53 3.088 1.53 1.388 0 2.55-0.991 1.19-1.02 1.7-2.352v-6.232q-1.332-1.502-4.25-1.502-1.898 0-3.088 1.53zm22.137-1.671q-3.06 0-5.014 2.578v10.822h-2.578v-15.44h2.068l0.425 2.351q2.635-2.634 5.808-2.634 2.21 0 3.428 1.501 1.246 1.473 1.246 4.108v10.114h-2.578v-9.66q0-3.74-2.804-3.74zm-36.456 22.664h2.578v18.697q0 0.822 0.085 1.615 0.113 0.793 0.198 1.162 0.113 0.368 0.142 0.425h-1.587q-0.878-0.963-1.218-2.55-0.057 0.113-0.17 0.312-0.113 0.198-0.538 0.736-0.425 0.51-0.935 0.907-0.51 0.368-1.36 0.68-0.821 0.34-1.728 0.34-3.003 0-4.844-2.238-1.842-2.238-1.842-5.921t1.842-5.921q1.841-2.238 4.816-2.238 1.331 0 2.464 0.396 1.162 0.397 1.615 0.793l0.482 0.397v-7.591zm-7.281 9.915q-1.247 1.615-1.247 4.25 0 2.634 1.247 4.25 1.247 1.586 3.286 1.586 1.218 0 2.267-0.964 1.076-0.963 1.728-2.578v-6.714q-1.842-1.445-3.995-1.445-2.04 0-3.286 1.615zm17.729-9.717q0.539 0.51 0.539 1.246 0 0.737-0.539 1.275-0.538 0.51-1.331 0.51t-1.332-0.51q-0.538-0.538-0.538-1.275 0-0.736 0.538-1.246 0.539-0.538 1.332-0.538t1.331 0.538zm-2.606 21.7v-15.44h2.578v15.44zm14.258 0.397q-3.343 0-5.41-2.21-2.069-2.21-2.069-5.864 0-3.71 2.068-5.949 2.068-2.238 5.411-2.238 1.417 0 2.635 0.312 1.218 0.311 1.7 0.651l0.51 0.312-1.048 1.898q-1.587-0.85-3.768-0.85-2.153 0-3.485 1.615-1.331 1.586-1.331 4.25 0 2.606 1.331 4.192 1.332 1.558 3.485 1.558 0.935 0 1.87-0.255 0.963-0.255 1.444-0.51l0.482-0.255 1.048 2.097q-0.198 0.141-0.595 0.368-0.368 0.198-1.643 0.538-1.247 0.34-2.635 0.34zm16.638-0.764q-1.501 0.481-3.314 0.481-3.796 0-3.796-3.966v-9.265h-2.352v-2.323h2.352v-3.683l2.578-0.963v4.646h4.164v2.323h-4.193v8.924q0 1.048 0.425 1.53 0.425 0.453 1.36 0.453 0.907 0 2.351-0.34l0.425 2.181z"/></g></g></svg>
