<svg width="128" height="128" version="1.1" viewBox="0 0 33.867 33.867" xmlns="http://www.w3.org/2000/svg"><g transform="translate(0 -263.13)"><g transform="matrix(1.28 0 0 1.28 0 -83.16)"><path transform="matrix(.26458 0 0 .26458 0 263.13)" d="m50 28a50 50 0 0 0-50 50 50 50 0 0 0 50 50 50 50 0 0 0 50-50 50 50 0 0 0-50-50zm0 10a40 40 0 0 1 40 40 40 40 0 0 1-40 40 40 40 0 0 1-40-40 40 40 0 0 1 40-40z" fill="#2bb1a8" style="paint-order:markers stroke fill"/><path transform="matrix(.26458 0 0 .26458 0 263.13)" d="m50 38a40 40 0 0 0-40 40 40 40 0 0 0 40 40 40 40 0 0 0 40-40 40 40 0 0 0-40-40zm0 10a30 30 0 0 1 30 30 30 30 0 0 1-30 30 30 30 0 0 1-30-30 30 30 0 0 1 30-30z" fill="#fbe697" style="paint-order:markers stroke fill"/></g></g></svg>
