<?xml version="1.0" encoding="UTF-8"?>
<!-- Generator: Adobe Illustrator 16.0.0, SVG Export Plug-In . SVG Version: 6.00 Build 0)  -->
<!DOCTYPE svg PUBLIC "-//W3C//DTD SVG 1.1//EN" "http://www.w3.org/Graphics/SVG/1.1/DTD/svg11.dtd">
<svg version="1.1" xmlns="http://www.w3.org/2000/svg" xmlns:xlink="http://www.w3.org/1999/xlink" x="0px" y="0px" width="516.601px" height="522.219px" viewBox="0 0 516.601 522.219" enable-background="new 0 0 516.601 522.219" xml:space="preserve">
<g id="background">
	<rect fill="#FFFFFF" width="516.601" height="522.219"/>
</g>
<g id="wordmark">
	<g>
		<path fill="#484848" d="M241.682,341.455l-13.62,42h-12.72l-8.04-25.559l-8.4,25.559h-12.72l-13.62-42h12.24l8.46,26.82    l8.88-26.82h10.92l8.46,27.061l8.82-27.061H241.682z"/>
		<path fill="#484848" d="M245.942,341.455h11.88v42h-11.88V341.455z"/>
		<path fill="#484848" d="M282.481,368.215l-4.44,4.74v10.5h-11.76v-42h11.76v17.461l16.26-17.461h13.08l-17.16,18.6l18.061,23.4    h-13.8L282.481,368.215z"/>
		<path fill="#484848" d="M311.401,341.455h11.88v42h-11.88V341.455z"/>
		<path fill="#484848" d="M71.882,410.875h-12.9v-9.42h37.62v9.42h-12.84v32.58h-11.88V410.875z"/>
		<path fill="#484848" d="M134.761,434.275v9.18h-33.72v-42h32.94v9.18h-21.18v7.08h18.66v8.881h-18.66v7.68H134.761z"/>
		<path fill="#484848" d="M150.392,441.506c-3.5-1.859-6.25-4.449-8.25-7.77c-2-3.32-3-7.08-3-11.281c0-4.199,1-7.959,3-11.279    c2-3.32,4.75-5.91,8.25-7.77c3.5-1.861,7.449-2.791,11.85-2.791c3.84,0,7.299,0.682,10.38,2.041c3.08,1.359,5.64,3.32,7.68,5.879    l-7.56,6.84c-2.721-3.279-6.021-4.92-9.9-4.92c-2.28,0-4.311,0.502-6.09,1.5c-1.78,1-3.16,2.41-4.14,4.23    c-0.98,1.82-1.47,3.91-1.47,6.27c0,2.361,0.489,4.451,1.47,6.27c0.98,1.822,2.36,3.232,4.14,4.23c1.779,1,3.81,1.5,6.09,1.5    c3.879,0,7.179-1.639,9.9-4.92l7.56,6.84c-2.04,2.561-4.601,4.521-7.68,5.881c-3.081,1.359-6.54,2.039-10.38,2.039    C157.841,444.295,153.891,443.365,150.392,441.506z"/>
		<path fill="#484848" d="M225.542,401.455v42h-11.88v-16.379h-16.2v16.379h-11.88v-42h11.88v15.781h16.2v-15.781H225.542z"/>
		<path fill="#484848" d="M238.801,443.035c-3.201-0.84-5.8-1.959-7.8-3.359l3.9-8.76c1.879,1.24,4.059,2.24,6.54,3    c2.479,0.76,4.92,1.139,7.32,1.139c4.56,0,6.84-1.139,6.84-3.42c0-1.199-0.65-2.09-1.95-2.67c-1.3-0.578-3.39-1.189-6.27-1.83    c-3.161-0.68-5.8-1.41-7.92-2.189c-2.121-0.779-3.94-2.029-5.46-3.75c-1.521-1.719-2.28-4.039-2.28-6.959    c0-2.561,0.699-4.871,2.1-6.932c1.399-2.059,3.489-3.689,6.27-4.889c2.78-1.201,6.189-1.801,10.23-1.801    c2.76,0,5.479,0.311,8.16,0.93c2.679,0.621,5.04,1.531,7.08,2.73l-3.66,8.82c-4.001-2.16-7.881-3.24-11.64-3.24    c-2.361,0-4.08,0.352-5.16,1.051s-1.62,1.609-1.62,2.729c0,1.121,0.639,1.961,1.92,2.521c1.279,0.561,3.339,1.139,6.18,1.74    c3.2,0.68,5.851,1.408,7.95,2.189c2.1,0.779,3.92,2.02,5.46,3.719c1.539,1.701,2.31,4.012,2.31,6.932c0,2.52-0.7,4.799-2.1,6.84    c-1.4,2.039-3.501,3.67-6.3,4.889c-2.8,1.221-6.2,1.83-10.2,1.83C245.301,444.295,242.001,443.875,238.801,443.035z"/>
		<path fill="#484848" d="M281.101,410.875h-12.899v-9.42h37.62v9.42H292.98v32.58h-11.88V410.875z"/>
		<path fill="#484848" d="M318.871,441.475c-3.54-1.879-6.32-4.479-8.34-7.799c-2.021-3.32-3.03-7.061-3.03-11.221    s1.01-7.898,3.03-11.219c2.02-3.32,4.8-5.92,8.34-7.801c3.54-1.879,7.53-2.82,11.97-2.82c4.44,0,8.43,0.941,11.97,2.82    c3.54,1.881,6.32,4.48,8.341,7.801c2.019,3.32,3.029,7.059,3.029,11.219s-1.011,7.9-3.029,11.221    c-2.021,3.32-4.801,5.92-8.341,7.799c-3.54,1.881-7.529,2.82-11.97,2.82C326.401,444.295,322.411,443.355,318.871,441.475z     M336.601,432.955c1.72-0.998,3.08-2.408,4.08-4.23c1-1.818,1.5-3.908,1.5-6.27c0-2.359-0.5-4.449-1.5-6.27s-2.36-3.23-4.08-4.23    c-1.72-0.998-3.64-1.5-5.76-1.5s-4.04,0.502-5.76,1.5c-1.721,1-3.081,2.41-4.08,4.23c-1,1.82-1.5,3.91-1.5,6.27    c0,2.361,0.5,4.451,1.5,6.27c0.999,1.822,2.359,3.232,4.08,4.23c1.72,1,3.64,1.5,5.76,1.5S334.881,433.955,336.601,432.955z"/>
		<path fill="#484848" d="M378.78,432.295h-6.479v11.16h-11.88v-42h19.2c3.799,0,7.1,0.631,9.899,1.891s4.96,3.061,6.48,5.4    c1.52,2.34,2.279,5.09,2.279,8.25c0,3.039-0.71,5.689-2.13,7.949s-3.449,4.031-6.09,5.311l9.061,13.199H386.4L378.78,432.295z     M384.421,412.436c-1.24-1.08-3.081-1.619-5.521-1.619h-6.6v12.299h6.6c2.439,0,4.28-0.529,5.521-1.59    c1.239-1.059,1.859-2.57,1.859-4.529S385.66,413.516,384.421,412.436z"/>
		<path fill="#484848" d="M442.74,443.455l-0.12-22.26l-10.8,18.121h-5.28l-10.74-17.521v21.66H404.82v-42h9.78l14.76,24.24    l14.399-24.24h9.78l0.12,42H442.74z"/>
	</g>
</g>
<g id="logo">
	<rect x="93.757" y="76.595" fill="#9B0000" width="92.993" height="18.75"/>
	<rect x="200.812" y="62.684" fill="#00659B" width="18.749" height="46.424"/>
	<rect x="293.955" y="62.684" fill="#9B0000" width="18.75" height="46.424"/>
	<rect x="293.955" y="249.117" fill="#2D9A64" width="18.75" height="46.424"/>
	<rect x="340.512" y="155.912" fill="#2D9A64" width="18.75" height="46.424"/>
	<rect x="154.212" y="202.457" fill="#9B0000" width="18.75" height="46.424"/>
	<rect x="387.172" y="202.457" fill="#2D9A64" width="18.75" height="46.424"/>
	<rect x="373.334" y="169.723" fill="#00659B" width="46.424" height="18.75"/>
	<rect x="93.757" y="216.384" fill="#2D9A64" width="46.424" height="18.75"/>
	<rect x="93.757" y="262.881" fill="#00659B" width="92.994" height="18.75"/>
	<rect x="326.773" y="262.756" fill="#00659B" width="92.994" height="18.75"/>
	<rect x="326.746" y="76.826" fill="#2D9A64" width="46.279" height="18.304"/>
	<rect x="387.098" y="62.684" fill="#9B0000" width="18.75" height="46.424"/>
	<rect x="247.615" y="109.418" fill="#2D9A64" width="18.305" height="46.277"/>
	<rect x="280.193" y="123.377" fill="#00659B" width="139.564" height="18.539"/>
	<rect x="93.757" y="123.166" fill="#00659B" width="139.564" height="18.538"/>
	<rect x="93.757" y="169.738" fill="#2D9A64" width="92.993" height="18.749"/>
	<rect x="200.917" y="155.977" fill="#00659B" width="18.644" height="139.564"/>
	<rect x="233.64" y="216.521" fill="#9B0000" width="139.409" height="18.303"/>
	<rect x="280.178" y="169.974" fill="#00659B" width="46.271" height="18.301"/>
</g>
</svg>