<?xml version="1.0" encoding="UTF-8" standalone="no"?>
<svg xmlns="http://www.w3.org/2000/svg" viewBox="0 0 32 32" height="32" width="32" version="1.1">
 <path d="m11.435 29c11.322 0 17.512-9.3792 17.512-17.512 0-0.2664-0.0054-0.5316-0.01738-0.7956 1.2018-0.8688 2.2464-1.953 3.0702-3.1872-1.1028 0.4902-2.2896 0.8202-3.5346 0.969 1.2708-0.762 2.2464-1.9674 2.7066-3.4044-1.1892 0.705-2.5062 1.2174-3.9084 1.494-1.1232-1.1964-2.7222-1.9446-4.4928-1.9446-3.399 0-6.1555 2.7564-6.1555 6.1542 0 0.483 0.054 0.9528 0.1596 1.4034-5.1156-0.2574-9.6517-2.7066-12.687-6.4308-0.52861 0.9096-0.83341 1.9662-0.83341 3.0936 0 2.1354 1.0866 4.0206 2.739 5.1234-1.0098-0.0312-1.9584-0.3084-2.7876-0.7698-0.000906 0.02582-0.000906 0.051-0.000906 0.0786 0 2.9808 2.1216 5.4696 4.938 6.0336-0.5172 0.141-1.0614 0.2166-1.623 0.2166-0.396 0-0.78181-0.03898-1.1568-0.111 0.78361 2.4456 3.0558 4.2252 5.7499 4.275-2.1066 1.6512-4.7604 2.6346-7.6447 2.6346-0.49621 0-0.98641-0.02822-1.4682-0.0852 2.7236 1.746 5.9583 2.765 9.4346 2.765" fill="#fff"/>
</svg>
