<svg width="32" height="32" enable-background="new 0 0 36 36" version="1.1" viewBox="0 0 32 32" xml:space="preserve" xmlns="http://www.w3.org/2000/svg"><path d="m16.128 0.723c-8.2132 0-15.128 6.6585-15.128 14.874v15.403l15.125-0.01482c8.2132 0 14.875-6.9149 14.875-15.128 0-8.213-6.6674-15.134-14.872-15.134zm0.0319 5.7334c2.7352-0.02829 5.4371 1.1609 7.2636 3.4173 4.37e-4 5.25e-4 6.99e-4 0.0012 0.0011 0.0017 2e-3 0.0025 0.0042 0.0049 0.0063 0.0074 0.0047 0.0058 9e-3 0.01187 0.01367 0.01766 0.0019 0.0023 0.0038 0.0045 0.0057 0.0068 0.04823 0.06014 0.09772 0.11893 0.14469 0.18058-0.0049-0.0047-0.0099-9e-3 -0.01481-0.01367 0.07685 0.09949 0.15148 0.20037 0.22387 0.30248 0.02252 0.03185 0.04507 0.06353 0.06722 0.0957 0.11901 0.1725 0.23206 0.34832 0.33837 0.52749 0.0058 0.0098 0.01132 0.0198 0.01709 0.02962 0.23027 0.39138 0.42983 0.79764 0.5987 1.215 0.0023 0.0056 0.0051 0.01088 0.0074 0.01652 0.0015 0.0038 0.0025 0.0076 4e-3 0.01139 0.0851 0.21233 0.16232 0.42729 0.23128 0.64483 4.08e-4 0.0013 7.29e-4 0.0027 0.0011 4e-3 5.54e-4 0.0017 0.0012 0.0034 0.0017 0.0051 0.77005 2.438 0.52329 5.1713-0.87612 7.5107-2.2761 3.805-6.9112 5.4192-11.02 3.9425-0.02797-0.01001-0.05583-0.02047-0.08374-0.03076-0.2013-0.07455-0.40151-0.15422-0.59984-0.24381l-5.991 1.3563 0.024494-0.0085-0.024494 0.0057 1.6685-5.3666c-0.095102-0.17428-0.18153-0.351-0.26432-0.52863-0.00474-0.01027-0.00955-0.02048-0.014242-0.03076-1.9062-4.1293-0.51333-9.0828 3.3552-11.592 1.5168-0.98365 3.2216-1.467 4.9144-1.4845z" fill="#fff" stroke-width=".29166"/></svg>
