<?xml version="1.0" encoding="UTF-8" standalone="no"?>
<svg xmlns="http://www.w3.org/2000/svg" enable-background="new 0 0 36 36" xml:space="preserve" viewBox="0 0 32 32" height="32" width="32" version="1.1" y="0px" x="0px"><path d="m15.954 1.2539c-8.2568 0-14.954 6.6973-14.954 14.954 0 6.6055 4.3119 12.202 10.183 14.22 0.73394 0.09174 1.0092-0.36697 1.0092-0.73394v-2.5688c-4.1278 0.918-5.0452-2.018-5.0452-2.018-0.6422-1.743-1.6514-2.202-1.6514-2.202-1.3761-0.91743 0.091743-0.91743 0.091743-0.91743 1.4679 0.09174 2.2936 1.5596 2.2936 1.5596 1.3761 2.2936 3.4862 1.6514 4.3119 1.2844 0.09174-1.0092 0.55046-1.6514 0.91743-2.0183-3.3027-0.366-6.7889-1.651-6.7889-7.431 0-1.6514 0.55046-2.9358 1.5596-4.0367-0.18349-0.36697-0.6422-1.9266 0.18349-3.945 0 0 1.2844-0.36697 4.1284 1.5596 1.1927-0.36697 2.4771-0.45872 3.7615-0.45872s2.5688 0.18349 3.7615 0.45872c2.844-1.9266 4.1284-1.5596 4.1284-1.5596 0.82569 2.0183 0.27523 3.578 0.18349 3.945 0.91743 1.0092 1.5596 2.3853 1.5596 4.0367 0 5.7798-3.4862 6.9725-6.789 7.3394 0.55046 0.45872 1.0092 1.3761 1.0092 2.7523v4.1284c0 0.36697 0.27523 0.82569 1.0092 0.73395 5.965-2.018 10.185-7.614 10.185-14.22-0.092-8.1648-6.789-14.862-15.046-14.862z" fill-rule="evenodd" clip-rule="evenodd" fill="#fff"/></svg>
