<svg width="60.624" height="37.21" version="1.1" viewBox="0 0 16.04 9.8451" xmlns="http://www.w3.org/2000/svg"><path transform="matrix(.26458 0 0 .26458 -4.5509e-5 0)" d="m15.953 3.0723 3.3477 2.4766-3.3477-2.4766zm-13.459 6.9258 12.449 3.5313-12.449-3.5313zm12.531 12.213-8.6816 3.4336 8.6816-3.4336zm4.2754 8.8301-2.2852 3.6758 2.2852-3.6758z" fill="none" stroke="#fff" stroke-linecap="round" stroke-linejoin="round" stroke-width=".99997"/><path transform="matrix(.26458 0 0 .26458 -4.5509e-5 0)" d="m49.391 2.4961-5.2012 4.3516 5.2012-4.3516zm8.7402 9.8164-8.6562 2.6387 8.6562-2.6387zm-9.1426 11.641 5.7988 2.373-5.7988-2.373zm-3.2812 7.4023 2.6562 2.5664-2.6562-2.5664z" fill="none" stroke="#fff" stroke-linecap="round" stroke-linejoin="round" stroke-width=".99997"/></svg>
