<?xml version="1.0" encoding="UTF-8" standalone="no"?>
<!-- Created with Inkscape (http://www.inkscape.org/) -->

<svg
   xmlns:dc="http://purl.org/dc/elements/1.1/"
   xmlns:cc="http://creativecommons.org/ns#"
   xmlns:rdf="http://www.w3.org/1999/02/22-rdf-syntax-ns#"
   xmlns:svg="http://www.w3.org/2000/svg"
   xmlns="http://www.w3.org/2000/svg"
   xmlns:sodipodi="http://sodipodi.sourceforge.net/DTD/sodipodi-0.dtd"
   xmlns:inkscape="http://www.inkscape.org/namespaces/inkscape"
   version="1.1"
   id="svg2"
   xml:space="preserve"
   width="250"
   height="250"
   viewBox="0 0 250 250"
   sodipodi:docname="opensourcediversity-icon-white.svg"
   inkscape:version="0.92.1 r15371"
   inkscape:export-filename="opensourcediversity-logo-white.png"
   inkscape:export-xdpi="96"
   inkscape:export-ydpi="96"><metadata
     id="metadata8"><rdf:RDF><cc:Work
         rdf:about=""><dc:format>image/svg+xml</dc:format><dc:type
           rdf:resource="http://purl.org/dc/dcmitype/StillImage" /><dc:title></dc:title></cc:Work></rdf:RDF></metadata><defs
     id="defs6" /><sodipodi:namedview
     pagecolor="#ffffff"
     bordercolor="#666666"
     borderopacity="1"
     objecttolerance="10"
     gridtolerance="10"
     guidetolerance="10"
     inkscape:pageopacity="0"
     inkscape:pageshadow="2"
     inkscape:window-width="1920"
     inkscape:window-height="1046"
     id="namedview4"
     showgrid="false"
     fit-margin-top="0"
     fit-margin-left="0"
     fit-margin-right="0"
     fit-margin-bottom="0"
     inkscape:zoom="2.0977778"
     inkscape:cx="179.85304"
     inkscape:cy="160.34903"
     inkscape:window-x="0"
     inkscape:window-y="34"
     inkscape:window-maximized="1"
     inkscape:current-layer="g10" /><g
     id="g10"
     inkscape:groupmode="layer"
     inkscape:label="opendata.tirana.al Hackathon"
     transform="matrix(1.3333333,0,0,-1.3333333,-238.06204,580.5582)"><path
       style="color:#000000;font-style:normal;font-variant:normal;font-weight:normal;font-stretch:normal;font-size:medium;line-height:normal;font-family:sans-serif;font-variant-ligatures:normal;font-variant-position:normal;font-variant-caps:normal;font-variant-numeric:normal;font-variant-alternates:normal;font-feature-settings:normal;text-indent:0;text-align:start;text-decoration:none;text-decoration-line:none;text-decoration-style:solid;text-decoration-color:#000000;letter-spacing:normal;word-spacing:normal;text-transform:none;writing-mode:lr-tb;direction:ltr;text-orientation:mixed;dominant-baseline:auto;baseline-shift:baseline;text-anchor:start;white-space:normal;shape-padding:0;clip-rule:nonzero;display:inline;overflow:visible;visibility:visible;opacity:1;isolation:auto;mix-blend-mode:normal;color-interpolation:sRGB;color-interpolation-filters:linearRGB;solid-color:#000000;solid-opacity:1;vector-effect:none;fill:#ffffff;fill-opacity:1;fill-rule:nonzero;stroke:none;stroke-width:11.52467918;stroke-linecap:butt;stroke-linejoin:round;stroke-miterlimit:4;stroke-dasharray:none;stroke-dashoffset:0;stroke-opacity:1;color-rendering:auto;image-rendering:auto;shape-rendering:auto;text-rendering:auto;enable-background:accumulate"
       d="m 272.5567,425.56292 c -1.97973,0.0406 -3.95936,-0.58933 -5.56559,-1.81586 a 5.7629156,5.7629156 0 0 1 -0.29502,-0.24044 c 0.45182,0.39498 -0.94634,-0.78466 -2.33657,-2.04155 -1.39023,-1.25691 -3.26899,-3.02509 -5.39743,-5.22336 -4.25688,-4.39657 -9.52021,-10.49619 -13.86012,-17.77949 a 5.7629156,5.7629156 0 0 1 -0.004,-0.009 c -3.57166,-6.01097 -5.97385,-12.01868 -7.10265,-17.92257 -5.31563,1.98307 -11.37824,2.87646 -18.05828,2.87646 h -1.12846 a 5.7629156,5.7629156 0 0 1 -0.12096,-10e-4 c -8.64271,-0.17817 -16.96184,-1.74516 -23.28017,-3.28212 -3.15917,-0.76849 -5.81357,-1.53279 -7.73843,-2.12711 -1.84596,-0.56996 -2.60447,-0.82836 -3.31604,-1.09748 -3.96451,-1.39448 -6.33534,-5.56095 -5.70277,-9.60591 a 5.7629156,5.7629156 0 0 1 0.11505,-0.5635 c -0.19238,0.73605 0.0185,-0.1114 0.13276,-0.64757 0.11518,-0.5405 0.28166,-1.29551 0.50154,-2.22299 0.43975,-1.85495 1.09596,-4.40073 2.01943,-7.37554 1.84483,-5.94286 4.73857,-13.60281 9.20468,-20.98491 3.41066,-5.73287 7.35388,-10.57479 11.83627,-14.30855 -4.7611,-4.1047 -8.77783,-9.65598 -12.26258,-16.39879 a 5.7629156,5.7629156 0 0 1 -0.0118,-0.0251 c -3.8773,-7.59187 -6.40931,-15.48106 -8.03049,-21.62363 -0.8106,-3.07129 -1.38975,-5.7036 -1.77456,-7.63664 -0.35116,-1.76405 -0.46186,-2.35743 -0.57972,-3.30425 -0.7229,-4.14983 1.79767,-8.23845 5.65409,-9.61918 a 5.7629156,5.7629156 0 0 1 0.29945,-0.0988 c -0.4604,0.13704 1.07155,-0.34408 2.70978,-0.79803 1.63823,-0.45396 3.90965,-1.03771 6.64536,-1.61524 5.47144,-1.15507 12.79796,-2.29822 20.72529,-2.29822 0.75423,0 1.6807,0.005 2.70977,0.0767 9.9739,0.28398 18.76495,2.65021 25.80999,7.15133 a 5.7629156,5.7629156 0 0 1 0.0147,0.009 c 8.51049,5.47095 14.29273,14.40228 15.71876,24.55171 0.43531,3.06293 -0.92946,6.19988 -3.27326,8.05263 -0.006,0.006 -0.59277,0.42402 -0.9249,0.69478 0.0668,-0.0634 -0.0576,0.0574 0.0531,-0.0561 a 5.7629156,5.7629156 0 0 1 -0.0782,0.0738 c -0.15814,0.12635 -0.18989,0.17772 -0.34075,0.28322 -0.0116,0.0106 -0.025,0.0221 -0.0325,0.0295 l 0.10916,-0.0679 a 5.7629156,5.7629156 0 0 1 -0.33633,0.26847 c -0.059,0.0498 -0.027,0.0319 -0.10768,0.0959 -0.12658,0.1002 -0.39661,0.29782 -0.61807,0.47352 -0.35403,0.2892 -0.73212,0.59285 -1.14468,0.92047 l -0.40418,0.45286 a 5.7629156,5.7629156 0 0 1 -0.40713,0.41155 c -0.41719,0.38042 -0.93267,0.94779 -1.61525,1.69637 -0.008,0.009 -0.011,0.0117 -0.0192,0.0206 l -0.43959,0.49565 c -0.50435,0.63563 -0.98017,1.29204 -1.46625,2.00024 v 10e-4 c -0.72787,1.06169 -1.37834,2.1673 -1.9737,3.36767 -0.40215,0.86591 -0.67939,1.45303 -0.86146,1.97959 a 5.7629156,5.7629156 0 0 1 -0.39828,0.89982 c 0.0675,-0.12243 -0.0684,0.19372 -0.16522,0.42779 -0.19278,0.56599 -0.36535,1.16963 -0.42483,1.4633 a 5.7629156,5.7629156 0 0 1 -0.0634,0.26995 c -0.14828,0.5859 -0.29551,1.16648 -0.44696,1.7539 -0.097,0.55903 -0.19985,1.0873 -0.21831,1.23614 -0.11137,1.04632 -0.20357,1.68971 -0.20357,1.689 a 5.7629156,5.7629156 0 0 1 -0.0502,0.74198 l -0.0826,0.63725 0.0339,-0.32157 c -0.0447,0.61103 -0.15706,1.20941 -0.32747,1.78636 0.0311,0.17412 0.0756,0.3426 0.0974,0.52071 0.18823,0.84488 0.24635,1.53778 0.24635,1.68162 l -0.0221,-0.48974 c 0.0821,0.96243 0.16387,1.7613 0.25372,2.2407 a 5.7629156,5.7629156 0 0 1 0.0251,0.15341 c 0.078,0.48918 0.12969,0.79381 0.18586,1.07535 a 5.7629156,5.7629156 0 0 1 0.0133,0.0649 c 0.16534,0.88217 0.30155,1.54431 0.42483,1.95009 l -0.007,-0.0206 c 0.29124,0.94651 0.39522,1.32069 0.23159,0.91162 a 5.7629156,5.7629156 0 0 1 0.15341,0.43221 c 0.14592,0.47036 0.42412,1.1677 0.75969,2.04302 a 5.7629156,5.7629156 0 0 1 0.0797,0.22864 c 0.0878,0.26121 0.14518,0.39828 0.33043,0.80394 l 0.004,0.009 c 0.58411,1.26229 1.40308,2.70796 2.37788,4.1834 a 5.7629156,5.7629156 0 0 1 0.0929,0.1431 l 0.24339,0.39385 a 5.7629156,5.7629156 0 0 1 0.0295,0.0472 c 0.11074,0.18275 0.17937,0.278 0.40123,0.57382 a 5.7629156,5.7629156 0 0 1 0.0177,0.0236 c 0.12864,0.17332 0.49384,0.57877 1.19336,1.36448 a 5.7629156,5.7629156 0 0 1 0.33485,0.41155 l 0.24339,0.33043 c 0.071,0.0832 0.29025,0.33273 0.16521,0.21684 a 5.7629156,5.7629156 0 0 1 0.24487,0.23896 c 0.25555,0.26677 0.67705,0.62506 1.34235,1.21549 a 5.7629156,5.7629156 0 0 1 0.25077,0.23455 c 0.47229,0.47228 0.59293,0.57917 0.6815,0.64167 a 5.7629156,5.7629156 0 0 1 0.35255,0.26699 c 0.55082,0.45566 0.90956,0.74527 1.12698,0.88507 l -0.27879,-0.15784 c 0.20097,0.13443 0.25187,0.23381 0.45581,0.38205 0.25164,0.15197 0.75887,0.43728 0.48383,0.27733 a 5.7629156,5.7629156 0 0 1 0.28322,0.17553 c 0.36418,0.24089 0.70479,0.50791 1.02226,0.79804 0.30332,0.12585 0.60206,0.264 0.88949,0.4263 l -0.0988,-0.0546 c -0.11323,-0.0611 0.0584,0.009 0.48384,0.21389 l 0.0192,0.009 1.4161,0.62839 a 5.7629156,5.7629156 0 0 1 0.6284,0.326 c 0.0714,0.0429 0.34935,0.18794 0.83343,0.40566 a 5.7629156,5.7629156 0 0 1 0.16079,0.0767 c -0.49741,-0.24264 -0.19126,-0.13281 0.49416,0.14014 l 1.3394,0.41598 a 5.7629156,5.7629156 0 0 1 0.11948,0.0398 c 0.5633,0.18891 0.85378,0.30229 1.13141,0.4027 0.16168,0.0377 0.40324,0.086 0.87474,0.15046 a 5.7629156,5.7629156 0 0 1 0.44254,0.0782 l 1.52083,0.33043 a 5.7629156,5.7629156 0 0 1 0.24634,0.059 5.7629156,5.7629156 0 0 1 0.10622,0.009 c 0.65232,0.0699 1.06123,0.10768 1.23467,0.10768 a 5.7629156,5.7629156 0 0 1 0.29649,0.007 l 1.60197,0.0826 a 5.7629156,5.7629156 0 0 1 0.326,0.0265 c 0.67638,0.0735 1.88952,-0.002 3.38685,-0.16521 a 5.7629156,5.7629156 0 0 1 0.62396,-0.0339 c -0.17419,0 0.20522,-0.0492 1.1919,-0.17701 a 5.7629156,5.7629156 0 0 1 0.0782,-0.0103 c 0.22716,-0.0262 0.66556,-0.12679 1.49133,-0.30682 0.6538,-0.16713 1.25687,-0.30987 1.75833,-0.43663 0.0762,-0.0192 0.55602,-0.2171 1.6241,-0.55022 l -0.11801,0.0369 0.43221,-0.14604 c 0.48025,-0.16865 0.67272,-0.24317 0.7346,-0.27437 a 5.7629156,5.7629156 0 0 1 0.93374,-0.37467 c -0.83189,0.25009 -0.45597,0.15255 0.45434,-0.31716 a 5.7629156,5.7629156 0 0 1 0.41746,-0.19471 l 0.89244,-0.37467 a 5.7629156,5.7629156 0 0 1 0.71542,-0.40271 c 0.27102,-0.12829 0.54147,-0.22719 0.81131,-0.32305 0.21004,-0.19528 0.42812,-0.3839 0.66085,-0.56202 0.0718,-0.055 0.11633,-0.12975 0.19029,-0.18291 a 5.7629156,5.7629156 0 0 1 0.16816,-0.11653 l 0.10326,-0.0693 c 0.19459,-0.14213 0.38399,-0.26332 0.57529,-0.38206 l 0.64462,-0.48088 c 0.49962,-0.40104 1.10725,-0.93407 1.75538,-1.48544 l 0.58857,-0.58562 c 0.66958,-0.69409 1.22895,-1.25293 1.69786,-1.7834 a 5.7629156,5.7629156 0 0 1 0.21536,-0.23454 c -0.45362,0.45923 -0.34637,0.24095 0.3732,-0.50745 0.43217,-0.55715 0.87706,-1.18422 1.40284,-1.91911 0.73521,-1.07841 1.38828,-2.18063 1.97074,-3.36768 0.39393,-0.87529 0.73936,-1.57403 1.00602,-2.16398 0.13419,-0.39065 0.26829,-0.77242 0.38943,-1.13288 a 5.7629156,5.7629156 0 0 1 0.007,-0.0295 c 0.21596,-0.6319 0.38173,-1.17213 0.47646,-1.5828 a 5.7629156,5.7629156 0 0 1 0.0192,-0.0767 c 0.16654,-0.67861 0.33214,-1.31938 0.49417,-1.94125 0.0828,-0.43554 0.18469,-1.07291 0.19176,-1.10191 0.10112,-0.93189 0.19324,-1.61617 0.19324,-1.7598 a 5.7629156,5.7629156 0 0 1 0.23159,-1.60491 c 0.0396,-0.26153 0.10639,-0.51339 0.16816,-0.76706 -0.0846,-0.43204 -0.15198,-0.88163 -0.19471,-1.35858 0.005,-4e-4 0.0105,0.16243 0.0118,0.17112 0.006,0.0392 0.004,0.0168 -10e-4,-0.009 -0.009,-0.0511 -0.0221,-0.11359 -0.0221,-0.11359 a 5.7629156,5.7629156 0 0 1 -0.0959,-0.70068 c -0.0778,-1.01763 -0.16069,-1.90873 -0.26258,-2.50326 a 5.7629156,5.7629156 0 0 1 -0.0118,-0.0752 l -0.12982,-0.82311 c -0.23046,-1.0073 -0.37788,-1.73747 -0.51628,-2.14628 a 5.7629156,5.7629156 0 0 1 -0.19177,-0.70658 c -0.0458,-0.22706 -0.0218,-0.14475 -0.0974,-0.35993 a 5.7629156,5.7629156 0 0 1 -0.11654,-0.3673 c -0.14851,-0.53478 -0.40713,-1.24651 -0.69625,-2.00615 -0.0382,-0.0889 -0.1808,-0.41855 -0.3083,-0.70952 l -0.26552,-0.5163 a 5.7629156,5.7629156 0 0 1 -0.29797,-0.6992 5.7629156,5.7629156 0 0 1 -0.10915,-0.23601 c -0.0341,-0.0802 -0.28381,-0.53887 -0.68298,-1.27302 l -0.11063,-0.18144 c -0.27538,-0.43924 -0.30019,-0.48836 -0.38501,-0.60332 a 5.7629156,5.7629156 0 0 1 -0.13718,-0.19324 l -0.80246,-1.18746 0.14308,0.20209 c -0.40944,-0.55266 -0.50597,-0.74136 -0.59152,-0.88801 -0.39579,-0.4595 -0.75567,-0.88859 -1.21844,-1.39841 l -0.20209,-0.22274 a 5.7629156,5.7629156 0 0 1 -0.64314,-0.84229 c 0.23074,0.369 0.25413,0.32209 -0.0708,-0.003 -0.57399,-0.574 -0.81931,-0.81508 -1.14469,-1.06798 a 5.7629156,5.7629156 0 0 1 -0.4558,-0.39386 c -0.59193,-0.56888 -0.67339,-0.64085 -0.70068,-0.65936 a 5.7629156,5.7629156 0 0 1 -0.91604,-0.77444 c 0.0354,0.037 -0.0784,-0.0806 -0.57677,-0.3909 a 5.7629156,5.7629156 0 0 1 -0.64315,-0.46614 l -0.47203,-0.39385 0.80099,0.51776 c -0.0537,-0.0509 -0.0975,-0.0996 -0.20652,-0.17701 a 5.7629156,5.7629156 0 0 1 -0.53694,-0.31567 c -0.153,-0.10326 -0.25638,-0.2514 -0.40123,-0.36288 -0.027,-0.029 -0.23634,-0.16701 -0.24487,-0.17554 -0.0108,-0.0108 0.20885,0.14009 0.22716,0.16079 -2.48583,-1.92346 -3.79602,-4.98748 -3.32784,-8.12196 a 5.7629156,5.7629156 0 0 1 0.0354,-0.20651 c 0.63294,-3.39208 1.65852,-6.83511 3.35735,-10.11188 a 5.7629156,5.7629156 0 0 1 0.2906,-0.4971 c -0.37585,0.57542 -0.24491,0.24672 0.40123,-0.73461 a 5.7629156,5.7629156 0 0 1 0.13129,-0.19029 c 3.18894,-5.64047 7.90901,-10.20555 13.52821,-13.29515 6.33305,-3.52153 14.05119,-5.05078 22.8111,-5.05078 h 1.20811 a 5.7629156,5.7629156 0 0 1 0.09,0 c 17.26265,0.26685 32.7042,5.92419 34.28302,6.50966 3.96154,1.39273 6.42398,5.48725 5.65851,9.66934 a 5.7629156,5.7629156 0 0 1 -0.0428,0.21389 c 0.16193,-0.72698 -0.22871,1.20333 -0.66527,3.06232 -0.43656,1.85901 -1.08936,4.40584 -2.00762,7.37998 -1.83652,5.94827 -4.71418,13.61318 -9.15306,20.99965 a 5.7629156,5.7629156 0 0 1 -0.003,0.003 c -3.46064,5.74715 -7.43894,10.58683 -11.93069,14.34101 4.78446,4.09732 8.8584,9.66071 12.28619,16.45337 l 0.004,0.0103 c 3.88837,7.59058 6.42599,15.47935 8.04967,21.61182 0.8122,3.06754 1.39108,5.69364 1.77603,7.61599 0.37015,1.84838 0.49302,2.51647 0.60627,3.38833 0.61434,4.03432 -1.80424,8.16273 -5.66441,9.56018 a 5.7629156,5.7629156 0 0 1 -0.50745,0.15783 c 0.56266,-0.1467 -0.16691,0.0535 -0.68592,0.20652 -0.51902,0.15305 -1.24434,0.36094 -2.14038,0.60332 -1.7921,0.48475 -4.27388,1.10533 -7.25016,1.70522 -5.95258,1.19978 -13.87538,2.33221 -22.32431,2.07696 a 5.7629156,5.7629156 0 0 1 -0.028,0 c -7.26328,-0.25508 -13.88477,-1.51739 -19.6868,-3.91199 -1.35149,6.15204 -4.20912,12.49306 -8.32847,19.0171 a 5.7629156,5.7629156 0 0 1 -0.0177,0.0295 c -4.23969,6.62534 -9.09076,12.33921 -12.97064,16.50352 -1.93994,2.08215 -3.63804,3.77477 -4.89737,4.98587 -1.17285,1.12795 -1.54317,1.4836 -2.23478,2.0622 -1.60109,1.43414 -3.5668,2.14283 -5.53609,2.18316 z M 256.81434,297.61343 c -0.0895,0.0708 -0.15396,0.17065 -0.24635,0.23749 a 5.7629156,5.7629156 0 0 1 -0.23601,0.16226 l -0.24487,0.16079 z m 15.3485,107.08702 c 3.50107,-3.70434 7.68572,-8.42445 11.3495,-14.20235 a 5.7629156,5.7629156 0 0 1 0.007,-0.0162 c 4.59499,-7.19819 6.54211,-13.2383 6.54211,-17.55674 0,-3.15061 -0.84164,-6.13242 -2.3292,-8.77396 a 5.7629156,5.7629156 0 0 1 -0.0516,0.0177 l -0.42187,0.12539 c -0.67614,0.23035 -1.3636,0.46648 -2.00615,0.68592 a 5.7629156,5.7629156 0 0 1 -0.15637,0.0501 c -1.04252,0.3234 -1.99669,0.54056 -2.88531,0.71985 a 5.7629156,5.7629156 0 0 1 -0.10621,0.0192 c -0.70506,0.12843 -1.4606,0.28532 -2.26872,0.44843 l -0.009,0.001 c -1.08969,0.22372 -2.01452,0.32747 -2.73485,0.41008 a 5.7629156,5.7629156 0 0 1 -0.26552,0.0236 c -1.07254,0.0731 -2.68484,0.2375 -4.57726,0.2375 -0.48325,0 -1.20729,0.005 -2.10203,-0.0959 l -1.18599,-0.0516 a 5.7629156,5.7629156 0 0 1 -0.34075,-0.0265 c -0.39193,-0.0405 -1.21523,-0.0464 -2.40148,-0.25076 -1.309,-0.083 -2.0002,-0.35439 -1.7834,-0.31273 l -1.30401,-0.23897 a 5.7629156,5.7629156 0 0 1 -0.118,-0.0206 c -0.78911,-0.16093 -1.54349,-0.33028 -2.28052,-0.49564 a 5.7629156,5.7629156 0 0 1 -0.38353,-0.1003 c -0.38049,-0.11325 -1.1823,-0.29749 -2.25397,-0.72428 l 0.16522,0.0634 -1.29515,-0.47204 0.26257,0.0856 c -0.0369,-0.011 -0.2129,-0.0838 -0.25962,-0.0959 -0.002,0.003 -0.002,0.007 -0.004,0.0103 -1.50873,2.62612 -2.33806,5.57461 -2.33805,8.76068 0,4.68703 1.63849,10.26582 5.41807,16.59497 a 5.7629156,5.7629156 0 0 1 0.0192,0.0295 c 3.73179,6.33506 8.32221,11.34395 12.09884,15.15084 z m 57.35667,-37.35272 c 6.23623,-0.0588 11.83833,-1.08154 16.33832,-2.08137 -1.34556,-5.53435 -3.36714,-12.68157 -6.9168,-19.51274 a 5.7629156,5.7629156 0 0 1 -0.0457,-0.0885 c -3.18572,-6.39707 -6.7382,-10.46684 -10.09712,-12.60333 a 5.7629156,5.7629156 0 0 1 -0.0708,-0.0472 c -2.85298,-1.8746 -6.04778,-2.82483 -9.4348,-2.82483 -0.851,0 -1.63613,0.28093 -2.45458,0.39681 -0.0264,0.11038 -0.0208,0.13169 -0.0516,0.25076 l 0.0516,-0.21832 c -0.15169,0.69589 -0.31893,1.50986 -0.50449,2.31888 a 5.7629156,5.7629156 0 0 1 -0.0324,0.13276 c -0.33147,1.30059 -0.70696,2.2803 -0.87179,2.8204 a 5.7629156,5.7629156 0 0 1 -0.18291,0.51334 c -0.11992,0.29107 -0.32216,0.85085 -0.62397,1.55477 -0.39994,1.07092 -0.84435,2.23597 -1.45889,3.46503 a 5.7629156,5.7629156 0 0 1 -0.0472,0.0959 c -0.90539,1.73007 -1.8929,3.54824 -3.15083,5.37973 -0.72344,1.09525 -1.48481,2.07871 -2.21414,2.97972 -0.22485,0.31347 -0.6259,0.89537 -1.34383,1.55181 -0.68523,0.80925 -1.41463,1.64033 -2.26428,2.48998 a 5.7629156,5.7629156 0 0 1 -0.6225,0.52957 c -0.11244,0.11723 -0.16792,0.17758 -0.33338,0.3437 a 5.7629156,5.7629156 0 0 1 -0.22127,0.20799 c 1.38366,3.26271 3.65318,6.00645 6.6793,7.92871 a 5.7629156,5.7629156 0 0 1 0.0177,0.0118 c 3.98476,2.55291 9.64809,4.15835 17.09504,4.36632 a 5.7629156,5.7629156 0 0 1 0.0516,0.001 c 0.9154,0.0338 1.81889,0.0453 2.70977,0.0369 z m -110.53287,-1.31431 h 0.94997 c 6.37893,0 11.32104,-1.16148 14.40739,-2.88237 a 5.7629156,5.7629156 0 0 1 0.0177,-0.0103 c 3.3588,-1.85724 5.91805,-4.65768 7.4906,-8.0187 0.002,-0.004 0.004,-0.009 0.006,-0.0133 -0.98507,-0.79284 -1.77582,-1.56874 -2.27757,-2.06958 a 5.7629156,5.7629156 0 0 1 -0.3614,-0.39681 c -0.19937,-0.24013 -0.59274,-0.63006 -1.21106,-1.3748 a 5.7629156,5.7629156 0 0 1 -0.009,-0.007 l -0.38943,-0.47204 c -0.45398,-0.53031 -0.98144,-1.13571 -1.46478,-1.70375 a 5.7629156,5.7629156 0 0 1 -0.41156,-0.54431 c -0.21788,-0.32784 -0.52153,-0.77213 -0.86736,-1.3512 l -0.25962,-0.37026 a 5.7629156,5.7629156 0 0 1 -0.007,-0.0118 c -1.52778,-2.18493 -2.78425,-4.4694 -3.79103,-6.64979 a 5.7629156,5.7629156 0 0 1 -0.059,-0.13129 c -0.34096,-0.79 -0.522,-1.31617 -0.67855,-1.69784 l 0.1003,0.22864 c -0.58323,-1.26271 -0.96543,-2.43064 -1.29367,-3.45028 -0.36791,-1.12833 -0.46752,-1.68058 -0.3673,-1.39398 a 5.7629156,5.7629156 0 0 1 -0.0915,-0.28027 c -0.34442,-1.17329 -0.61859,-2.3462 -0.82606,-3.50781 -3.47976,-0.31915 -7.14805,0.40513 -10.25643,2.1153 a 5.7629156,5.7629156 0 0 1 -0.0413,0.0236 c -4.03127,2.17386 -8.1036,6.21841 -11.82448,12.39535 -3.84773,6.41894 -6.06577,13.02719 -7.58206,18.26332 5.64529,1.47084 13.1644,3.13933 21.09849,3.31015 z m 56.79169,-5.23664 0.62398,-0.0325 c -0.10712,0.0117 -0.29872,-4.8e-4 -0.41008,0.0118 -0.11166,0.003 -0.0946,0.0207 -0.2139,0.0207 z m 2.59178,-0.26257 0.0811,-0.0103 c -0.007,8.8e-4 -0.056,0.005 -0.0634,0.006 -0.008,9.4e-4 -0.01,0.003 -0.0177,0.004 z m -34.47036,-11.4498 c -0.0469,-0.0435 -0.0294,-0.0418 -0.0738,-0.0841 -0.0691,-0.0698 -0.0988,-0.081 -0.16964,-0.15488 z m 105.311,-8.5571 -0.0428,-0.0885 c 0.0101,0.0188 0.0153,0.0372 0.0251,0.0561 0.006,0.0112 0.0121,0.0214 0.0177,0.0325 z M 234.60952,333.7064 c -0.0183,-0.0457 -0.004,-0.0225 -0.0207,-0.0664 -0.0471,-0.14197 -0.0863,-0.21615 -0.13276,-0.36582 z m 83.71539,-21.07341 c 3.10483,0.0659 6.22884,-0.65601 8.93917,-2.14038 4.09035,-2.27337 8.15235,-6.33295 11.84807,-12.50008 a 5.7629156,5.7629156 0 0 1 0.0147,-0.0251 c 3.84984,-6.34694 6.06885,-12.9411 7.58796,-18.17186 -5.65729,-1.49071 -13.1574,-3.17904 -20.9731,-3.2954 h -1.0724 c -6.39657,0 -11.3182,1.15643 -14.43837,2.88679 a 5.7629156,5.7629156 0 0 1 -0.0575,0.031 c -2.82155,1.52328 -5.27418,3.96635 -6.93596,6.89908 a 5.7629156,5.7629156 0 0 1 -0.0118,0.0221 l -0.26551,0.46318 c -0.10401,0.21184 -0.13042,0.41677 -0.22422,0.62545 0.15343,0.14339 0.2889,0.2299 0.444,0.385 a 5.7629156,5.7629156 0 0 1 0.0634,0.0649 c 0.38503,0.39722 0.97859,0.89451 1.78488,1.7008 a 5.7629156,5.7629156 0 0 1 0.10326,0.10473 c 0.39182,0.41212 0.76925,0.87011 1.14763,1.3276 l 0.24192,0.23011 a 5.7629156,5.7629156 0 0 1 0.711,0.81574 c 0.0689,0.096 0.60844,0.65525 1.37038,1.65802 0.53547,0.68052 0.71148,1.05056 0.91899,1.43381 l 0.65642,0.86737 a 5.7629156,5.7629156 0 0 1 0.19472,0.27437 c 0.0921,0.13734 0.53282,0.85121 0.91309,1.48395 0.0139,0.0591 0.28174,0.36004 0.31862,0.42336 0.12223,0.20978 0.21242,0.3791 0.21242,0.3791 a 5.7629156,5.7629156 0 0 1 0.12391,0.26847 c 0.36318,0.58841 0.82856,1.31262 1.30547,2.35133 0.41826,0.90642 0.48404,1.13877 0.29944,0.77295 a 5.7629156,5.7629156 0 0 1 0.15637,0.34223 l 0.16522,0.38943 a 5.7629156,5.7629156 0 0 1 0.0679,0.16374 c 0.0282,0.0725 0.2504,0.53853 0.52661,1.23466 0.40306,1.00176 0.85212,2.10944 1.26122,3.40898 0.2448,0.72614 0.35442,1.17505 0.3732,1.22877 a 5.7629156,5.7629156 0 0 1 0.19472,0.6933 c 0.13416,0.62509 0.41987,1.82273 0.65052,3.1169 0.0186,0.002 0.0374,0.008 0.0561,0.0103 0.44153,0.0417 0.88405,0.0658 1.32759,0.0752 z m -92.68701,-0.37173 c 0.48931,-0.007 0.97779,-0.035 1.46331,-0.0826 v 0.001 c 0.21306,-0.0209 0.41217,-0.10553 0.62397,-0.13423 0.0311,-0.14652 0.0153,-0.11087 0.0531,-0.27585 0.1663,-0.74007 0.31605,-1.40587 0.4322,-1.99582 a 5.7629156,5.7629156 0 0 1 0.10621,-0.44696 c 0.28977,-1.03117 0.61479,-1.88328 0.90867,-2.65815 0.15245,-0.50911 0.34888,-1.36435 0.96472,-2.56669 0.41625,-1.03026 0.85344,-2.01325 1.26564,-2.84253 0.96504,-2.12322 2.11154,-4.0189 3.32195,-5.71015 0.73079,-1.09551 1.50317,-2.13958 2.3233,-3.18918 a 5.7629156,5.7629156 0 0 1 0.46613,-0.52809 c 0.2437,-0.2437 0.29217,-0.43609 -0.16079,0.28027 a 5.7629156,5.7629156 0 0 1 0.44549,-0.61365 c 0.91772,-1.09902 1.88463,-2.0786 2.84991,-2.95317 l -0.0649,0.0797 c 0.33414,-0.34635 0.68505,-0.63131 1.04733,-0.9249 -0.0139,-0.0336 -0.0198,-0.0712 -0.0339,-0.10473 -1.36416,-3.25482 -3.68536,-6.0727 -6.71027,-7.99509 a 5.7629156,5.7629156 0 0 1 -0.0516,-0.0324 c -3.84173,-2.50035 -9.6183,-4.13665 -17.05078,-4.42238 h -2.0032 c -6.57057,0 -12.41237,1.05306 -17.14077,2.09465 1.38199,5.55882 3.40245,12.66086 6.95661,19.55701 a 5.7629156,5.7629156 0 0 1 0.0295,0.056 c 3.203,6.38771 6.83493,10.51349 10.13842,12.62547 a 5.7629156,5.7629156 0 0 1 0.0398,0.0236 c 2.88354,1.87533 6.35483,2.80935 9.77997,2.75845 z m 84.96482,-1.22434 -0.19029,-0.70805 c 0.0312,0.0921 0.0243,0.12278 0.0531,0.21241 0.0398,0.16534 0.10602,0.34132 0.13719,0.49564 z m -0.40713,-1.52969 -0.11654,-0.36877 c 0.0162,0.0462 0.0239,0.0974 0.0398,0.14455 0.0252,0.0867 0.052,0.13562 0.0767,0.22422 z m -2.17727,-5.59656 -0.14751,-0.3201 c -0.001,-0.003 0.0477,0.1268 0.0516,0.13424 0.0358,0.0802 0.0597,0.10078 0.0959,0.18586 z m -112.6113,-1.83503 c -0.004,-0.008 -0.006,-0.0159 -0.0103,-0.0236 -0.006,-0.012 -0.0147,-0.0205 -0.0207,-0.0325 z m 116.9378,-2.01796 c -0.098,-0.49825 -0.19905,-0.81469 -0.28469,-0.94997 a 5.7629156,5.7629156 0 0 1 0.28469,0.94997 z m -57.08083,-1.28186 0.21684,-0.13129 c 0.0121,-0.011 0.0181,-0.0152 0.0325,-0.028 -0.0655,0.0451 -0.0836,0.0677 -0.2493,0.15932 z m 43.83287,-6.7147 -0.4558,-0.39533 c 0.0502,0.0391 0.0692,0.0674 0.118,0.10621 0.0748,0.0737 0.27792,0.23157 0.3378,0.28912 z m -1.29219,-1.10929 -0.2139,-0.18143 c 0.0345,0.0314 0.0565,0.0568 0.0974,0.0915 0.0407,0.0411 0.0759,0.0477 0.11654,0.09 z m -57.26374,-2.25838 0.22422,-0.22422 -0.0457,0.0561 z m 3.58747,-3.18329 c 0.1984,-0.15838 0.30422,-0.27253 0.51923,-0.43663 a 5.7629156,5.7629156 0 0 1 1.75243,-0.90278 c -0.003,-0.007 -0.007,-0.0141 -0.0103,-0.0206 -1.47084,0.37333 -1.98783,0.90513 -2.26134,1.36005 z m -2.95465,-15.60076 -0.0531,-0.0369 c 0.0101,0.006 0.0182,0.0158 0.028,0.0221 0.008,0.005 0.017,0.009 0.0251,0.0148 z m 63.46805,-0.60037 c 0.008,-0.004 0.0169,-0.007 0.0251,-0.0118 0.011,-0.006 0.0201,-0.0133 0.031,-0.0192 z"
       id="path24"
       inkscape:connector-curvature="0" /></g></svg>