<svg width="32" height="32" version="1.1" viewBox="0 0 32 32" xmlns="http://www.w3.org/2000/svg"><title>Slice</title><desc>Created with Sketch.</desc><path d="m15.975 1c-8.2326 0-14.975 6.6926-14.975 15.039 0 8.3465 6.742 14.961 14.975 14.961 3.4498 0 6.5867-1.1805 9.0957-3.0703l-3.8418-3.8594c-1.4897 0.94488-3.2938 1.4961-5.2539 1.4961-5.2532 0-9.5645-4.3299-9.5645-9.6055 0-5.2756 4.3113-9.6074 9.5645-9.6074 1.9601 0 3.6861 0.55255 5.1758 1.5762l3.8418-3.8594c-2.509-1.8898-5.6461-3.0703-9.0176-3.0703zm11.914 5.9062-3.8418 3.8574c0.94087 1.4961 1.4902 3.2288 1.4902 5.1973 0 1.8898-0.54937 3.7012-1.4902 5.1973l3.8418 3.8574c1.8817-2.5197 3.0586-5.6689 3.0586-9.0547s-1.1769-6.535-3.0586-9.0547z" fill="#fff" fill-rule="evenodd"/></svg>
