<svg width="250" height="250" version="1.1" viewBox="0 0 250 250" xml:space="preserve" xmlns="http://www.w3.org/2000/svg"><g transform="matrix(1.3333 0 0 -1.3333 -238.06 580.56)"><path d="m272.56 425.56c-1.9797 0.0406-3.9594-0.58933-5.5656-1.8159a5.7629 5.7629 0 0 1-0.29502-0.24044c0.45182 0.39498-0.94634-0.78466-2.3366-2.0416-1.3902-1.2569-3.269-3.0251-5.3974-5.2234-4.2569-4.3966-9.5202-10.496-13.86-17.779a5.7629 5.7629 0 0 1-4e-3 -9e-3c-3.5717-6.011-5.9738-12.019-7.1026-17.923-5.3156 1.9831-11.378 2.8765-18.058 2.8765h-1.1285a5.7629 5.7629 0 0 1-0.12096-1e-3c-8.6427-0.17817-16.962-1.7452-23.28-3.2821-3.1592-0.76849-5.8136-1.5328-7.7384-2.1271-1.846-0.56996-2.6045-0.82836-3.316-1.0975-3.9645-1.3945-6.3353-5.561-5.7028-9.6059a5.7629 5.7629 0 0 1 0.11505-0.5635c-0.19238 0.73605 0.0185-0.1114 0.13276-0.64757 0.11518-0.5405 0.28166-1.2955 0.50154-2.223 0.43975-1.855 1.096-4.4007 2.0194-7.3755 1.8448-5.9429 4.7386-13.603 9.2047-20.985 3.4107-5.7329 7.3539-10.575 11.836-14.309-4.7611-4.1047-8.7778-9.656-12.263-16.399a5.7629 5.7629 0 0 1-0.0118-0.0251c-3.8773-7.5919-6.4093-15.481-8.0305-21.624-0.8106-3.0713-1.3898-5.7036-1.7746-7.6366-0.35116-1.764-0.46186-2.3574-0.57972-3.3042-0.7229-4.1498 1.7977-8.2384 5.6541-9.6192a5.7629 5.7629 0 0 1 0.29945-0.0988c-0.4604 0.13704 1.0716-0.34408 2.7098-0.79803 1.6382-0.45396 3.9096-1.0377 6.6454-1.6152 5.4714-1.1551 12.798-2.2982 20.725-2.2982 0.75423 0 1.6807 5e-3 2.7098 0.0767 9.9739 0.28398 18.765 2.6502 25.81 7.1513a5.7629 5.7629 0 0 1 0.0147 9e-3c8.5105 5.471 14.293 14.402 15.719 24.552 0.43531 3.0629-0.92946 6.1999-3.2733 8.0526-6e-3 6e-3 -0.59277 0.42402-0.9249 0.69478 0.0668-0.0634-0.0576 0.0574 0.0531-0.0561a5.7629 5.7629 0 0 1-0.0782 0.0738c-0.15814 0.12635-0.18989 0.17772-0.34075 0.28322-0.0116 0.0106-0.025 0.0221-0.0325 0.0295l0.10916-0.0679a5.7629 5.7629 0 0 1-0.33633 0.26847c-0.059 0.0498-0.027 0.0319-0.10768 0.0959-0.12658 0.1002-0.39661 0.29782-0.61807 0.47352-0.35403 0.2892-0.73212 0.59285-1.1447 0.92047l-0.40418 0.45286a5.7629 5.7629 0 0 1-0.40713 0.41155c-0.41719 0.38042-0.93267 0.94779-1.6152 1.6964-8e-3 9e-3 -0.011 0.0117-0.0192 0.0206l-0.43959 0.49565c-0.50435 0.63563-0.98017 1.292-1.4662 2.0002v1e-3c-0.72787 1.0617-1.3783 2.1673-1.9737 3.3677-0.40215 0.86591-0.67939 1.453-0.86146 1.9796a5.7629 5.7629 0 0 1-0.39828 0.89982c0.0675-0.12243-0.0684 0.19372-0.16522 0.42779-0.19278 0.56599-0.36535 1.1696-0.42483 1.4633a5.7629 5.7629 0 0 1-0.0634 0.26995c-0.14828 0.5859-0.29551 1.1665-0.44696 1.7539-0.097 0.55903-0.19985 1.0873-0.21831 1.2361-0.11137 1.0463-0.20357 1.6897-0.20357 1.689a5.7629 5.7629 0 0 1-0.0502 0.74198l-0.0826 0.63725 0.0339-0.32157c-0.0447 0.61103-0.15706 1.2094-0.32747 1.7864 0.0311 0.17412 0.0756 0.3426 0.0974 0.52071 0.18823 0.84488 0.24635 1.5378 0.24635 1.6816l-0.0221-0.48974c0.0821 0.96243 0.16387 1.7613 0.25372 2.2407a5.7629 5.7629 0 0 1 0.0251 0.15341c0.078 0.48918 0.12969 0.79381 0.18586 1.0754a5.7629 5.7629 0 0 1 0.0133 0.0649c0.16534 0.88217 0.30155 1.5443 0.42483 1.9501l-7e-3 -0.0206c0.29124 0.94651 0.39522 1.3207 0.23159 0.91162a5.7629 5.7629 0 0 1 0.15341 0.43221c0.14592 0.47036 0.42412 1.1677 0.75969 2.043a5.7629 5.7629 0 0 1 0.0797 0.22864c0.0878 0.26121 0.14518 0.39828 0.33043 0.80394l4e-3 9e-3c0.58411 1.2623 1.4031 2.708 2.3779 4.1834a5.7629 5.7629 0 0 1 0.0929 0.1431l0.24339 0.39385a5.7629 5.7629 0 0 1 0.0295 0.0472c0.11074 0.18275 0.17937 0.278 0.40123 0.57382a5.7629 5.7629 0 0 1 0.0177 0.0236c0.12864 0.17332 0.49384 0.57877 1.1934 1.3645a5.7629 5.7629 0 0 1 0.33485 0.41155l0.24339 0.33043c0.071 0.0832 0.29025 0.33273 0.16521 0.21684a5.7629 5.7629 0 0 1 0.24487 0.23896c0.25555 0.26677 0.67705 0.62506 1.3424 1.2155a5.7629 5.7629 0 0 1 0.25077 0.23455c0.47229 0.47228 0.59293 0.57917 0.6815 0.64167a5.7629 5.7629 0 0 1 0.35255 0.26699c0.55082 0.45566 0.90956 0.74527 1.127 0.88507l-0.27879-0.15784c0.20097 0.13443 0.25187 0.23381 0.45581 0.38205 0.25164 0.15197 0.75887 0.43728 0.48383 0.27733a5.7629 5.7629 0 0 1 0.28322 0.17553c0.36418 0.24089 0.70479 0.50791 1.0223 0.79804 0.30332 0.12585 0.60206 0.264 0.88949 0.4263l-0.0988-0.0546c-0.11323-0.0611 0.0584 9e-3 0.48384 0.21389l0.0192 9e-3 1.4161 0.62839a5.7629 5.7629 0 0 1 0.6284 0.326c0.0714 0.0429 0.34935 0.18794 0.83343 0.40566a5.7629 5.7629 0 0 1 0.16079 0.0767c-0.49741-0.24264-0.19126-0.13281 0.49416 0.14014l1.3394 0.41598a5.7629 5.7629 0 0 1 0.11948 0.0398c0.5633 0.18891 0.85378 0.30229 1.1314 0.4027 0.16168 0.0377 0.40324 0.086 0.87474 0.15046a5.7629 5.7629 0 0 1 0.44254 0.0782l1.5208 0.33043a5.7629 5.7629 0 0 1 0.24634 0.059 5.7629 5.7629 0 0 1 0.10622 9e-3c0.65232 0.0699 1.0612 0.10768 1.2347 0.10768a5.7629 5.7629 0 0 1 0.29649 7e-3l1.602 0.0826a5.7629 5.7629 0 0 1 0.326 0.0265c0.67638 0.0735 1.8895-2e-3 3.3868-0.16521a5.7629 5.7629 0 0 1 0.62396-0.0339c-0.17419 0 0.20522-0.0492 1.1919-0.17701a5.7629 5.7629 0 0 1 0.0782-0.0103c0.22716-0.0262 0.66556-0.12679 1.4913-0.30682 0.6538-0.16713 1.2569-0.30987 1.7583-0.43663 0.0762-0.0192 0.55602-0.2171 1.6241-0.55022l-0.11801 0.0369 0.43221-0.14604c0.48025-0.16865 0.67272-0.24317 0.7346-0.27437a5.7629 5.7629 0 0 1 0.93374-0.37467c-0.83189 0.25009-0.45597 0.15255 0.45434-0.31716a5.7629 5.7629 0 0 1 0.41746-0.19471l0.89244-0.37467a5.7629 5.7629 0 0 1 0.71542-0.40271c0.27102-0.12829 0.54147-0.22719 0.81131-0.32305 0.21004-0.19528 0.42812-0.3839 0.66085-0.56202 0.0718-0.055 0.11633-0.12975 0.19029-0.18291a5.7629 5.7629 0 0 1 0.16816-0.11653l0.10326-0.0693c0.19459-0.14213 0.38399-0.26332 0.57529-0.38206l0.64462-0.48088c0.49962-0.40104 1.1072-0.93407 1.7554-1.4854l0.58857-0.58562c0.66958-0.69409 1.229-1.2529 1.6979-1.7834a5.7629 5.7629 0 0 1 0.21536-0.23454c-0.45362 0.45923-0.34637 0.24095 0.3732-0.50745 0.43217-0.55715 0.87706-1.1842 1.4028-1.9191 0.73521-1.0784 1.3883-2.1806 1.9707-3.3677 0.39393-0.87529 0.73936-1.574 1.006-2.164 0.13419-0.39065 0.26829-0.77242 0.38943-1.1329a5.7629 5.7629 0 0 1 7e-3 -0.0295c0.21596-0.6319 0.38173-1.1721 0.47646-1.5828a5.7629 5.7629 0 0 1 0.0192-0.0767c0.16654-0.67861 0.33214-1.3194 0.49417-1.9412 0.0828-0.43554 0.18469-1.0729 0.19176-1.1019 0.10112-0.93189 0.19324-1.6162 0.19324-1.7598a5.7629 5.7629 0 0 1 0.23159-1.6049c0.0396-0.26153 0.10639-0.51339 0.16816-0.76706-0.0846-0.43204-0.15198-0.88163-0.19471-1.3586 5e-3 -4e-4 0.0105 0.16243 0.0118 0.17112 6e-3 0.0392 4e-3 0.0168-1e-3 -9e-3 -9e-3 -0.0511-0.0221-0.11359-0.0221-0.11359a5.7629 5.7629 0 0 1-0.0959-0.70068c-0.0778-1.0176-0.16069-1.9087-0.26258-2.5033a5.7629 5.7629 0 0 1-0.0118-0.0752l-0.12982-0.82311c-0.23046-1.0073-0.37788-1.7375-0.51628-2.1463a5.7629 5.7629 0 0 1-0.19177-0.70658c-0.0458-0.22706-0.0218-0.14475-0.0974-0.35993a5.7629 5.7629 0 0 1-0.11654-0.3673c-0.14851-0.53478-0.40713-1.2465-0.69625-2.0062-0.0382-0.0889-0.1808-0.41855-0.3083-0.70952l-0.26552-0.5163a5.7629 5.7629 0 0 1-0.29797-0.6992 5.7629 5.7629 0 0 1-0.10915-0.23601c-0.0341-0.0802-0.28381-0.53887-0.68298-1.273l-0.11063-0.18144c-0.27538-0.43924-0.30019-0.48836-0.38501-0.60332a5.7629 5.7629 0 0 1-0.13718-0.19324l-0.80246-1.1875 0.14308 0.20209c-0.40944-0.55266-0.50597-0.74136-0.59152-0.88801-0.39579-0.4595-0.75567-0.88859-1.2184-1.3984l-0.20209-0.22274a5.7629 5.7629 0 0 1-0.64314-0.84229c0.23074 0.369 0.25413 0.32209-0.0708-3e-3 -0.57399-0.574-0.81931-0.81508-1.1447-1.068a5.7629 5.7629 0 0 1-0.4558-0.39386c-0.59193-0.56888-0.67339-0.64085-0.70068-0.65936a5.7629 5.7629 0 0 1-0.91604-0.77444c0.0354 0.037-0.0784-0.0806-0.57677-0.3909a5.7629 5.7629 0 0 1-0.64315-0.46614l-0.47203-0.39385 0.80099 0.51776c-0.0537-0.0509-0.0975-0.0996-0.20652-0.17701a5.7629 5.7629 0 0 1-0.53694-0.31567c-0.153-0.10326-0.25638-0.2514-0.40123-0.36288-0.027-0.029-0.23634-0.16701-0.24487-0.17554-0.0108-0.0108 0.20885 0.14009 0.22716 0.16079-2.4858-1.9235-3.796-4.9875-3.3278-8.122a5.7629 5.7629 0 0 1 0.0354-0.20651c0.63294-3.3921 1.6585-6.8351 3.3574-10.112a5.7629 5.7629 0 0 1 0.2906-0.4971c-0.37585 0.57542-0.24491 0.24672 0.40123-0.73461a5.7629 5.7629 0 0 1 0.13129-0.19029c3.1889-5.6405 7.909-10.206 13.528-13.295 6.333-3.5215 14.051-5.0508 22.811-5.0508h1.2081a5.7629 5.7629 0 0 1 0.09 0c17.263 0.26685 32.704 5.9242 34.283 6.5097 3.9615 1.3927 6.424 5.4872 5.6585 9.6693a5.7629 5.7629 0 0 1-0.0428 0.21389c0.16193-0.72698-0.22871 1.2033-0.66527 3.0623s-1.0894 4.4058-2.0076 7.38c-1.8365 5.9483-4.7142 13.613-9.1531 21a5.7629 5.7629 0 0 1-3e-3 3e-3c-3.4606 5.7472-7.4389 10.587-11.931 14.341 4.7845 4.0973 8.8584 9.6607 12.286 16.453l4e-3 0.0103c3.8884 7.5906 6.426 15.479 8.0497 21.612 0.8122 3.0675 1.3911 5.6936 1.776 7.616 0.37015 1.8484 0.49302 2.5165 0.60627 3.3883 0.61434 4.0343-1.8042 8.1627-5.6644 9.5602a5.7629 5.7629 0 0 1-0.50745 0.15783c0.56266-0.1467-0.16691 0.0535-0.68592 0.20652-0.51902 0.15305-1.2443 0.36094-2.1404 0.60332-1.7921 0.48475-4.2739 1.1053-7.2502 1.7052-5.9526 1.1998-13.875 2.3322-22.324 2.077a5.7629 5.7629 0 0 1-0.028 0c-7.2633-0.25508-13.885-1.5174-19.687-3.912-1.3515 6.152-4.2091 12.493-8.3285 19.017a5.7629 5.7629 0 0 1-0.0177 0.0295c-4.2397 6.6253-9.0908 12.339-12.971 16.504-1.9399 2.0822-3.638 3.7748-4.8974 4.9859-1.1728 1.128-1.5432 1.4836-2.2348 2.0622-1.6011 1.4341-3.5668 2.1428-5.5361 2.1832zm-15.75-127.95c-0.0895 0.0708-0.15396 0.17065-0.24635 0.23749a5.7629 5.7629 0 0 1-0.23601 0.16226l-0.24487 0.16079zm15.348 107.09c3.5011-3.7043 7.6857-8.4244 11.35-14.202a5.7629 5.7629 0 0 1 7e-3 -0.0162c4.595-7.1982 6.5421-13.238 6.5421-17.557 0-3.1506-0.84164-6.1324-2.3292-8.774a5.7629 5.7629 0 0 1-0.0516 0.0177l-0.42187 0.12539c-0.67614 0.23035-1.3636 0.46648-2.0062 0.68592a5.7629 5.7629 0 0 1-0.15637 0.0501c-1.0425 0.3234-1.9967 0.54056-2.8853 0.71985a5.7629 5.7629 0 0 1-0.10621 0.0192c-0.70506 0.12843-1.4606 0.28532-2.2687 0.44843l-9e-3 1e-3c-1.0897 0.22372-2.0145 0.32747-2.7348 0.41008a5.7629 5.7629 0 0 1-0.26552 0.0236c-1.0725 0.0731-2.6848 0.2375-4.5773 0.2375-0.48325 0-1.2073 5e-3 -2.102-0.0959l-1.186-0.0516a5.7629 5.7629 0 0 1-0.34075-0.0265c-0.39193-0.0405-1.2152-0.0464-2.4015-0.25076-1.309-0.083-2.0002-0.35439-1.7834-0.31273l-1.304-0.23897a5.7629 5.7629 0 0 1-0.118-0.0206c-0.78911-0.16093-1.5435-0.33028-2.2805-0.49564a5.7629 5.7629 0 0 1-0.38353-0.1003c-0.38049-0.11325-1.1823-0.29749-2.254-0.72428l0.16522 0.0634-1.2952-0.47204 0.26257 0.0856c-0.0369-0.011-0.2129-0.0838-0.25962-0.0959-2e-3 3e-3 -2e-3 7e-3 -4e-3 0.0103-1.5087 2.6261-2.3381 5.5746-2.338 8.7607 0 4.687 1.6385 10.266 5.4181 16.595a5.7629 5.7629 0 0 1 0.0192 0.0295c3.7318 6.3351 8.3222 11.344 12.099 15.151zm57.357-37.353c6.2362-0.0588 11.838-1.0815 16.338-2.0814-1.3456-5.5344-3.3671-12.682-6.9168-19.513a5.7629 5.7629 0 0 1-0.0457-0.0885c-3.1857-6.3971-6.7382-10.467-10.097-12.603a5.7629 5.7629 0 0 1-0.0708-0.0472c-2.853-1.8746-6.0478-2.8248-9.4348-2.8248-0.851 0-1.6361 0.28093-2.4546 0.39681-0.0264 0.11038-0.0208 0.13169-0.0516 0.25076l0.0516-0.21832c-0.15169 0.69589-0.31893 1.5099-0.50449 2.3189a5.7629 5.7629 0 0 1-0.0324 0.13276c-0.33147 1.3006-0.70696 2.2803-0.87179 2.8204a5.7629 5.7629 0 0 1-0.18291 0.51334c-0.11992 0.29107-0.32216 0.85085-0.62397 1.5548-0.39994 1.0709-0.84435 2.236-1.4589 3.465a5.7629 5.7629 0 0 1-0.0472 0.0959c-0.90539 1.7301-1.8929 3.5482-3.1508 5.3797-0.72344 1.0952-1.4848 2.0787-2.2141 2.9797-0.22485 0.31347-0.6259 0.89537-1.3438 1.5518-0.68523 0.80925-1.4146 1.6403-2.2643 2.49a5.7629 5.7629 0 0 1-0.6225 0.52957c-0.11244 0.11723-0.16792 0.17758-0.33338 0.3437a5.7629 5.7629 0 0 1-0.22127 0.20799c1.3837 3.2627 3.6532 6.0064 6.6793 7.9287a5.7629 5.7629 0 0 1 0.0177 0.0118c3.9848 2.5529 9.6481 4.1584 17.095 4.3663a5.7629 5.7629 0 0 1 0.0516 1e-3c0.9154 0.0338 1.8189 0.0453 2.7098 0.0369zm-110.53-1.3143h0.94997c6.3789 0 11.321-1.1615 14.407-2.8824a5.7629 5.7629 0 0 1 0.0177-0.0103c3.3588-1.8572 5.918-4.6577 7.4906-8.0187 2e-3 -4e-3 4e-3 -9e-3 6e-3 -0.0133-0.98507-0.79284-1.7758-1.5687-2.2776-2.0696a5.7629 5.7629 0 0 1-0.3614-0.39681c-0.19937-0.24013-0.59274-0.63006-1.2111-1.3748a5.7629 5.7629 0 0 1-9e-3 -7e-3l-0.38943-0.47204c-0.45398-0.53031-0.98144-1.1357-1.4648-1.7038a5.7629 5.7629 0 0 1-0.41156-0.54431c-0.21788-0.32784-0.52153-0.77213-0.86736-1.3512l-0.25962-0.37026a5.7629 5.7629 0 0 1-7e-3 -0.0118c-1.5278-2.1849-2.7842-4.4694-3.791-6.6498a5.7629 5.7629 0 0 1-0.059-0.13129c-0.34096-0.79-0.522-1.3162-0.67855-1.6978l0.1003 0.22864c-0.58323-1.2627-0.96543-2.4306-1.2937-3.4503-0.36791-1.1283-0.46752-1.6806-0.3673-1.394a5.7629 5.7629 0 0 1-0.0915-0.28027c-0.34442-1.1733-0.61859-2.3462-0.82606-3.5078-3.4798-0.31915-7.148 0.40513-10.256 2.1153a5.7629 5.7629 0 0 1-0.0413 0.0236c-4.0313 2.1739-8.1036 6.2184-11.824 12.395-3.8477 6.4189-6.0658 13.027-7.5821 18.263 5.6453 1.4708 13.164 3.1393 21.098 3.3102zm56.792-5.2366 0.62398-0.0325c-0.10712 0.0117-0.29872-4.8e-4 -0.41008 0.0118-0.11166 3e-3 -0.0946 0.0207-0.2139 0.0207zm2.5918-0.26257 0.0811-0.0103c-7e-3 8.8e-4 -0.056 5e-3 -0.0634 6e-3 -8e-3 9.4e-4 -0.01 3e-3 -0.0177 4e-3zm-34.47-11.45c-0.0469-0.0435-0.0294-0.0418-0.0738-0.0841-0.0691-0.0698-0.0988-0.081-0.16964-0.15488zm105.31-8.5571-0.0428-0.0885c0.0101 0.0188 0.0153 0.0372 0.0251 0.0561 6e-3 0.0112 0.0121 0.0214 0.0177 0.0325zm-114.6-6.82c-0.0183-0.0457-4e-3 -0.0225-0.0207-0.0664-0.0471-0.14197-0.0863-0.21615-0.13276-0.36582zm83.715-21.073c3.1048 0.0659 6.2288-0.65601 8.9392-2.1404 4.0904-2.2734 8.1524-6.333 11.848-12.5a5.7629 5.7629 0 0 1 0.0147-0.0251c3.8498-6.3469 6.0688-12.941 7.588-18.172-5.6573-1.4907-13.157-3.179-20.973-3.2954h-1.0724c-6.3966 0-11.318 1.1564-14.438 2.8868a5.7629 5.7629 0 0 1-0.0575 0.031c-2.8216 1.5233-5.2742 3.9664-6.936 6.8991a5.7629 5.7629 0 0 1-0.0118 0.0221l-0.26551 0.46318c-0.10401 0.21184-0.13042 0.41677-0.22422 0.62545 0.15343 0.14339 0.2889 0.2299 0.444 0.385a5.7629 5.7629 0 0 1 0.0634 0.0649c0.38503 0.39722 0.97859 0.89451 1.7849 1.7008a5.7629 5.7629 0 0 1 0.10326 0.10473c0.39182 0.41212 0.76925 0.87011 1.1476 1.3276l0.24192 0.23011a5.7629 5.7629 0 0 1 0.711 0.81574c0.0689 0.096 0.60844 0.65525 1.3704 1.658 0.53547 0.68052 0.71148 1.0506 0.91899 1.4338l0.65642 0.86737a5.7629 5.7629 0 0 1 0.19472 0.27437c0.0921 0.13734 0.53282 0.85121 0.91309 1.484 0.0139 0.0591 0.28174 0.36004 0.31862 0.42336 0.12223 0.20978 0.21242 0.3791 0.21242 0.3791a5.7629 5.7629 0 0 1 0.12391 0.26847c0.36318 0.58841 0.82856 1.3126 1.3055 2.3513 0.41826 0.90642 0.48404 1.1388 0.29944 0.77295a5.7629 5.7629 0 0 1 0.15637 0.34223l0.16522 0.38943a5.7629 5.7629 0 0 1 0.0679 0.16374c0.0282 0.0725 0.2504 0.53853 0.52661 1.2347 0.40306 1.0018 0.85212 2.1094 1.2612 3.409 0.2448 0.72614 0.35442 1.175 0.3732 1.2288a5.7629 5.7629 0 0 1 0.19472 0.6933c0.13416 0.62509 0.41987 1.8227 0.65052 3.1169 0.0186 2e-3 0.0374 8e-3 0.0561 0.0103 0.44153 0.0417 0.88405 0.0658 1.3276 0.0752zm-92.687-0.37173c0.48931-7e-3 0.97779-0.035 1.4633-0.0826v1e-3c0.21306-0.0209 0.41217-0.10553 0.62397-0.13423 0.0311-0.14652 0.0153-0.11087 0.0531-0.27585 0.1663-0.74007 0.31605-1.4059 0.4322-1.9958a5.7629 5.7629 0 0 1 0.10621-0.44696c0.28977-1.0312 0.61479-1.8833 0.90867-2.6582 0.15245-0.50911 0.34888-1.3644 0.96472-2.5667 0.41625-1.0303 0.85344-2.0132 1.2656-2.8425 0.96504-2.1232 2.1115-4.0189 3.322-5.7102 0.73079-1.0955 1.5032-2.1396 2.3233-3.1892a5.7629 5.7629 0 0 1 0.46613-0.52809c0.2437-0.2437 0.29217-0.43609-0.16079 0.28027a5.7629 5.7629 0 0 1 0.44549-0.61365c0.91772-1.099 1.8846-2.0786 2.8499-2.9532l-0.0649 0.0797c0.33414-0.34635 0.68505-0.63131 1.0473-0.9249-0.0139-0.0336-0.0198-0.0712-0.0339-0.10473-1.3642-3.2548-3.6854-6.0727-6.7103-7.9951a5.7629 5.7629 0 0 1-0.0516-0.0324c-3.8417-2.5004-9.6183-4.1366-17.051-4.4224h-2.0032c-6.5706 0-12.412 1.0531-17.141 2.0946 1.382 5.5588 3.4024 12.661 6.9566 19.557a5.7629 5.7629 0 0 1 0.0295 0.056c3.203 6.3877 6.8349 10.513 10.138 12.625a5.7629 5.7629 0 0 1 0.0398 0.0236c2.8835 1.8753 6.3548 2.8094 9.78 2.7584zm84.965-1.2243-0.19029-0.70805c0.0312 0.0921 0.0243 0.12278 0.0531 0.21241 0.0398 0.16534 0.10602 0.34132 0.13719 0.49564zm-0.40713-1.5297-0.11654-0.36877c0.0162 0.0462 0.0239 0.0974 0.0398 0.14455 0.0252 0.0867 0.052 0.13562 0.0767 0.22422zm-2.1773-5.5966-0.14751-0.3201c-1e-3 -3e-3 0.0477 0.1268 0.0516 0.13424 0.0358 0.0802 0.0597 0.10078 0.0959 0.18586zm-112.61-1.835c-4e-3 -8e-3 -6e-3 -0.0159-0.0103-0.0236-6e-3 -0.012-0.0147-0.0205-0.0207-0.0325zm116.94-2.018c-0.098-0.49825-0.19905-0.81469-0.28469-0.94997a5.7629 5.7629 0 0 1 0.28469 0.94997zm-57.081-1.2819 0.21684-0.13129c0.0121-0.011 0.0181-0.0152 0.0325-0.028-0.0655 0.0451-0.0836 0.0677-0.2493 0.15932zm43.833-6.7147-0.4558-0.39533c0.0502 0.0391 0.0692 0.0674 0.118 0.10621 0.0748 0.0737 0.27792 0.23157 0.3378 0.28912zm-1.2922-1.1093-0.2139-0.18143c0.0345 0.0314 0.0565 0.0568 0.0974 0.0915 0.0407 0.0411 0.0759 0.0477 0.11654 0.09zm-57.264-2.2584 0.22422-0.22422-0.0457 0.0561zm3.5875-3.1833c0.1984-0.15838 0.30422-0.27253 0.51923-0.43663a5.7629 5.7629 0 0 1 1.7524-0.90278c-3e-3 -7e-3 -7e-3 -0.0141-0.0103-0.0206-1.4708 0.37333-1.9878 0.90513-2.2613 1.36zm-2.9546-15.601-0.0531-0.0369c0.0101 6e-3 0.0182 0.0158 0.028 0.0221 8e-3 5e-3 0.017 9e-3 0.0251 0.0148zm63.468-0.60037c8e-3 -4e-3 0.0169-7e-3 0.0251-0.0118 0.011-6e-3 0.0201-0.0133 0.031-0.0192z" color="#000000" color-rendering="auto" dominant-baseline="auto" fill="#fff" image-rendering="auto" shape-rendering="auto" solid-color="#000000" style="font-feature-settings:normal;font-variant-alternates:normal;font-variant-caps:normal;font-variant-ligatures:normal;font-variant-numeric:normal;font-variant-position:normal;isolation:auto;mix-blend-mode:normal;shape-padding:0;text-decoration-color:#000000;text-decoration-line:none;text-decoration-style:solid;text-indent:0;text-orientation:mixed;text-transform:none;white-space:normal"/></g></svg>
