<svg width="250" height="250" version="1.1" viewBox="0 0 250 250" xml:space="preserve" xmlns="http://www.w3.org/2000/svg"><g transform="matrix(1.3333 0 0 -1.3333 -238.06 580.56)"><path d="m272.74 427.49c-1.7013 0.0349-3.4026-0.50645-4.7829-1.5605a4.9525 4.9525 0 0 1-0.25353-0.20663c0.38828 0.33944-0.81326-0.67431-2.008-1.7544-1.1947-1.0802-2.8093-2.5997-4.6384-4.4888-3.6582-3.7783-8.1814-9.0201-11.911-15.279a4.9525 4.9525 0 0 1-3e-3 -8e-3c-3.0694-5.1656-5.1338-10.329-6.1038-15.402-4.5681 1.7042-9.7781 2.472-15.519 2.472h-0.96977a4.9525 4.9525 0 0 1-0.10395-8.6e-4c-7.4273-0.15312-14.577-1.4997-20.006-2.8206-2.7149-0.66042-4.996-1.3172-6.6502-1.828-1.5864-0.48981-2.2382-0.71187-2.8497-0.94314-3.407-1.1984-5.4444-4.7789-4.9008-8.255a4.9525 4.9525 0 0 1 0.0989-0.48425c-0.16533 0.63254 0.0159-0.0957 0.11409-0.55651 0.099-0.46449 0.24205-1.1133 0.43101-1.9104 0.37791-1.5941 0.94183-3.7819 1.7354-6.3383 1.5854-5.1071 4.0722-11.69 7.9102-18.034 2.931-4.9267 6.3197-9.0877 10.172-12.296-4.0916-3.5275-7.5434-8.2981-10.538-14.093a4.9525 4.9525 0 0 1-0.0101-0.0216c-3.332-6.5242-5.508-13.304-6.9012-18.583-0.6966-2.6394-1.1943-4.9015-1.525-6.5627-0.30178-1.516-0.39691-2.0259-0.4982-2.8396-0.62124-3.5662 1.5449-7.0799 4.859-8.2664a4.9525 4.9525 0 0 1 0.25733-0.0849c-0.39565 0.11777 0.92086-0.29569 2.3287-0.68581s3.3598-0.89177 5.7108-1.3881c4.702-0.99263 10.998-1.975 17.811-1.975 0.64817 0 1.4444 4e-3 2.3287 0.0659 8.5713 0.24405 16.126 2.2775 22.18 6.1456a4.9525 4.9525 0 0 1 0.0126 8e-3c7.3137 4.7016 12.283 12.377 13.508 21.099 0.37409 2.6322-0.79875 5.328-2.8129 6.9202-5e-3 5e-3 -0.50941 0.36439-0.79484 0.59707 0.0574-0.0545-0.0495 0.0493 0.0456-0.0482a4.9525 4.9525 0 0 1-0.0672 0.0634c-0.1359 0.10859-0.16318 0.15273-0.29283 0.2434-0.01 9e-3 -0.0215 0.019-0.0279 0.0254l0.0938-0.0584a4.9525 4.9525 0 0 1-0.28903 0.23071c-0.0507 0.0428-0.0232 0.0274-0.0925 0.0824-0.10878 0.0861-0.34083 0.25594-0.53115 0.40693-0.30424 0.24853-0.62916 0.50948-0.9837 0.79103l-0.34735 0.38917a4.9525 4.9525 0 0 1-0.34987 0.35368c-0.35852 0.32692-0.80151 0.8145-1.3881 1.4578-7e-3 8e-3 -9e-3 0.0101-0.0165 0.0177l-0.37777 0.42595c-0.43343 0.54624-0.84233 1.1103-1.26 1.719v8.6e-4c-0.62552 0.91238-1.1845 1.8625-1.6962 2.8941-0.34559 0.74414-0.58384 1.2487-0.74031 1.7012a4.9525 4.9525 0 0 1-0.34227 0.77328c0.058-0.10521-0.0588 0.16648-0.14199 0.36763-0.16567 0.4864-0.31397 1.0052-0.36508 1.2575a4.9525 4.9525 0 0 1-0.0545 0.23199c-0.12742 0.5035-0.25395 1.0024-0.3841 1.5072-0.0834 0.48041-0.17175 0.93439-0.18761 1.0623-0.0957 0.89918-0.17494 1.4521-0.17494 1.4515a4.9525 4.9525 0 0 1-0.0431 0.63764l-0.071 0.54763 0.0291-0.27635c-0.0384 0.5251-0.13498 1.0393-0.28142 1.5352 0.0267 0.14963 0.065 0.29442 0.0837 0.44748 0.16176 0.72607 0.21171 1.3215 0.21171 1.4451l-0.019-0.42087c0.0706 0.82708 0.14083 1.5136 0.21804 1.9256a4.9525 4.9525 0 0 1 0.0216 0.13184c0.067 0.42039 0.11146 0.68218 0.15973 0.92412a4.9525 4.9525 0 0 1 0.0114 0.0558c0.14208 0.75811 0.25914 1.3271 0.36508 1.6758l-6e-3 -0.0177c0.25028 0.81341 0.33964 1.135 0.19902 0.78342a4.9525 4.9525 0 0 1 0.13184 0.37143c0.12539 0.40422 0.36447 1.0035 0.65285 1.7557a4.9525 4.9525 0 0 1 0.0685 0.19648c0.0755 0.22448 0.12477 0.34227 0.28396 0.69089l3e-3 8e-3c0.50197 1.0848 1.2058 2.3271 2.0435 3.5951a4.9525 4.9525 0 0 1 0.0798 0.12298l0.20916 0.33846a4.9525 4.9525 0 0 1 0.0254 0.0406c0.0952 0.15705 0.15415 0.2389 0.34481 0.49312a4.9525 4.9525 0 0 1 0.0152 0.0203c0.11055 0.14895 0.42439 0.49738 1.0255 1.1726a4.9525 4.9525 0 0 1 0.28776 0.35367l0.20916 0.28396c0.061 0.0715 0.24943 0.28594 0.14198 0.18635a4.9525 4.9525 0 0 1 0.21043 0.20535c0.21962 0.22926 0.58184 0.53716 1.1536 1.0446a4.9525 4.9525 0 0 1 0.2155 0.20157c0.40588 0.40586 0.50955 0.49772 0.58567 0.55143a4.9525 4.9525 0 0 1 0.30297 0.22944c0.47336 0.39158 0.78165 0.64047 0.96849 0.76061l-0.23958-0.13565c0.17271 0.11553 0.21645 0.20093 0.39171 0.32833 0.21625 0.1306 0.65215 0.37578 0.41579 0.23833a4.9525 4.9525 0 0 1 0.24339 0.15084c0.31296 0.20702 0.60568 0.43649 0.8785 0.68581 0.26066 0.10816 0.51739 0.22688 0.7644 0.36635l-0.0849-0.0469c-0.0973-0.0525 0.0502 8e-3 0.41579 0.18381l0.0165 8e-3 1.217 0.54002a4.9525 4.9525 0 0 1 0.54003 0.28015c0.0614 0.0369 0.30022 0.16151 0.71622 0.34862a4.9525 4.9525 0 0 1 0.13818 0.0659c-0.42746-0.20852-0.16436-0.11413 0.42467 0.12043l1.151 0.35748a4.9525 4.9525 0 0 1 0.10268 0.0342c0.48408 0.16234 0.73371 0.25978 0.9723 0.34607 0.13894 0.0324 0.34653 0.0739 0.75173 0.1293a4.9525 4.9525 0 0 1 0.3803 0.0672l1.307 0.28396a4.9525 4.9525 0 0 1 0.2117 0.0507 4.9525 4.9525 0 0 1 0.0913 8e-3c0.56059 0.0601 0.91199 0.0925 1.061 0.0925a4.9525 4.9525 0 0 1 0.2548 6e-3l1.3767 0.071a4.9525 4.9525 0 0 1 0.28016 0.0228c0.58126 0.0632 1.6238-2e-3 2.9106-0.14198a4.9525 4.9525 0 0 1 0.53621-0.0291c-0.14969 0 0.17636-0.0423 1.0243-0.15212a4.9525 4.9525 0 0 1 0.0672-9e-3c0.19522-0.0225 0.57196-0.10896 1.2816-0.26367 0.56185-0.14363 1.0801-0.2663 1.5111-0.37523 0.0655-0.0165 0.47782-0.18657 1.3957-0.47284l-0.10141 0.0317 0.37142-0.1255c0.41272-0.14494 0.57812-0.20898 0.6313-0.23579a4.9525 4.9525 0 0 1 0.80243-0.32198c-0.7149 0.21492-0.39185 0.1311 0.39045-0.27256a4.9525 4.9525 0 0 1 0.35875-0.16733l0.76694-0.32198a4.9525 4.9525 0 0 1 0.61481-0.34608c0.2329-0.11024 0.46532-0.19524 0.69721-0.27761 0.18051-0.16782 0.36792-0.32992 0.56792-0.48299 0.0617-0.0473 0.1-0.1115 0.16353-0.15719a4.9525 4.9525 0 0 1 0.14451-0.10014l0.0887-0.0596c0.16722-0.12215 0.32999-0.22629 0.49439-0.32833l0.55397-0.41326c0.42935-0.34464 0.95153-0.80271 1.5085-1.2765l0.5058-0.50327c0.57542-0.59648 1.0561-1.0767 1.4591-1.5326a4.9525 4.9525 0 0 1 0.18507-0.20156c-0.38982 0.39465-0.29766 0.20707 0.32072-0.43609 0.3714-0.4788 0.75372-1.0177 1.2056-1.6492 0.63182-0.92676 1.193-1.874 1.6936-2.8941 0.33853-0.7522 0.63538-1.3527 0.86454-1.8597 0.11532-0.33572 0.23057-0.6638 0.33467-0.97357a4.9525 4.9525 0 0 1 6e-3 -0.0254c0.18559-0.54304 0.32804-1.0073 0.40945-1.3602a4.9525 4.9525 0 0 1 0.0165-0.0659c0.14312-0.58318 0.28543-1.1338 0.42468-1.6682 0.0711-0.37429 0.15871-0.92203 0.16479-0.94695 0.0869-0.80084 0.16606-1.3889 0.16606-1.5123a4.9525 4.9525 0 0 1 0.19903-1.3792c0.034-0.22475 0.0914-0.44119 0.14451-0.65919-0.0727-0.37128-0.13061-0.75764-0.16733-1.1675 4e-3 -3.4e-4 9e-3 0.13959 0.0101 0.14705 5e-3 0.0337 3e-3 0.0144-8.6e-4 -8e-3 -8e-3 -0.0439-0.019-0.0976-0.019-0.0976a4.9525 4.9525 0 0 1-0.0824-0.60214c-0.0669-0.87452-0.1381-1.6403-0.22566-2.1512a4.9525 4.9525 0 0 1-0.0101-0.0646l-0.11156-0.70736c-0.19805-0.86565-0.32474-1.4931-0.44368-1.8444a4.9525 4.9525 0 0 1-0.1648-0.60722c-0.0394-0.19513-0.0187-0.12439-0.0837-0.30931a4.9525 4.9525 0 0 1-0.10015-0.31565c-0.12763-0.45957-0.34988-1.0712-0.59834-1.724-0.0328-0.0764-0.15538-0.35969-0.26495-0.60974l-0.22818-0.44369a4.9525 4.9525 0 0 1-0.25606-0.60087 4.9525 4.9525 0 0 1-0.0938-0.20282c-0.0293-0.0689-0.2439-0.46309-0.58694-1.094l-0.0951-0.15592c-0.23665-0.37747-0.25797-0.41969-0.33087-0.51848a4.9525 4.9525 0 0 1-0.11788-0.16607l-0.68961-1.0205 0.12295 0.17367c-0.35186-0.47494-0.43481-0.63711-0.50833-0.76313-0.34013-0.39489-0.6494-0.76363-1.0471-1.2018l-0.17367-0.19141a4.9525 4.9525 0 0 1-0.5527-0.72384c0.19829 0.3171 0.21839 0.27679-0.0608-3e-3 -0.49327-0.49328-0.7041-0.70046-0.98372-0.91779a4.9525 4.9525 0 0 1-0.3917-0.33848c-0.50869-0.48887-0.57869-0.55072-0.60214-0.56663a4.9525 4.9525 0 0 1-0.78722-0.66553c0.0304 0.0318-0.0674-0.0693-0.49566-0.33593a4.9525 4.9525 0 0 1-0.55271-0.40059l-0.40564-0.33846 0.68834 0.44495c-0.0462-0.0437-0.0838-0.0856-0.17747-0.15212a4.9525 4.9525 0 0 1-0.46144-0.27128c-0.13148-0.0887-0.22032-0.21604-0.3448-0.31185-0.0232-0.0249-0.2031-0.14352-0.21044-0.15085-9e-3 -9e-3 0.17948 0.12039 0.19522 0.13818-2.1362-1.653-3.2622-4.2861-2.8598-6.9798a4.9525 4.9525 0 0 1 0.0304-0.17747c0.54393-2.9151 1.4253-5.8739 2.8852-8.6899a4.9525 4.9525 0 0 1 0.24973-0.42719c-0.32299 0.4945-0.21046 0.21202 0.34481-0.63131a4.9525 4.9525 0 0 1 0.11283-0.16353c2.7405-4.8472 6.7968-8.7704 11.626-11.425 5.4424-3.0263 12.075-4.3405 19.603-4.3405h1.0382a4.9525 4.9525 0 0 1 0.0774 0c14.835 0.22932 28.105 5.0911 29.462 5.5942 3.4044 1.1969 5.5206 4.7156 4.8628 8.3096a4.9525 4.9525 0 0 1-0.0368 0.18381c0.13916-0.62475-0.19655 1.0341-0.57171 2.6317-0.37517 1.5976-0.93617 3.7862-1.7253 6.3421-1.5783 5.1118-4.0512 11.699-7.8659 18.046a4.9525 4.9525 0 0 1-3e-3 3e-3c-2.974 4.9389-6.3928 9.098-10.253 12.324 4.1116 3.5211 7.6126 8.3021 10.558 14.14l3e-3 9e-3c3.3416 6.5231 5.5223 13.303 6.9177 18.573 0.69798 2.6362 1.1954 4.893 1.5263 6.545 0.3181 1.5884 0.42369 2.1626 0.52101 2.9118 0.52795 3.467-1.5505 7.0148-4.8678 8.2157a4.9525 4.9525 0 0 1-0.43609 0.13564c0.48353-0.12607-0.14344 0.046-0.58946 0.17748-0.44603 0.13152-1.0694 0.31018-1.8394 0.51847-1.5401 0.41658-3.6728 0.94989-6.2306 1.4654-5.1155 1.031-11.924 2.0042-19.185 1.7849a4.9525 4.9525 0 0 1-0.0241 0c-6.2419-0.21921-11.932-1.304-16.918-3.3618-1.1614 5.2869-3.6172 10.736-7.1572 16.343a4.9525 4.9525 0 0 1-0.0152 0.0254c-3.6435 5.6936-7.8123 10.604-11.147 14.183-1.6671 1.7893-3.1264 3.2439-4.2087 4.2847-1.0079 0.96933-1.3262 1.275-1.9205 1.7722-1.3759 1.2325-3.0652 1.8415-4.7576 1.8761zm-13.53-109.96c-0.0769 0.0608-0.13231 0.14665-0.21171 0.20409a4.9525 4.9525 0 0 1-0.20282 0.13944l-0.21043 0.13818zm13.19 92.028c3.0087-3.1834 6.6049-7.2397 9.7534-12.205a4.9525 4.9525 0 0 1 6e-3 -0.0139c3.9488-6.1859 5.6221-11.377 5.6221-15.088 0-2.7076-0.72328-5.27-2.0016-7.5401a4.9525 4.9525 0 0 1-0.0443 0.0152l-0.36254 0.10776c-0.58106 0.19795-1.1718 0.40088-1.724 0.58946a4.9525 4.9525 0 0 1-0.13438 0.043c-0.89591 0.27792-1.7159 0.46454-2.4796 0.61862a4.9525 4.9525 0 0 1-0.0913 0.0165c-0.60591 0.11037-1.2552 0.2452-1.9497 0.38537l-8e-3 8.6e-4c-0.93645 0.19226-1.7312 0.28141-2.3503 0.35241a4.9525 4.9525 0 0 1-0.22818 0.0203c-0.92171 0.0628-2.3073 0.2041-3.9336 0.2041-0.41529 0-1.0375 4e-3 -1.8064-0.0824l-1.0192-0.0444a4.9525 4.9525 0 0 1-0.29283-0.0228c-0.33682-0.0348-1.0443-0.0399-2.0638-0.2155-1.1249-0.0713-1.7189-0.30455-1.5326-0.26875l-1.1206-0.20536a4.9525 4.9525 0 0 1-0.1014-0.0177c-0.67814-0.13829-1.3264-0.28383-1.9598-0.42593a4.9525 4.9525 0 0 1-0.32959-0.0862c-0.32698-0.0973-1.016-0.25565-1.937-0.62242l0.14199 0.0545-1.113-0.40566 0.22565 0.0736c-0.0317-9e-3 -0.18296-0.072-0.22311-0.0824-2e-3 3e-3 -2e-3 6e-3 -3e-3 9e-3 -1.2966 2.2568-2.0093 4.7907-2.0092 7.5287 0 4.0279 1.4081 8.8222 4.6561 14.261a4.9525 4.9525 0 0 1 0.0165 0.0254c3.207 5.4442 7.1519 9.7487 10.397 13.02zm49.291-32.1c5.3592-0.0505 10.174-0.92945 14.041-1.7887-1.1563-4.7561-2.8936-10.898-5.9441-16.769a4.9525 4.9525 0 0 1-0.0393-0.0761c-2.7377-5.4975-5.7906-8.9949-8.6772-10.831a4.9525 4.9525 0 0 1-0.0608-0.0406c-2.4518-1.611-5.1973-2.4276-8.108-2.4276-0.73132 0-1.406 0.24142-2.1094 0.34101-0.0227 0.0949-0.0179 0.11317-0.0444 0.21549l0.0444-0.18761c-0.13036 0.59802-0.27408 1.2975-0.43355 1.9928a4.9525 4.9525 0 0 1-0.0278 0.11409c-0.28486 1.1177-0.60754 1.9596-0.74919 2.4238a4.9525 4.9525 0 0 1-0.15719 0.44115c-0.10306 0.25013-0.27686 0.73119-0.53622 1.3361-0.3437 0.92032-0.72561 1.9215-1.2537 2.9778a4.9525 4.9525 0 0 1-0.0406 0.0824c-0.77807 1.4868-1.6267 3.0493-2.7077 4.6232-0.6217 0.94122-1.276 1.7864-1.9028 2.5607-0.19323 0.26939-0.53788 0.76946-1.1548 1.3336-0.58887 0.69545-1.2157 1.4097-1.9459 2.1398a4.9525 4.9525 0 0 1-0.53496 0.4551c-0.0966 0.10074-0.1443 0.15261-0.2865 0.29537a4.9525 4.9525 0 0 1-0.19015 0.17874c1.1891 2.8039 3.1394 5.1618 5.74 6.8137a4.9525 4.9525 0 0 1 0.0152 0.0101c3.4244 2.1939 8.2913 3.5736 14.691 3.7523a4.9525 4.9525 0 0 1 0.0443 8.6e-4c0.78667 0.029 1.5631 0.0389 2.3287 0.0317zm-94.989-1.1295h0.81638c5.4819 0 9.729-0.99814 12.381-2.477a4.9525 4.9525 0 0 1 0.0152-9e-3c2.8865-1.5961 5.0858-4.0027 6.4372-6.891 2e-3 -3e-3 3e-3 -8e-3 5e-3 -0.0114-0.84654-0.68135-1.5261-1.3481-1.9573-1.7785a4.9525 4.9525 0 0 1-0.31058-0.34101c-0.17133-0.20636-0.50938-0.54145-1.0408-1.1815a4.9525 4.9525 0 0 1-8e-3 -6e-3l-0.33467-0.40565c-0.39013-0.45574-0.84342-0.976-1.2588-1.4642a4.9525 4.9525 0 0 1-0.35368-0.46776c-0.18724-0.28174-0.44819-0.66355-0.74538-1.1612l-0.22311-0.31819a4.9525 4.9525 0 0 1-6e-3 -0.0101c-1.3129-1.8777-2.3927-3.8409-3.2579-5.7146a4.9525 4.9525 0 0 1-0.0507-0.11282c-0.29301-0.67891-0.44859-1.1311-0.58312-1.4591l0.0862 0.19649c-0.50121-1.0851-0.82966-2.0888-1.1117-2.9651-0.31617-0.96966-0.40177-1.4442-0.31565-1.198a4.9525 4.9525 0 0 1-0.0786-0.24086c-0.29598-1.0083-0.5316-2.0162-0.70989-3.0145-2.9904-0.27426-6.1428 0.34816-8.8141 1.8178a4.9525 4.9525 0 0 1-0.0355 0.0203c-3.4644 1.8682-6.964 5.3439-10.162 10.652-3.3066 5.5162-5.2128 11.195-6.5158 15.695 4.8514 1.264 11.313 2.6978 18.131 2.8446zm48.805-4.5002 0.53623-0.0279c-0.0921 0.01-0.25671-4.2e-4 -0.35241 0.0101-0.096 3e-3 -0.0813 0.0178-0.18382 0.0178zm2.2273-0.22565 0.0697-9e-3c-6e-3 7.6e-4 -0.0481 4e-3 -0.0545 5e-3 -7e-3 8e-4 -9e-3 3e-3 -0.0152 3e-3zm-29.623-9.8396c-0.0403-0.0374-0.0253-0.0359-0.0634-0.0723-0.0594-0.06-0.0849-0.0696-0.14578-0.1331zm90.501-7.3537-0.0368-0.0761c9e-3 0.0162 0.0131 0.032 0.0216 0.0482 5e-3 0.01 0.0104 0.0184 0.0152 0.0279zm-98.485-5.8617c-0.0157-0.0393-3e-3 -0.0193-0.0178-0.0571-0.0405-0.12201-0.0742-0.18575-0.11409-0.31438zm71.943-18.11c2.6682 0.0566 5.3529-0.56376 7.6821-1.8394 3.5151-1.9537 7.0059-5.4424 10.182-10.742a4.9525 4.9525 0 0 1 0.0126-0.0216c3.3084-5.4544 5.2154-11.121 6.5209-15.616-4.8617-1.2811-11.307-2.732-18.024-2.832h-0.92159c-5.497 0-9.7265 0.9938-12.408 2.4808a4.9525 4.9525 0 0 1-0.0494 0.0266c-2.4248 1.3091-4.5325 3.4086-5.9606 5.9289a4.9525 4.9525 0 0 1-0.0101 0.019l-0.22817 0.39804c-0.0894 0.18205-0.11208 0.35816-0.19269 0.53749 0.13186 0.12323 0.24828 0.19757 0.38156 0.33086a4.9525 4.9525 0 0 1 0.0545 0.0558c0.33088 0.34135 0.84097 0.76871 1.5339 1.4616a4.9525 4.9525 0 0 1 0.0887 0.09c0.33672 0.35416 0.66107 0.74774 0.98624 1.1409l0.2079 0.19775a4.9525 4.9525 0 0 1 0.61101 0.70102c0.0592 0.0825 0.52288 0.5631 1.1777 1.4249 0.46017 0.58481 0.61142 0.90282 0.78975 1.2322l0.56411 0.74539a4.9525 4.9525 0 0 1 0.16734 0.23579c0.0792 0.11803 0.45789 0.7315 0.78468 1.2753 0.0119 0.0508 0.24212 0.30941 0.27381 0.36383 0.10505 0.18028 0.18255 0.32578 0.18255 0.32578a4.9525 4.9525 0 0 1 0.10649 0.23072c0.3121 0.50566 0.71204 1.128 1.1219 2.0207 0.35944 0.77895 0.41597 0.97862 0.25733 0.66425a4.9525 4.9525 0 0 1 0.13438 0.2941l0.14199 0.33466a4.9525 4.9525 0 0 1 0.0584 0.14072c0.0242 0.0623 0.21518 0.46279 0.45255 1.061 0.34638 0.86088 0.73229 1.8128 1.0839 2.9296 0.21037 0.62402 0.30458 1.0098 0.32071 1.056a4.9525 4.9525 0 0 1 0.16734 0.5958c0.11529 0.53718 0.36083 1.5664 0.55904 2.6786 0.016 2e-3 0.0321 7e-3 0.0482 9e-3 0.37944 0.0358 0.75973 0.0565 1.1409 0.0646zm-79.653-0.31946c0.4205-6e-3 0.84029-0.0301 1.2575-0.071v8.6e-4c0.1831-0.018 0.3542-0.0907 0.53622-0.11536 0.0267-0.12591 0.0132-0.0953 0.0456-0.23705 0.14292-0.636 0.27161-1.2082 0.37142-1.7152a4.9525 4.9525 0 0 1 0.0913-0.38411c0.24902-0.88616 0.52833-1.6184 0.78088-2.2843 0.13101-0.43751 0.29982-1.1725 0.82905-2.2057 0.35772-0.88537 0.73343-1.7301 1.0877-2.4428 0.82933-1.8246 1.8146-3.4537 2.8548-4.9071 0.62802-0.94145 1.2918-1.8387 1.9966-2.7407a4.9525 4.9525 0 0 1 0.40058-0.45383c0.20943-0.20943 0.25109-0.37476-0.13818 0.24086a4.9525 4.9525 0 0 1 0.38285-0.52736c0.78866-0.94446 1.6196-1.7863 2.4491-2.5379l-0.0558 0.0685c0.28715-0.29765 0.58872-0.54253 0.90005-0.79484-0.012-0.0289-0.017-0.0612-0.0291-0.09-1.1723-2.7971-3.1671-5.2187-5.7666-6.8708a4.9525 4.9525 0 0 1-0.0443-0.0278c-3.3015-2.1487-8.2657-3.5549-14.653-3.8005h-1.7215c-5.6466 0-10.667 0.90497-14.73 1.8001 1.1876 4.7771 2.924 10.88 5.9783 16.807a4.9525 4.9525 0 0 1 0.0254 0.0481c2.7526 5.4894 5.8737 9.035 8.7127 10.85a4.9525 4.9525 0 0 1 0.0342 0.0203c2.478 1.6116 5.4612 2.4143 8.4046 2.3705zm73.016-1.0522-0.16353-0.60848c0.0268 0.0792 0.0209 0.10552 0.0456 0.18254 0.0342 0.14209 0.0911 0.29332 0.1179 0.42594zm-0.34988-1.3146-0.10015-0.31691c0.0139 0.0397 0.0205 0.0837 0.0342 0.12422 0.0216 0.0745 0.0447 0.11655 0.0659 0.19269zm-1.8711-4.8095-0.12677-0.27509c-8.5e-4 -3e-3 0.041 0.10897 0.0444 0.11536 0.0308 0.0689 0.0513 0.0866 0.0824 0.15973zm-96.775-1.577c-3e-3 -7e-3 -5e-3 -0.0137-9e-3 -0.0203-5e-3 -0.0103-0.0126-0.0176-0.0178-0.0279zm100.49-1.7342c-0.0842-0.42819-0.17106-0.70012-0.24465-0.81638a4.9525 4.9525 0 0 1 0.24465 0.81638zm-49.054-1.1016 0.18635-0.11282c0.0104-9e-3 0.0156-0.0131 0.0279-0.0241-0.0563 0.0388-0.0718 0.0582-0.21424 0.13692zm37.669-5.7704-0.3917-0.33973c0.0431 0.0336 0.0595 0.0579 0.10141 0.0913 0.0643 0.0633 0.23883 0.19901 0.29029 0.24846zm-1.1105-0.95329-0.18382-0.15592c0.0297 0.027 0.0486 0.0488 0.0837 0.0786 0.035 0.0353 0.0652 0.041 0.10015 0.0773zm-49.211-1.9408 0.19269-0.19269-0.0393 0.0482zm3.083-2.7356c0.1705-0.13611 0.26143-0.23421 0.44621-0.37523a4.9525 4.9525 0 0 1 1.506-0.77583c-3e-3 -6e-3 -6e-3 -0.0121-9e-3 -0.0177-1.264 0.32083-1.7083 0.77784-1.9433 1.1688zm-2.5392-13.407-0.0456-0.0317c9e-3 5e-3 0.0156 0.0136 0.0241 0.019 7e-3 4e-3 0.0146 8e-3 0.0216 0.0127zm54.543-0.51594c7e-3 -3e-3 0.0145-6e-3 0.0216-0.0101 9e-3 -5e-3 0.0173-0.0114 0.0266-0.0165z" color="#000000" color-rendering="auto" dominant-baseline="auto" fill="#fff" image-rendering="auto" shape-rendering="auto" solid-color="#000000" style="font-feature-settings:normal;font-variant-alternates:normal;font-variant-caps:normal;font-variant-ligatures:normal;font-variant-numeric:normal;font-variant-position:normal;isolation:auto;mix-blend-mode:normal;shape-padding:0;text-decoration-color:#000000;text-decoration-line:none;text-decoration-style:solid;text-indent:0;text-orientation:mixed;text-transform:none;white-space:normal"/></g></svg>
